<?xml version="1.0" encoding="utf-8"?>
<!-- Generator: Adobe Illustrator 19.0.0, SVG Export Plug-In . SVG Version: 6.00 Build 0)  -->
<svg version="1.1" id="Layer_1" xmlns="http://www.w3.org/2000/svg" xmlns:xlink="http://www.w3.org/1999/xlink" x="0px" y="0px"
	 viewBox="0 0 579.4 193.6" style="enable-background:new 0 0 579.4 193.6;" xml:space="preserve">
<style type="text/css">
	.st0{fill:#FF6E4E;}
	.st1{fill:#FFCE47;}
	.st2{fill:#00C7A0;}
	.st3{fill:#00C1EA;}
</style>
<g id="XMLID_336_">
	<g id="XMLID_337_">
		<g id="XMLID_343_">
			<path id="XMLID_344_" class="st0" d="M572.9,78.5c0-1.2-1-2.3-2.2-2.4l-2.4-0.2c-1.2-0.1-2.3-1.2-2.5-2.4
				c-0.5-2.7-1.2-5.3-2.1-7.7c-0.4-1.1,0-2.6,1-3.3l1.9-1.4c1-0.7,1.3-2.1,0.7-3.2l-3.1-5.4c-0.6-1.1-2-1.5-3.1-1l-2.1,1
				c-1.1,0.5-2.6,0.2-3.4-0.8c-1.7-2-3.6-3.9-5.7-5.7c-0.9-0.8-1.3-2.3-0.8-3.4l1-2.1c0.5-1.1,0.1-2.5-1-3.1l-5.4-3.1
				c-1-0.6-2.5-0.3-3.2,0.7l-1.4,1.9c-0.7,1-2.2,1.4-3.3,1c-2.5-0.9-5.1-1.6-7.7-2.1c-1.2-0.2-2.3-1.3-2.4-2.5l-0.2-2.4
				c-0.1-1.2-1.2-2.2-2.4-2.2h-6.2c-1.2,0-2.3,1-2.4,2.2l-0.2,2.4c-0.1,1.2-1.2,2.3-2.4,2.5c-2.7,0.5-5.3,1.2-7.7,2.1
				c-1.1,0.4-2.6,0-3.3-1l-1.4-1.9c-0.7-1-2.1-1.3-3.2-0.7l-5.3,3.1c-1.1,0.6-1.5,2-1,3.1l1,2.2c0.5,1.1,0.1,2.6-0.8,3.4
				c-2,1.7-3.9,3.6-5.7,5.7c-0.8,0.9-2.3,1.3-3.4,0.8l-2.1-1c-1.1-0.5-2.5-0.1-3.1,1l-3.1,5.4c-0.6,1.1-0.3,2.5,0.7,3.2l1.9,1.4
				c1,0.7,1.4,2.2,1,3.3c-0.9,2.5-1.6,5.1-2.1,7.7c-0.2,1.2-1.3,2.3-2.5,2.4l-2.4,0.2c-1.2,0.1-2.2,1.2-2.2,2.4v6.2
				c0,1.2,1,2.3,2.2,2.4l2.4,0.2c1.2,0.1,2.3,1.2,2.5,2.4c0.5,2.7,1.2,5.2,2.1,7.7c0.4,1.1,0,2.6-1,3.3l-1.9,1.4
				c-1,0.7-1.3,2.1-0.7,3.2l3.1,5.3c0.6,1.1,2,1.5,3.1,1l2.1-1c1.1-0.5,2.6-0.2,3.4,0.8c1.7,2,3.6,3.9,5.7,5.7
				c0.9,0.8,1.3,2.3,0.8,3.4l-1,2.1c-0.5,1.1-0.1,2.5,1,3.1l5.3,3.1c1.1,0.6,2.5,0.3,3.2-0.7l1.3-1.9c0.7-1,2.2-1.4,3.3-1
				c2.5,0.9,5.1,1.6,7.7,2.1c1.2,0.2,2.3,1.3,2.4,2.5l0.2,2.3c0.1,1.2,1.2,2.2,2.4,2.2h6.2c1.2,0,2.3-1,2.4-2.2l0.2-2.3
				c0.1-1.2,1.2-2.3,2.4-2.5c2.7-0.5,5.3-1.2,7.7-2.1c1.1-0.4,2.6,0,3.3,1l1.3,1.9c0.7,1,2.1,1.3,3.2,0.7l5.4-3.1
				c1.1-0.6,1.5-2,1-3.1l-1-2.1c-0.5-1.1-0.2-2.6,0.8-3.4c2.1-1.7,3.9-3.6,5.7-5.7c0.8-0.9,2.3-1.3,3.4-0.8l2.1,1
				c1.1,0.5,2.5,0.1,3.1-1l3.1-5.3c0.6-1.1,0.3-2.5-0.7-3.2l-1.9-1.4c-1-0.7-1.4-2.2-1-3.3c0.9-2.5,1.6-5.1,2.1-7.7
				c0.2-1.2,1.3-2.3,2.5-2.4l2.4-0.2c1.2-0.1,2.2-1.2,2.2-2.4L572.9,78.5z M560.2,84.3c0,1.2-0.1,3.2-0.3,4.4
				c-0.4,2.3-1,4.4-1.8,6.6c-0.4,1.1-1.3,2.9-1.9,3.9l-2.6,4.5c-0.6,1.1-1.7,2.7-2.5,3.6c-1.5,1.8-3.2,3.5-5,5
				c-0.9,0.8-2.6,1.9-3.6,2.5l-4.6,2.6c-1.1,0.6-2.8,1.5-3.9,1.9c-2.1,0.8-4.3,1.3-6.5,1.7c-1.2,0.2-3.2,0.3-4.4,0.3h-5.5
				c-1.2,0-3.2-0.1-4.4-0.3c-2.2-0.4-4.4-1-6.5-1.7c-1.1-0.4-2.9-1.3-3.9-1.9l-4.6-2.6c-1.1-0.6-2.7-1.7-3.6-2.5
				c-1.8-1.5-3.4-3.2-4.9-4.9c-0.8-0.9-1.9-2.6-2.5-3.6l-2.6-4.6c-0.6-1.1-1.5-2.8-1.9-3.9c-0.8-2.1-1.3-4.3-1.7-6.5
				c-0.2-1.2-0.3-3.2-0.3-4.4l0-5.5c0-1.2,0.1-3.2,0.3-4.4c0.4-2.2,1-4.4,1.8-6.5c0.4-1.1,1.3-2.9,1.9-4l2.6-4.6
				c0.6-1.1,1.7-2.7,2.5-3.6c1.5-1.8,3.2-3.5,5-5c0.9-0.8,2.6-1.9,3.6-2.5l4.6-2.6c1.1-0.6,2.8-1.5,3.9-1.9c2.1-0.8,4.3-1.3,6.5-1.7
				c1.2-0.2,3.2-0.3,4.4-0.3h5.4c1.2,0,3.2,0.1,4.4,0.3c2.2,0.4,4.4,1,6.5,1.8c1.1,0.4,2.9,1.3,3.9,1.9l4.6,2.6
				c1.1,0.6,2.7,1.7,3.6,2.5c1.8,1.5,3.5,3.2,5,5c0.8,0.9,1.9,2.6,2.5,3.6l2.6,4.5c0.6,1.1,1.5,2.8,1.9,4c0.8,2.1,1.4,4.3,1.8,6.5
				c0.2,1.2,0.3,3.2,0.3,4.4V84.3z"/>
		</g>
		<g id="XMLID_338_">
			<path id="XMLID_339_" class="st0" d="M520.6,39.3h-0.1c-23.3,0-42.3,18.9-42.3,42.3c0,23.3,18.9,42.3,42.3,42.3h0.1
				c23.3-0.1,42.1-19,42.1-42.3C562.7,58.2,543.9,39.3,520.6,39.3z M559.9,88.6c-0.4,2.3-1,4.4-1.8,6.6c-0.4,1.1-1.3,2.9-1.9,3.9
				l-2.6,4.5c-0.6,1.1-1.7,2.7-2.5,3.6c-1.5,1.8-3.2,3.5-5,5c-0.9,0.8-2.6,1.9-3.6,2.5l-4.6,2.6c-1.1,0.6-2.8,1.5-3.9,1.9
				c-2.1,0.8-4.3,1.3-6.5,1.7c-1.2,0.2-3.2,0.3-4.4,0.3h-5.5c-1.2,0-3.2-0.1-4.4-0.3c-2.2-0.4-4.4-1-6.5-1.7
				c-1.1-0.4-2.9-1.3-3.9-1.9l-4.6-2.6c-1.1-0.6-2.7-1.7-3.6-2.5c-1.8-1.5-3.4-3.2-4.9-4.9c-0.8-0.9-1.9-2.6-2.5-3.6l-2.6-4.6
				c-0.6-1.1-1.5-2.8-1.9-3.9c-0.8-2.1-1.3-4.3-1.7-6.5c-0.2-1.2-0.3-3.2-0.3-4.4l0-5.5c0-1.2,0.1-3.2,0.3-4.4
				c0.4-2.2,1-4.4,1.8-6.5c0.4-1.1,1.3-2.9,1.9-4l2.6-4.6c0.6-1.1,1.7-2.7,2.5-3.6c1.5-1.8,3.2-3.5,5-5c0.9-0.8,2.6-1.9,3.6-2.5
				l4.6-2.6c1.1-0.6,2.8-1.5,3.9-1.9c2.1-0.8,4.3-1.3,6.5-1.7c1.2-0.2,3.2-0.3,4.4-0.3h5.4c1.2,0,3.2,0.1,4.4,0.3
				c2.2,0.4,4.4,1,6.5,1.8c1.1,0.4,2.9,1.3,3.9,1.9l4.6,2.6c1.1,0.6,2.7,1.7,3.6,2.5c1.8,1.5,3.5,3.2,5,5c0.8,0.9,1.9,2.6,2.5,3.6
				l2.6,4.5c0.6,1.1,1.5,2.8,1.9,4c0.8,2.1,1.4,4.3,1.8,6.5c0.2,1.2,0.3,3.2,0.3,4.4v5.4C560.2,85.5,560.1,87.4,559.9,88.6z"/>
		</g>
	</g>
</g>
<g id="XMLID_348_">
	<g id="XMLID_349_">
		<g id="XMLID_355_">
			<path id="XMLID_356_" class="st1" d="M465.6,93.1c0-1.8-1.4-3.3-3.2-3.5l-3.5-0.3c-1.8-0.2-3.4-1.7-3.7-3.5
				c-0.7-3.9-1.7-7.7-3-11.4c-0.6-1.7,0-3.8,1.5-4.8l2.8-2c1.5-1,1.9-3.1,1-4.6l-4.5-7.9c-0.9-1.5-2.9-2.2-4.5-1.4l-3.1,1.5
				c-1.6,0.8-3.8,0.2-4.9-1.1c-2.5-3-5.3-5.8-8.3-8.3c-1.4-1.1-1.9-3.3-1.1-4.9l1.5-3.1c0.8-1.6,0.1-3.6-1.4-4.5l-7.9-4.5
				c-1.5-0.9-3.6-0.4-4.6,1l-2,2.8c-1,1.5-3.2,2.1-4.8,1.5c-3.6-1.3-7.4-2.3-11.4-3c-1.7-0.3-3.3-1.9-3.5-3.7l-0.3-3.5
				c-0.2-1.8-1.7-3.2-3.5-3.2h-9.1c-1.8,0-3.3,1.4-3.5,3.2l-0.3,3.5c-0.1,1.8-1.7,3.4-3.5,3.7c-3.9,0.7-7.7,1.7-11.4,3
				c-1.7,0.6-3.8,0-4.8-1.5l-2-2.8c-1-1.5-3.1-1.9-4.6-1l-7.8,4.5c-1.5,0.9-2.2,2.9-1.4,4.5l1.5,3.2c0.8,1.6,0.2,3.8-1.1,4.9
				c-3,2.5-5.8,5.3-8.3,8.3c-1.1,1.4-3.3,1.9-4.9,1.1l-3.1-1.5c-1.6-0.8-3.6-0.1-4.5,1.4l-4.5,7.8c-0.9,1.5-0.4,3.6,1,4.6l2.8,2
				c1.5,1,2.1,3.2,1.5,4.8c-1.3,3.6-2.4,7.4-3,11.4c-0.3,1.8-1.9,3.3-3.7,3.5l-3.5,0.3c-1.8,0.1-3.2,1.7-3.2,3.5v9.1
				c0,1.8,1.4,3.3,3.2,3.5l3.5,0.3c1.8,0.2,3.4,1.7,3.7,3.5c0.7,3.9,1.7,7.7,3,11.3c0.6,1.7,0,3.8-1.5,4.8l-2.8,2
				c-1.5,1-1.9,3.1-1,4.6l4.5,7.8c0.9,1.6,2.9,2.2,4.5,1.4l3.1-1.5c1.6-0.8,3.8-0.2,4.9,1.1c2.5,3,5.3,5.8,8.3,8.3
				c1.4,1.1,1.9,3.3,1.1,4.9l-1.5,3.1c-0.8,1.6-0.1,3.6,1.4,4.5l7.8,4.5c1.5,0.9,3.6,0.4,4.6-1l2-2.8c1-1.5,3.2-2.1,4.9-1.5
				c3.6,1.3,7.4,2.4,11.4,3c1.8,0.3,3.3,1.9,3.5,3.7l0.3,3.4c0.2,1.8,1.7,3.2,3.5,3.2h9.1c1.8,0,3.3-1.4,3.5-3.2l0.3-3.4
				c0.1-1.8,1.7-3.4,3.5-3.7c3.9-0.7,7.7-1.7,11.4-3c1.7-0.6,3.8,0,4.8,1.5l2,2.8c1,1.5,3.1,1.9,4.6,1l7.9-4.5
				c1.5-0.9,2.2-2.9,1.4-4.5l-1.5-3.1c-0.8-1.6-0.2-3.8,1.1-4.9c3-2.5,5.8-5.3,8.3-8.3c1.1-1.4,3.3-1.9,4.9-1.1l3.1,1.5
				c1.6,0.8,3.6,0.1,4.5-1.4l4.5-7.8c0.9-1.5,0.4-3.6-1-4.6l-2.8-2c-1.5-1-2.1-3.2-1.5-4.8c1.3-3.6,2.4-7.4,3-11.3
				c0.3-1.8,1.9-3.3,3.7-3.5l3.5-0.3c1.8-0.2,3.2-1.7,3.2-3.5L465.6,93.1z M447,101.6c0,1.8-0.2,4.7-0.5,6.4
				c-0.6,3.3-1.5,6.5-2.6,9.6c-0.6,1.7-1.9,4.2-2.8,5.8l-3.8,6.6c-0.9,1.5-2.5,3.9-3.6,5.3c-2.2,2.6-4.6,5.1-7.3,7.3
				c-1.4,1.1-3.8,2.7-5.3,3.6l-6.7,3.9c-1.5,0.9-4.1,2.2-5.8,2.8c-3.1,1.1-6.3,2-9.5,2.6c-1.7,0.3-4.6,0.5-6.4,0.5h-8.1
				c-1.8,0-4.7-0.2-6.4-0.5c-3.3-0.6-6.4-1.4-9.5-2.6c-1.7-0.6-4.2-1.9-5.8-2.8l-6.7-3.9c-1.5-0.9-3.9-2.5-5.3-3.6
				c-2.6-2.2-5.1-4.6-7.3-7.3c-1.1-1.4-2.7-3.8-3.6-5.3l-3.9-6.7c-0.9-1.5-2.2-4.1-2.8-5.8c-1.1-3.1-2-6.3-2.6-9.5
				c-0.3-1.8-0.5-4.6-0.5-6.4l0-8c0-1.8,0.2-4.7,0.5-6.4c0.6-3.3,1.5-6.5,2.6-9.6c0.6-1.7,1.9-4.3,2.8-5.8l3.9-6.7
				c0.9-1.5,2.5-4,3.6-5.3c2.2-2.6,4.6-5.1,7.3-7.3c1.4-1.1,3.8-2.7,5.3-3.6l6.7-3.9c1.5-0.9,4.1-2.2,5.8-2.8c3.1-1.1,6.3-2,9.6-2.6
				c1.8-0.3,4.6-0.5,6.4-0.5h7.9c1.8,0,4.7,0.2,6.4,0.5c3.3,0.6,6.5,1.5,9.6,2.6c1.7,0.6,4.2,1.9,5.8,2.8l6.7,3.9
				c1.5,0.9,4,2.5,5.3,3.6c2.6,2.2,5.1,4.6,7.3,7.3c1.1,1.4,2.7,3.8,3.6,5.3l3.8,6.7c0.9,1.5,2.2,4.1,2.8,5.8c1.1,3.1,2,6.3,2.6,9.6
				c0.3,1.8,0.5,4.6,0.5,6.4V101.6z"/>
		</g>
		<g id="XMLID_350_">
			<path id="XMLID_351_" class="st1" d="M388.8,35.7h-0.2c-34.2,0-62,27.8-62,62c0,34.2,27.8,62,62,62h0.2
				c34.2-0.1,61.8-27.8,61.8-62C450.6,63.5,423,35.8,388.8,35.7z M446.5,108c-0.6,3.3-1.5,6.5-2.6,9.6c-0.6,1.7-1.9,4.2-2.8,5.8
				l-3.8,6.6c-0.9,1.5-2.5,3.9-3.6,5.3c-2.2,2.6-4.6,5.1-7.3,7.3c-1.4,1.1-3.8,2.7-5.3,3.6l-6.7,3.9c-1.5,0.9-4.1,2.2-5.8,2.8
				c-3.1,1.1-6.3,2-9.5,2.6c-1.7,0.3-4.6,0.5-6.4,0.5h-8.1c-1.8,0-4.7-0.2-6.4-0.5c-3.3-0.6-6.4-1.4-9.5-2.6
				c-1.7-0.6-4.2-1.9-5.8-2.8l-6.7-3.9c-1.5-0.9-3.9-2.5-5.3-3.6c-2.6-2.2-5.1-4.6-7.3-7.3c-1.1-1.4-2.7-3.8-3.6-5.3l-3.9-6.7
				c-0.9-1.5-2.2-4.1-2.8-5.8c-1.1-3.1-2-6.3-2.6-9.5c-0.3-1.8-0.5-4.6-0.5-6.4l0-8c0-1.8,0.2-4.7,0.5-6.4c0.6-3.3,1.5-6.5,2.6-9.6
				c0.6-1.7,1.9-4.3,2.8-5.8l3.9-6.7c0.9-1.5,2.5-4,3.6-5.3c2.2-2.6,4.6-5.1,7.3-7.3c1.4-1.1,3.8-2.7,5.3-3.6l6.7-3.9
				c1.5-0.9,4.1-2.2,5.8-2.8c3.1-1.1,6.3-2,9.6-2.6c1.8-0.3,4.6-0.5,6.4-0.5h7.9c1.8,0,4.7,0.2,6.4,0.5c3.3,0.6,6.5,1.5,9.6,2.6
				c1.7,0.6,4.2,1.9,5.8,2.8l6.7,3.9c1.5,0.9,4,2.5,5.3,3.6c2.6,2.2,5.1,4.6,7.3,7.3c1.1,1.4,2.7,3.8,3.6,5.3l3.8,6.7
				c0.9,1.5,2.2,4.1,2.8,5.8c1.1,3.1,2,6.3,2.6,9.6c0.3,1.8,0.5,4.6,0.5,6.4v7.9C447,103.4,446.8,106.3,446.5,108z"/>
		</g>
	</g>
</g>
<g id="XMLID_360_">
	<g id="XMLID_361_">
		<g id="XMLID_367_">
			<path id="XMLID_368_" class="st2" d="M313.3,72.9c0-1.4-1.2-2.7-2.6-2.8l-2.8-0.2c-1.4-0.1-2.7-1.4-3-2.8
				c-0.6-3.2-1.4-6.2-2.4-9.2c-0.5-1.3,0-3.1,1.2-3.9l2.3-1.6c1.2-0.8,1.5-2.5,0.8-3.7l-3.7-6.3c-0.7-1.2-2.3-1.8-3.6-1.1l-2.5,1.2
				c-1.3,0.6-3.1,0.2-4-0.9c-2-2.4-4.3-4.7-6.7-6.7c-1.1-0.9-1.5-2.7-0.9-4l1.2-2.5c0.6-1.3,0.1-2.9-1.1-3.7l-6.3-3.7
				c-1.2-0.7-2.9-0.3-3.7,0.8l-1.6,2.3c-0.8,1.2-2.6,1.7-3.9,1.2c-2.9-1.1-6-1.9-9.2-2.4c-1.4-0.2-2.7-1.5-2.8-3l-0.2-2.8
				c-0.1-1.4-1.4-2.6-2.8-2.6h-7.3c-1.4,0-2.7,1.2-2.8,2.6l-0.2,2.8c-0.1,1.4-1.4,2.7-2.8,3c-3.2,0.6-6.2,1.4-9.2,2.4
				c-1.4,0.5-3.1,0-3.9-1.2l-1.6-2.3c-0.8-1.2-2.5-1.6-3.7-0.8l-6.3,3.7c-1.2,0.7-1.8,2.4-1.1,3.7l1.2,2.5c0.6,1.3,0.2,3-0.9,4
				c-2.4,2-4.7,4.3-6.7,6.7c-0.9,1.1-2.7,1.5-4,0.9l-2.5-1.2c-1.3-0.6-2.9-0.1-3.7,1.1l-3.7,6.3c-0.7,1.2-0.3,2.9,0.8,3.7l2.3,1.6
				c1.2,0.8,1.7,2.6,1.2,3.9c-1.1,2.9-1.9,6-2.4,9.2c-0.2,1.4-1.5,2.7-3,2.8l-2.8,0.2c-1.4,0.1-2.6,1.4-2.6,2.8v7.3
				c0,1.4,1.2,2.7,2.6,2.8l2.8,0.2c1.4,0.1,2.7,1.4,3,2.8c0.6,3.2,1.4,6.2,2.4,9.2c0.5,1.4,0,3.1-1.2,3.9l-2.3,1.6
				c-1.2,0.8-1.6,2.5-0.8,3.7l3.7,6.3c0.7,1.3,2.4,1.8,3.7,1.1l2.5-1.2c1.3-0.6,3.1-0.2,4,0.9c2,2.4,4.3,4.7,6.7,6.7
				c1.1,0.9,1.5,2.7,0.9,4l-1.2,2.5c-0.6,1.3-0.1,2.9,1.1,3.7l6.3,3.6c1.2,0.7,2.9,0.3,3.7-0.8l1.6-2.3c0.8-1.2,2.6-1.7,3.9-1.2
				c2.9,1.1,6,1.9,9.2,2.4c1.4,0.3,2.7,1.5,2.8,3l0.2,2.8c0.1,1.4,1.4,2.6,2.8,2.6h7.3c1.4,0,2.7-1.2,2.8-2.6l0.2-2.8
				c0.1-1.4,1.4-2.7,2.8-3c3.2-0.6,6.2-1.4,9.2-2.4c1.3-0.5,3.1,0,3.9,1.2l1.6,2.3c0.8,1.2,2.5,1.6,3.7,0.8l6.3-3.7
				c1.2-0.7,1.8-2.4,1.1-3.7l-1.2-2.5c-0.6-1.3-0.2-3.1,0.9-4c2.4-2,4.7-4.3,6.7-6.7c0.9-1.1,2.7-1.5,4-0.9l2.5,1.2
				c1.3,0.6,2.9,0.1,3.6-1.1l3.7-6.3c0.7-1.2,0.3-2.9-0.8-3.7l-2.3-1.6c-1.2-0.8-1.7-2.6-1.2-3.9c1.1-2.9,1.9-6,2.5-9.2
				c0.2-1.4,1.5-2.7,3-2.8l2.8-0.2c1.4-0.1,2.6-1.4,2.6-2.8L313.3,72.9z M298.2,79.8c0,1.4-0.1,3.8-0.4,5.2
				c-0.5,2.7-1.2,5.3-2.1,7.8c-0.5,1.3-1.5,3.4-2.2,4.7l-3.1,5.4c-0.7,1.2-2,3.2-2.9,4.3c-1.8,2.1-3.7,4.1-5.9,5.9
				c-1.1,0.9-3,2.2-4.3,2.9l-5.4,3.1c-1.2,0.7-3.3,1.8-4.7,2.3c-2.5,0.9-5,1.6-7.7,2.1c-1.4,0.3-3.7,0.4-5.2,0.4h-6.5
				c-1.4,0-3.8-0.1-5.2-0.4c-2.6-0.5-5.2-1.2-7.7-2.1c-1.3-0.5-3.4-1.5-4.7-2.3l-5.4-3.1c-1.2-0.7-3.2-2-4.3-2.9
				c-2.1-1.8-4.1-3.7-5.8-5.9c-0.9-1.1-2.2-3-2.9-4.3l-3.1-5.4c-0.7-1.2-1.8-3.3-2.3-4.7c-0.9-2.5-1.6-5-2.1-7.7
				c-0.3-1.4-0.4-3.7-0.4-5.2l0-6.4c0-1.4,0.1-3.8,0.4-5.2c0.5-2.7,1.2-5.2,2.1-7.7c0.5-1.4,1.5-3.4,2.3-4.7l3.1-5.4
				c0.7-1.2,2-3.2,2.9-4.3c1.8-2.1,3.7-4.1,5.9-5.9c1.1-0.9,3-2.2,4.3-2.9l5.4-3.1c1.2-0.7,3.3-1.8,4.7-2.3c2.5-0.9,5.1-1.6,7.7-2.1
				c1.4-0.3,3.7-0.4,5.2-0.4h6.4c1.4,0,3.8,0.1,5.2,0.4c2.7,0.5,5.2,1.2,7.7,2.1c1.3,0.5,3.4,1.5,4.7,2.3l5.4,3.1
				c1.2,0.7,3.2,2,4.3,2.9c2.1,1.8,4.1,3.7,5.9,5.9c0.9,1.1,2.2,3,2.9,4.3l3.1,5.4c0.7,1.2,1.8,3.3,2.3,4.7c0.9,2.5,1.6,5.1,2.1,7.7
				c0.2,1.4,0.4,3.7,0.4,5.2V79.8z"/>
		</g>
		<g id="XMLID_362_">
			<path id="XMLID_363_" class="st2" d="M251.3,26.6h-0.2c-27.6,0-50,22.4-50,50c0,27.6,22.4,50,50,50h0.2
				c27.5-0.1,49.8-22.4,49.8-50C301.2,49,278.9,26.7,251.3,26.6z M297.8,85c-0.5,2.7-1.2,5.3-2.1,7.8c-0.5,1.3-1.5,3.4-2.2,4.7
				l-3.1,5.4c-0.7,1.2-2,3.2-2.9,4.3c-1.8,2.1-3.7,4.1-5.9,5.9c-1.1,0.9-3,2.2-4.3,2.9l-5.4,3.1c-1.2,0.7-3.3,1.8-4.7,2.3
				c-2.5,0.9-5,1.6-7.7,2.1c-1.4,0.3-3.7,0.4-5.2,0.4h-6.5c-1.4,0-3.8-0.1-5.2-0.4c-2.6-0.5-5.2-1.2-7.7-2.1
				c-1.3-0.5-3.4-1.5-4.7-2.3l-5.4-3.1c-1.2-0.7-3.2-2-4.3-2.9c-2.1-1.8-4.1-3.7-5.8-5.9c-0.9-1.1-2.2-3-2.9-4.3l-3.1-5.4
				c-0.7-1.2-1.8-3.3-2.3-4.7c-0.9-2.5-1.6-5-2.1-7.7c-0.3-1.4-0.4-3.7-0.4-5.2l0-6.4c0-1.4,0.1-3.8,0.4-5.2
				c0.5-2.7,1.2-5.2,2.1-7.7c0.5-1.4,1.5-3.4,2.3-4.7l3.1-5.4c0.7-1.2,2-3.2,2.9-4.3c1.8-2.1,3.7-4.1,5.9-5.9c1.1-0.9,3-2.2,4.3-2.9
				l5.4-3.1c1.2-0.7,3.3-1.8,4.7-2.3c2.5-0.9,5.1-1.6,7.7-2.1c1.4-0.3,3.7-0.4,5.2-0.4h6.4c1.4,0,3.8,0.1,5.2,0.4
				c2.7,0.5,5.2,1.2,7.7,2.1c1.3,0.5,3.4,1.5,4.7,2.3l5.4,3.1c1.2,0.7,3.2,2,4.3,2.9c2.1,1.8,4.1,3.7,5.9,5.9c0.9,1.1,2.2,3,2.9,4.3
				l3.1,5.4c0.7,1.2,1.8,3.3,2.3,4.7c0.9,2.5,1.6,5.1,2.1,7.7c0.2,1.4,0.4,3.7,0.4,5.2v6.4C298.2,81.2,298.1,83.5,297.8,85z"/>
		</g>
	</g>
</g>
<g id="XMLID_372_">
	<g id="XMLID_373_">
		<g id="XMLID_379_">
			<path id="XMLID_380_" class="st3" d="M188.6,92.2c0-2.1-1.7-4-3.8-4.2l-4.1-0.3c-2.1-0.2-4.1-2-4.4-4.1c-0.8-4.7-2-9.2-3.6-13.6
				c-0.7-2,0-4.6,1.8-5.8l3.4-2.4c1.7-1.2,2.3-3.7,1.2-5.5l-5.4-9.4c-1.1-1.8-3.5-2.6-5.4-1.7l-3.8,1.8c-1.9,0.9-4.5,0.3-5.9-1.4
				c-3-3.6-6.4-6.9-10-10c-1.6-1.4-2.3-4-1.4-5.9l1.8-3.8c0.9-1.9,0.1-4.4-1.7-5.4l-9.4-5.4c-1.8-1.1-4.3-0.5-5.5,1.2l-2.4,3.4
				c-1.2,1.8-3.8,2.5-5.8,1.8c-4.4-1.6-8.9-2.8-13.6-3.6c-2.1-0.4-4-2.3-4.1-4.4l-0.3-4.1c-0.2-2.1-2.1-3.9-4.2-3.9H90.9
				c-2.1,0-4,1.7-4.2,3.9l-0.4,4.1c-0.2,2.1-2,4.1-4.1,4.4c-4.7,0.8-9.2,2-13.6,3.6c-2,0.7-4.6,0-5.8-1.8l-2.4-3.4
				c-1.2-1.8-3.7-2.3-5.6-1.2l-9.4,5.4c-1.8,1.1-2.6,3.5-1.7,5.4l1.8,3.8c0.9,1.9,0.3,4.5-1.4,5.9c-3.6,3-6.9,6.4-10,10
				c-1.4,1.6-4,2.3-5.9,1.4l-3.8-1.8c-1.9-0.9-4.4-0.2-5.4,1.7l-5.4,9.4c-1.1,1.8-0.5,4.3,1.2,5.5l3.4,2.4c1.7,1.2,2.5,3.8,1.8,5.8
				c-1.6,4.4-2.8,8.9-3.6,13.6c-0.4,2.1-2.3,4-4.4,4.1L7.9,88C5.7,88.2,4,90.1,4,92.2v10.9c0,2.1,1.7,4,3.9,4.2l4.1,0.3
				c2.1,0.2,4.1,2,4.4,4.1c0.8,4.7,2.1,9.2,3.6,13.6c0.7,2,0,4.6-1.8,5.8l-3.4,2.4c-1.8,1.2-2.3,3.7-1.2,5.5l5.4,9.4
				c1.1,1.9,3.5,2.6,5.4,1.7l3.8-1.8c1.9-0.9,4.5-0.3,5.9,1.4c3,3.6,6.4,6.9,10,9.9c1.6,1.4,2.3,4,1.4,5.9l-1.8,3.8
				c-0.9,1.9-0.1,4.4,1.7,5.4l9.4,5.4c1.8,1.1,4.3,0.5,5.6-1.2l2.4-3.4c1.2-1.8,3.8-2.5,5.8-1.8c4.4,1.6,8.9,2.8,13.6,3.6
				c2.1,0.4,4,2.3,4.1,4.4l0.4,4.1c0.2,2.1,2.1,3.9,4.2,3.9h10.9c2.1,0,4-1.7,4.2-3.9l0.3-4.1c0.2-2.1,2.1-4.1,4.1-4.4
				c4.7-0.8,9.2-2,13.6-3.6c2-0.7,4.6,0,5.8,1.8l2.4,3.4c1.2,1.8,3.7,2.3,5.6,1.2l9.4-5.4c1.8-1.1,2.6-3.5,1.7-5.4l-1.8-3.8
				c-0.9-1.9-0.3-4.5,1.4-5.9c3.6-3,6.9-6.4,10-10c1.4-1.6,4-2.3,5.9-1.4l3.8,1.8c1.9,0.9,4.4,0.2,5.4-1.7l5.4-9.4
				c1.1-1.8,0.5-4.3-1.2-5.5l-3.4-2.4c-1.8-1.2-2.5-3.8-1.8-5.8c1.6-4.4,2.8-8.9,3.6-13.6c0.4-2.1,2.3-4,4.4-4.1l4.1-0.3
				c2.1-0.2,3.8-2.1,3.8-4.2L188.6,92.2z M166.2,102.4c0,2.1-0.2,5.6-0.6,7.7c-0.7,4-1.8,7.8-3.1,11.5c-0.7,2-2.3,5.1-3.3,6.9
				l-4.6,8c-1.1,1.8-3,4.7-4.3,6.4c-2.6,3.2-5.6,6.1-8.7,8.7c-1.6,1.4-4.5,3.3-6.4,4.3l-8,4.6c-1.8,1.1-4.9,2.6-6.9,3.3
				c-3.7,1.3-7.5,2.4-11.4,3.1c-2.1,0.4-5.5,0.6-7.7,0.6h-9.6c-2.1,0-5.6-0.2-7.7-0.6c-3.9-0.7-7.7-1.7-11.4-3.1
				c-2-0.7-5.1-2.3-6.9-3.3l-8-4.6c-1.8-1.1-4.7-3-6.4-4.3c-3.1-2.6-6.1-5.6-8.7-8.7c-1.4-1.6-3.3-4.5-4.3-6.4l-4.7-8
				c-1.1-1.8-2.6-4.9-3.3-6.9c-1.3-3.7-2.4-7.5-3.1-11.4c-0.4-2.1-0.6-5.5-0.6-7.7l0-9.6c0-2.1,0.2-5.6,0.6-7.7
				c0.7-3.9,1.7-7.8,3.1-11.4c0.7-2,2.3-5.1,3.3-6.9l4.6-8c1.1-1.8,3-4.7,4.3-6.4c2.6-3.1,5.6-6.1,8.7-8.7c1.6-1.4,4.5-3.3,6.4-4.3
				l8-4.6c1.8-1.1,4.9-2.6,6.9-3.3c3.7-1.3,7.5-2.4,11.5-3.1c2.1-0.4,5.5-0.6,7.7-0.6h9.5c2.1,0,5.6,0.2,7.7,0.6
				c3.9,0.7,7.8,1.7,11.5,3.1c2,0.7,5.1,2.3,6.9,3.3l8,4.6c1.8,1.1,4.7,3,6.4,4.3c3.1,2.6,6.1,5.6,8.7,8.7c1.4,1.6,3.3,4.5,4.3,6.4
				l4.6,8c1.1,1.9,2.6,4.9,3.4,6.9c1.3,3.7,2.4,7.5,3.1,11.5c0.4,2.1,0.6,5.5,0.6,7.7V102.4z"/>
		</g>
		<g id="XMLID_374_">
			<path id="XMLID_375_" class="st3" d="M96.5,23.3h-0.2c-41,0-74.3,33.3-74.3,74.3c0,41,33.3,74.3,74.3,74.3h0.2
				c40.9-0.1,74.1-33.3,74.1-74.3C170.6,56.7,137.4,23.5,96.5,23.3z M165.6,110.1c-0.7,4-1.8,7.8-3.1,11.5c-0.7,2-2.3,5.1-3.3,6.9
				l-4.6,8c-1.1,1.8-3,4.7-4.3,6.4c-2.6,3.2-5.6,6.1-8.7,8.7c-1.6,1.4-4.5,3.3-6.4,4.3l-8,4.6c-1.8,1.1-4.9,2.6-6.9,3.3
				c-3.7,1.3-7.5,2.4-11.4,3.1c-2.1,0.4-5.5,0.6-7.7,0.6h-9.6c-2.1,0-5.6-0.2-7.7-0.6c-3.9-0.7-7.7-1.7-11.4-3.1
				c-2-0.7-5.1-2.3-6.9-3.3l-8-4.6c-1.8-1.1-4.7-3-6.4-4.3c-3.1-2.6-6.1-5.6-8.7-8.7c-1.4-1.6-3.3-4.5-4.3-6.4l-4.7-8
				c-1.1-1.8-2.6-4.9-3.3-6.9c-1.3-3.7-2.4-7.5-3.1-11.4c-0.4-2.1-0.6-5.5-0.6-7.7l0-9.6c0-2.1,0.2-5.6,0.6-7.7
				c0.7-3.9,1.7-7.8,3.1-11.4c0.7-2,2.3-5.1,3.3-6.9l4.6-8c1.1-1.8,3-4.7,4.3-6.4c2.6-3.1,5.6-6.1,8.7-8.7c1.6-1.4,4.5-3.3,6.4-4.3
				l8-4.6c1.8-1.1,4.9-2.6,6.9-3.3c3.7-1.3,7.5-2.4,11.5-3.1c2.1-0.4,5.5-0.6,7.7-0.6h9.5c2.1,0,5.6,0.2,7.7,0.6
				c3.9,0.7,7.8,1.7,11.5,3.1c2,0.7,5.1,2.3,6.9,3.3l8,4.6c1.8,1.1,4.7,3,6.4,4.3c3.1,2.6,6.1,5.6,8.7,8.7c1.4,1.6,3.3,4.5,4.3,6.4
				l4.6,8c1.1,1.9,2.6,4.9,3.4,6.9c1.3,3.7,2.4,7.5,3.1,11.5c0.4,2.1,0.6,5.5,0.6,7.7v9.5C166.2,104.5,166,108,165.6,110.1z"/>
		</g>
	</g>
</g>
</svg>
