<?xml version="1.0" encoding="utf-8"?>
<!-- Generator: Adobe Illustrator 19.1.0, SVG Export Plug-In . SVG Version: 6.00 Build 0)  -->
<svg version="1.1" id="Layer_1" xmlns="http://www.w3.org/2000/svg" xmlns:xlink="http://www.w3.org/1999/xlink" x="0px" y="0px"
	 viewBox="-42 -7 414 515" style="enable-background:new -42 -7 414 515;" xml:space="preserve">
<style type="text/css">
	.st0{fill:#FFFFFF;}
	.st1{fill:none;}
	.st2{fill:#84D460;}
	.st3{fill:#FF87C2;}
	.st4{fill:#FF5A5A;}
	.st5{fill:#00C7A0;}
	.st6{fill:#239CEE;}
	.st7{fill:#FF6E4E;}
	.st8{fill:#FFCE47;}
	.st9{fill:#00C1EA;}
	.st10{fill:#239DEE;}
</style>
<g id="XMLID_36_">
	<polygon class="st0" points="-36,202 -29.6,213.1 -23.2,224.2 -16.8,213.1 -10.4,202 -17.6,202 -17.6,77.5 -28.8,77.5 -28.8,202 	
		"/>
</g>
<g id="XMLID_35_">
	<polygon class="st0" points="-30.2,350 -26.7,356.1 -23.2,362.1 -19.7,356.1 -16.2,350 -20.1,350 -20.1,303.5 -26.3,303.5 
		-26.3,350 	"/>
</g>
<g id="XMLID_34_">
	<circle class="st0" cx="-23.2" cy="379.7" r="2.2"/>
</g>
<g id="XMLID_33_">
	<circle class="st0" cx="-23.2" cy="394.4" r="2.2"/>
</g>
<g id="XMLID_32_">
	<circle class="st0" cx="-23.2" cy="409.2" r="2.2"/>
</g>
<g id="XMLID_31_">
	<circle class="st0" cx="-23.2" cy="424" r="2.2"/>
</g>
<g id="XMLID_30_">
	<circle class="st0" cx="-23.2" cy="438.7" r="2.2"/>
</g>
<g id="XMLID_29_">
	<circle class="st0" cx="-23.2" cy="453.5" r="2.2"/>
</g>
<g id="XMLID_28_">
	<line class="st1" x1="41.7" y1="425.2" x2="41.3" y2="426.2"/>
</g>
<g id="photoshop">
	<g id="XMLID_93_">
		<path class="st2" d="M145.7,197.5c0-1.3-1.1-2.4-2.3-2.6l-2.5-0.2c-1.3-0.1-2.5-1.2-2.7-2.5c-0.5-2.9-1.2-5.6-2.2-8.3
			c-0.4-1.2,0-2.8,1.1-3.5l2.1-1.4c1.1-0.7,1.4-2.3,0.8-3.4l-3.3-5.7c-0.6-1.1-2.1-1.6-3.3-1l-2.3,1.1c-1.2,0.6-2.8,0.2-3.6-0.8
			c-1.9-2.2-3.9-4.2-6.1-6.1c-1-0.8-1.4-2.4-0.8-3.6l1.1-2.3c0.6-1.2,0.1-2.7-1-3.3l-5.7-3.3c-1.1-0.6-2.6-0.3-3.4,0.8l-1.4,2.1
			c-0.7,1.1-2.3,1.5-3.5,1.1c-2.7-1-5.4-1.7-8.3-2.2c-1.3-0.2-2.4-1.4-2.5-2.7l-0.2-2.5c-0.1-1.3-1.3-2.4-2.6-2.4h-6.6
			c-1.3,0-2.4,1.1-2.6,2.4l-0.2,2.5c-0.1,1.3-1.2,2.5-2.5,2.7c-2.9,0.5-5.6,1.2-8.3,2.2c-1.2,0.4-2.8,0-3.5-1.1l-1.4-2.1
			c-0.7-1.1-2.3-1.4-3.4-0.8l-5.7,3.3c-1.1,0.6-1.6,2.1-1,3.3l1.1,2.3c0.6,1.2,0.2,2.8-0.8,3.6c-2.2,1.8-4.2,3.9-6.1,6.1
			c-0.8,1-2.4,1.4-3.6,0.8l-2.3-1.1c-1.2-0.6-2.7-0.1-3.3,1l-3.3,5.7c-0.6,1.1-0.3,2.6,0.8,3.4l2.1,1.4c1.1,0.7,1.5,2.3,1.1,3.5
			c-1,2.7-1.7,5.4-2.2,8.3c-0.2,1.3-1.4,2.4-2.7,2.5l-2.5,0.2c-1.3,0.1-2.4,1.3-2.4,2.6v6.6c0,1.3,1.1,2.4,2.4,2.6l2.5,0.2
			c1.3,0.1,2.5,1.2,2.7,2.5c0.5,2.9,1.3,5.6,2.2,8.3c0.4,1.2,0,2.8-1.1,3.5l-2.1,1.4c-1.1,0.7-1.4,2.3-0.8,3.4l3.3,5.7
			c0.7,1.1,2.1,1.6,3.3,1l2.3-1.1c1.2-0.6,2.8-0.2,3.6,0.8c1.8,2.2,3.9,4.2,6.1,6.1c1,0.8,1.4,2.4,0.8,3.6l-1.1,2.3
			c-0.6,1.2-0.1,2.7,1,3.3l5.7,3.3c1.1,0.7,2.6,0.3,3.4-0.8l1.4-2.1c0.7-1.1,2.3-1.5,3.5-1.1c2.7,1,5.4,1.7,8.3,2.2
			c1.3,0.2,2.4,1.4,2.5,2.7l0.2,2.5c0.1,1.3,1.3,2.4,2.6,2.4h6.6c1.3,0,2.4-1.1,2.6-2.4l0.2-2.5c0.1-1.3,1.3-2.5,2.5-2.7
			c2.9-0.5,5.6-1.2,8.3-2.2c1.2-0.4,2.8,0,3.5,1.1l1.4,2.1c0.7,1.1,2.3,1.4,3.4,0.8l5.7-3.3c1.1-0.7,1.6-2.1,1-3.3l-1.1-2.3
			c-0.6-1.2-0.2-2.8,0.8-3.6c2.2-1.8,4.2-3.9,6.1-6.1c0.8-1,2.4-1.4,3.6-0.8l2.3,1.1c1.2,0.6,2.7,0.1,3.3-1l3.3-5.7
			c0.7-1.1,0.3-2.6-0.8-3.4l-2.1-1.4c-1.1-0.7-1.5-2.3-1.1-3.5c1-2.7,1.7-5.4,2.2-8.3c0.2-1.3,1.4-2.4,2.7-2.5l2.5-0.2
			c1.3-0.1,2.3-1.3,2.3-2.6V197.5z M132,203.7c0,1.3-0.1,3.4-0.4,4.7c-0.4,2.4-1.1,4.8-1.9,7c-0.4,1.2-1.4,3.1-2,4.2l-2.8,4.9
			c-0.6,1.1-1.8,2.9-2.6,3.9c-1.6,1.9-3.4,3.7-5.3,5.3c-1,0.8-2.8,2-3.9,2.6l-4.9,2.8c-1.1,0.7-3,1.6-4.2,2c-2.2,0.8-4.6,1.4-7,1.9
			c-1.3,0.2-3.4,0.3-4.7,0.3h-5.9c-1.3,0-3.4-0.1-4.7-0.3c-2.4-0.4-4.7-1.1-6.9-1.9c-1.2-0.4-3.1-1.4-4.2-2l-4.9-2.8
			c-1.1-0.7-2.9-1.8-3.9-2.6c-1.9-1.6-3.7-3.4-5.3-5.3c-0.8-1-2-2.8-2.6-3.9l-2.8-4.9c-0.7-1.1-1.6-3-2-4.2c-0.8-2.2-1.4-4.6-1.9-7
			c-0.2-1.3-0.4-3.4-0.4-4.7v-5.8c0-1.3,0.1-3.4,0.4-4.7c0.4-2.4,1.1-4.7,1.9-7c0.4-1.2,1.4-3.1,2-4.2l2.8-4.9
			c0.7-1.1,1.8-2.9,2.6-3.9c1.6-1.9,3.4-3.7,5.3-5.3c1-0.8,2.8-2,3.9-2.6l4.9-2.8c1.1-0.6,3-1.6,4.2-2c2.3-0.8,4.6-1.4,7-1.9
			c1.3-0.2,3.4-0.4,4.7-0.4h5.8c1.3,0,3.4,0.1,4.7,0.4c2.4,0.4,4.7,1.1,7,1.9c1.2,0.4,3.1,1.4,4.2,2l4.9,2.8
			c1.1,0.6,2.9,1.8,3.9,2.6c1.9,1.6,3.7,3.4,5.3,5.3c0.8,1,2,2.8,2.6,3.9l2.8,4.9c0.6,1.1,1.6,3,2,4.2c0.8,2.3,1.4,4.6,1.9,7
			c0.2,1.3,0.4,3.4,0.4,4.7L132,203.7L132,203.7z"/>
	</g>
	<g id="XMLID_89_">
		<path class="st2" d="M89.5,155.5h-0.1c-25,0-45.3,20.3-45.3,45.3s20.3,45.3,45.3,45.3h0.1c25-0.1,45.2-20.3,45.2-45.3
			S114.5,155.5,89.5,155.5z M131.7,208.4c-0.4,2.4-1.1,4.8-1.9,7c-0.4,1.2-1.4,3.1-2,4.2l-2.8,4.9c-0.6,1.1-1.8,2.9-2.6,3.9
			c-1.6,1.9-3.4,3.7-5.3,5.3c-1,0.8-2.8,2-3.9,2.6l-4.9,2.8c-1.1,0.7-3,1.6-4.2,2c-2.2,0.8-4.6,1.4-7,1.9c-1.3,0.2-3.4,0.3-4.7,0.3
			h-5.9c-1.3,0-3.4-0.1-4.7-0.3c-2.4-0.4-4.7-1.1-6.9-1.9c-1.2-0.4-3.1-1.4-4.2-2l-4.9-2.8c-1.1-0.7-2.9-1.8-3.9-2.6
			c-1.9-1.6-3.7-3.4-5.3-5.3c-0.8-1-2-2.8-2.6-3.9l-2.8-4.9c-0.7-1.1-1.6-3-2-4.2c-0.8-2.2-1.4-4.6-1.9-7c-0.2-1.3-0.4-3.4-0.4-4.7
			v-5.8c0-1.3,0.1-3.4,0.4-4.7c0.4-2.4,1.1-4.7,1.9-7c0.4-1.2,1.4-3.1,2-4.2l2.8-4.9c0.7-1.1,1.8-2.9,2.6-3.9
			c1.6-1.9,3.4-3.7,5.3-5.3c1-0.8,2.8-2,3.9-2.6l4.9-2.8c1.1-0.6,3-1.6,4.2-2c2.3-0.8,4.6-1.4,7-1.9c1.3-0.2,3.4-0.4,4.7-0.4h5.8
			c1.3,0,3.4,0.1,4.7,0.4c2.4,0.4,4.7,1.1,7,1.9c1.2,0.4,3.1,1.4,4.2,2l4.9,2.8c1.1,0.6,2.9,1.8,3.9,2.6c1.9,1.6,3.7,3.4,5.3,5.3
			c0.8,1,2,2.8,2.6,3.9l2.8,4.9c0.6,1.1,1.6,3,2,4.2c0.8,2.3,1.4,4.6,1.9,7c0.2,1.3,0.4,3.4,0.4,4.7v5.8
			C132,205,131.9,207.1,131.7,208.4z"/>
	</g>
</g>
<g id="react">
	<path class="st3" d="M108.8,438l-2.5-8.1c-0.3-0.9-1.2-1.5-2.2-1.3l-4.3,0.9c-0.9,0.2-2-0.3-2.5-1.1c-2-3.3-4.4-6.2-7.2-8.7
		c-0.7-0.6-1-1.8-0.6-2.6l1.7-4c0.4-0.9,0-1.9-0.8-2.3l-7.5-3.9c-0.8-0.4-1.9-0.1-2.4,0.6l-2.4,3.7c-0.5,0.8-1.6,1.2-2.5,1
		c-3.6-0.9-7.4-1.3-11.2-1c-0.9,0.1-2-0.5-2.3-1.4l-1.7-4c-0.4-0.9-1.4-1.3-2.2-1.1l-8.1,2.5c-0.9,0.3-1.5,1.2-1.3,2.2l0.9,4.3
		c0.2,0.9-0.3,2-1.1,2.5c-3.3,2-6.2,4.4-8.7,7.2c-0.6,0.7-1.8,1-2.6,0.6l-4-1.7c-0.9-0.4-1.9,0-2.4,0.8l-3.9,7.5
		c-0.4,0.8-0.2,1.9,0.6,2.4l3.7,2.4c0.8,0.5,1.2,1.6,1,2.5c-0.9,3.6-1.3,7.4-1,11.2c0.1,0.9-0.5,2-1.4,2.3l-4.1,1.6
		c-0.9,0.4-1.3,1.4-1.1,2.3l2.5,8.1c0.3,0.9,1.2,1.5,2.2,1.3l4.3-0.9c0.9-0.2,2,0.3,2.5,1.1c2,3.3,4.4,6.2,7.2,8.7
		c0.7,0.6,1,1.8,0.6,2.6l-1.7,4c-0.4,0.9,0,1.9,0.8,2.3l7.5,3.9c0.8,0.4,1.9,0.2,2.4-0.6l2.4-3.7c0.5-0.8,1.6-1.2,2.5-1
		c3.6,0.9,7.4,1.3,11.3,1c0.9-0.1,2,0.5,2.3,1.4l1.6,4c0.4,0.9,1.4,1.3,2.3,1.1l8.1-2.5c0.9-0.3,1.5-1.2,1.2-2.2l-0.9-4.3
		c-0.2-0.9,0.3-2,1.1-2.5c3.3-2,6.2-4.4,8.7-7.2c0.6-0.7,1.8-1,2.6-0.6l4,1.7c0.9,0.4,1.9,0,2.3-0.8l3.9-7.5
		c0.4-0.8,0.2-1.9-0.6-2.4l-3.7-2.4c-0.8-0.5-1.2-1.6-1-2.5c0.9-3.6,1.3-7.4,1-11.3c-0.1-0.9,0.5-2,1.4-2.3l4.1-1.6
		C108.6,439.9,109,438.9,108.8,438z M40.7,454.7c-4.5-14.3,3.6-29.6,17.9-34.1s29.6,3.6,34.1,17.9s-3.6,29.6-17.9,34.1
		S45.2,469.1,40.7,454.7z"/>
</g>
<g id="jquery">
	<path class="st3" d="M259.8,438l-2.5-8.1c-0.3-0.9-1.2-1.5-2.2-1.3l-4.3,0.9c-0.9,0.2-2-0.3-2.5-1.1c-2-3.3-4.4-6.2-7.2-8.7
		c-0.7-0.6-1-1.8-0.6-2.6l1.7-4c0.4-0.9,0-1.9-0.8-2.3l-7.5-3.9c-0.8-0.4-1.9-0.1-2.4,0.6l-2.4,3.7c-0.5,0.8-1.6,1.2-2.5,1
		c-3.6-0.9-7.4-1.3-11.2-1c-0.9,0.1-2-0.5-2.3-1.4l-1.7-4c-0.4-0.9-1.4-1.3-2.2-1.1l-8.1,2.5c-0.9,0.3-1.5,1.2-1.3,2.2l0.9,4.3
		c0.2,0.9-0.3,2-1.1,2.5c-3.3,2-6.2,4.4-8.7,7.2c-0.6,0.7-1.8,1-2.6,0.6l-4-1.7c-0.9-0.4-1.9,0-2.4,0.8l-3.9,7.5
		c-0.4,0.8-0.2,1.9,0.6,2.4l3.7,2.4c0.8,0.5,1.2,1.6,1,2.5c-0.9,3.6-1.3,7.4-1,11.2c0.1,0.9-0.5,2-1.4,2.3l-4.1,1.6
		c-0.9,0.4-1.3,1.4-1.1,2.3l2.5,8.1c0.3,0.9,1.2,1.5,2.2,1.3l4.3-0.9c0.9-0.2,2,0.3,2.5,1.1c2,3.3,4.4,6.2,7.2,8.7
		c0.7,0.6,1,1.8,0.6,2.6l-1.7,4c-0.4,0.9,0,1.9,0.8,2.3l7.5,3.9c0.8,0.4,1.9,0.2,2.4-0.6l2.4-3.7c0.5-0.8,1.6-1.2,2.5-1
		c3.6,0.9,7.4,1.3,11.3,1c0.9-0.1,2,0.5,2.3,1.4l1.6,4c0.4,0.9,1.4,1.3,2.3,1.1l8.1-2.5c0.9-0.3,1.5-1.2,1.2-2.2l-0.9-4.3
		c-0.2-0.9,0.3-2,1.1-2.5c3.3-2,6.2-4.4,8.7-7.2c0.6-0.7,1.8-1,2.6-0.6l4,1.7c0.9,0.4,1.9,0,2.3-0.8l3.9-7.5
		c0.4-0.8,0.2-1.9-0.6-2.4l-3.7-2.4c-0.8-0.5-1.2-1.6-1-2.5c0.9-3.6,1.3-7.4,1-11.3c-0.1-0.9,0.5-2,1.4-2.3l4.1-1.6
		C259.6,439.9,260.1,438.9,259.8,438z M191.8,454.7c-4.5-14.3,3.6-29.6,17.9-34.1c14.3-4.5,29.6,3.6,34.1,17.9s-3.6,29.6-17.9,34.1
		C211.5,477.1,196.3,469.1,191.8,454.7z"/>
</g>
<g id="scss">
	<path class="st4" d="M366.4,347.2l-2.5-8.1c-0.3-0.9-1.2-1.5-2.2-1.3l-4.3,0.9c-0.9,0.2-2-0.3-2.5-1.1c-2-3.3-4.4-6.2-7.2-8.7
		c-0.7-0.6-1-1.8-0.6-2.6l1.7-4c0.4-0.9,0-1.9-0.8-2.3l-7.5-3.9c-0.8-0.4-1.9-0.1-2.4,0.6l-2.4,3.7c-0.5,0.8-1.6,1.2-2.5,1
		c-3.6-0.9-7.4-1.3-11.2-1c-0.9,0.1-2-0.5-2.3-1.4l-1.7-4c-0.4-0.9-1.4-1.3-2.2-1.1l-8.1,2.5c-0.9,0.3-1.5,1.2-1.3,2.2l0.9,4.3
		c0.2,0.9-0.3,2-1.1,2.5c-3.3,2-6.2,4.4-8.7,7.2c-0.6,0.7-1.8,1-2.6,0.6l-4-1.7c-0.9-0.4-1.9,0-2.4,0.8l-3.9,7.5
		c-0.4,0.8-0.2,1.9,0.6,2.4l3.7,2.4c0.8,0.5,1.2,1.6,1,2.5c-0.9,3.6-1.3,7.4-1,11.2c0.1,0.9-0.5,2-1.4,2.3l-4.1,1.6
		c-0.9,0.4-1.3,1.4-1.1,2.3l2.5,8.1c0.3,0.9,1.2,1.5,2.2,1.3l4.3-0.9c0.9-0.2,2,0.3,2.5,1.1c2,3.3,4.4,6.2,7.2,8.7
		c0.7,0.6,1,1.8,0.6,2.6l-1.7,4c-0.4,0.9,0,1.9,0.8,2.3l7.5,3.9c0.8,0.4,1.9,0.2,2.4-0.6l2.4-3.7c0.5-0.8,1.6-1.2,2.5-1
		c3.6,0.9,7.4,1.3,11.3,1c0.9-0.1,2,0.5,2.3,1.4l1.6,4c0.4,0.9,1.4,1.3,2.3,1.1l8.1-2.5c0.9-0.3,1.5-1.2,1.2-2.2l-0.9-4.3
		c-0.2-0.9,0.3-2,1.1-2.5c3.3-2,6.2-4.4,8.7-7.2c0.6-0.7,1.8-1,2.6-0.6l4,1.7c0.9,0.4,1.9,0,2.3-0.8l3.9-7.5
		c0.4-0.8,0.2-1.9-0.6-2.4l-3.7-2.4c-0.8-0.5-1.2-1.6-1-2.5c0.9-3.6,1.3-7.4,1-11.3c-0.1-0.9,0.5-2,1.4-2.3l4.1-1.6
		C366.2,349.1,366.7,348.1,366.4,347.2z M298.4,363.9c-4.5-14.3,3.6-29.6,17.9-34.1s29.6,3.6,34.1,17.9s-3.6,29.6-17.9,34.1
		C318.1,386.3,302.8,378.3,298.4,363.9z"/>
</g>
<path id="graphic" class="st5" d="M148.3,83.5c0.3-1.6-0.7-3.2-2.3-3.6l-3-0.8c-1.5-0.4-2.7-2-2.7-3.6c0-3.6-0.3-7.1-0.9-10.5
	c-0.3-1.6,0.6-3.4,2-4l2.8-1.3c1.4-0.7,2.2-2.4,1.6-3.9l-2.8-7.6c-0.6-1.5-2.2-2.4-3.8-1.9l-3,0.8c-1.5,0.4-3.4-0.4-4.2-1.8
	c-1.8-3-3.8-5.9-6-8.6c-1-1.2-1.2-3.2-0.2-4.5l1.8-2.5c0.9-1.3,0.7-3.2-0.6-4.2l-6.2-5.2c-1.2-1-3.1-0.9-4.2,0.2l-2.2,2.2
	c-1.1,1.1-3.1,1.3-4.5,0.6c-3-1.7-6.2-3.2-9.5-4.4c-1.5-0.5-2.6-2.2-2.5-3.8l0.3-3.1c0.1-1.6-1-3.1-2.6-3.4l-8-1.4
	C86,6.9,84.4,8,84,9.5l-0.8,3c-0.4,1.5-2,2.7-3.6,2.7c-3.6,0-7.1,0.3-10.5,0.9c-1.6,0.3-3.4-0.6-4-2l-1.3-2.8
	c-0.7-1.4-2.4-2.2-3.9-1.6l-7.6,2.8c-1.5,0.5-2.4,2.2-1.9,3.8l0.8,3c0.4,1.5-0.4,3.4-1.8,4.2c-3,1.8-5.9,3.8-8.6,6
	c-1.2,1-3.2,1.2-4.5,0.3L33.7,28c-1.3-0.9-3.2-0.7-4.2,0.6l-5.2,6.2c-1,1.2-0.9,3.1,0.2,4.2l2.2,2.2c1.1,1.1,1.3,3.1,0.6,4.5
	c-1.7,3-3.2,6.2-4.4,9.5c-0.5,1.5-2.2,2.6-3.8,2.5L16,57.4c-1.6-0.1-3.1,1-3.4,2.6l-1.4,8c-0.3,1.6,0.8,3.2,2.3,3.6l3,0.8
	c1.5,0.4,2.7,2,2.7,3.6c0,3.6,0.3,7.1,0.9,10.5c0.3,1.6-0.6,3.4-2,4l-2.8,1.3c-1.4,0.7-2.2,2.4-1.6,3.9l2.8,7.6
	c0.5,1.5,2.2,2.4,3.8,2l3-0.8c1.5-0.4,3.4,0.4,4.2,1.8c1.8,3,3.8,5.9,6.1,8.6c1,1.2,1.2,3.2,0.2,4.5l-1.8,2.5
	c-0.9,1.3-0.7,3.2,0.5,4.2l6.2,5.2c1.2,1,3.1,0.9,4.2-0.2l2.2-2.2c1.1-1.1,3.1-1.3,4.5-0.5c3,1.7,6.2,3.2,9.5,4.4
	c1.5,0.5,2.6,2.2,2.5,3.8l-0.3,3.1c-0.1,1.6,1,3.1,2.6,3.4l8,1.4c1.6,0.3,3.2-0.8,3.6-2.3l0.8-3c0.4-1.5,2-2.7,3.6-2.7
	c3.6,0,7.1-0.3,10.5-0.9c1.6-0.3,3.4,0.6,4,2l1.3,2.8c0.7,1.4,2.4,2.2,3.9,1.6l7.6-2.8c1.5-0.5,2.4-2.2,2-3.8l-0.8-3
	c-0.4-1.5,0.4-3.4,1.8-4.2c3-1.8,5.9-3.8,8.6-6c1.2-1,3.2-1.2,4.5-0.3l2.5,1.8c1.3,0.9,3.2,0.7,4.2-0.6l5.2-6.2
	c1-1.2,0.9-3.1-0.2-4.2l-2.2-2.2c-1.1-1.1-1.3-3.1-0.5-4.5c1.7-3,3.2-6.2,4.4-9.5c0.5-1.5,2.2-2.6,3.8-2.5l3.1,0.3
	c1.6,0.1,3.1-1,3.4-2.6L148.3,83.5z M72.7,115.2C50.8,111.4,36.2,90.6,40,68.7S64.6,32.2,86.5,36s36.5,24.6,32.7,46.5
	C115.3,104.4,94.5,119,72.7,115.2z"/>
<g id="illustrator">
	<g id="XMLID_67_">
		<path class="st6" d="M110.9,307.1c0.2-1-0.4-2.1-1.4-2.4l-1.9-0.6c-1-0.3-1.7-1.4-1.7-2.4c0.1-2.3-0.1-4.6-0.4-6.8
			c-0.1-1,0.5-2.2,1.4-2.6l1.8-0.8c0.9-0.4,1.5-1.5,1.1-2.5l-1.6-5c-0.3-1-1.4-1.6-2.4-1.3l-2,0.5c-1,0.2-2.2-0.3-2.7-1.2
			c-1.1-2-2.3-3.9-3.7-5.7c-0.6-0.8-0.7-2.1-0.1-2.9l1.2-1.6c0.6-0.8,0.5-2.1-0.3-2.7l-3.9-3.5c-0.8-0.7-2-0.7-2.7,0l-1.5,1.4
			c-0.7,0.7-2,0.8-2.9,0.3c-1.9-1.2-3.9-2.2-6.1-3.1c-1-0.4-1.7-1.5-1.5-2.5l0.2-2c0.1-1-0.6-2-1.6-2.2l-5.1-1.1
			c-1-0.2-2.1,0.4-2.4,1.4l-0.6,1.9c-0.3,1-1.4,1.7-2.4,1.7c-2.3-0.1-4.6,0.1-6.8,0.4c-1,0.2-2.2-0.5-2.6-1.4l-0.8-1.8
			c-0.4-0.9-1.5-1.5-2.5-1.1l-5,1.7c-1,0.3-1.6,1.4-1.3,2.4l0.5,2c0.2,1-0.3,2.2-1.2,2.7c-2,1.1-3.9,2.3-5.7,3.7
			c-0.8,0.6-2.1,0.7-2.9,0.1l-1.6-1.2c-0.8-0.6-2.1-0.5-2.7,0.3l-3.5,3.9c-0.7,0.8-0.7,2,0,2.7l1.4,1.5c0.7,0.7,0.8,2,0.3,2.9
			c-1.2,1.9-2.2,3.9-3.1,6.1c-0.4,1-1.5,1.7-2.5,1.5l-2-0.2c-1-0.1-2,0.6-2.2,1.6l-1.1,5.1c-0.2,1,0.4,2.1,1.4,2.4l1.9,0.6
			c1,0.3,1.7,1.4,1.7,2.4c-0.1,2.3,0.1,4.6,0.4,6.8c0.2,1-0.5,2.2-1.4,2.6l-1.8,0.8c-0.9,0.4-1.5,1.5-1.1,2.5l1.7,5
			c0.3,1,1.4,1.6,2.4,1.3l2-0.5c1-0.2,2.2,0.3,2.7,1.2c1.1,2,2.3,3.9,3.7,5.7c0.6,0.8,0.7,2.1,0.1,2.9l-1.2,1.6
			c-0.6,0.8-0.5,2,0.3,2.7l3.9,3.5c0.8,0.7,2,0.7,2.7,0l1.5-1.4c0.8-0.7,2-0.8,2.9-0.3c1.9,1.2,3.9,2.2,6.1,3.1
			c1,0.4,1.6,1.5,1.5,2.5l-0.2,2c-0.1,1,0.6,2,1.6,2.2l5.1,1.1c1,0.2,2.1-0.4,2.4-1.4l0.6-1.9c0.3-1,1.4-1.7,2.4-1.7
			c2.3,0.1,4.6-0.1,6.8-0.4c1-0.2,2.2,0.5,2.6,1.4l0.8,1.8c0.4,0.9,1.5,1.5,2.5,1.1l5-1.6c1-0.3,1.6-1.4,1.3-2.4l-0.5-2
			c-0.2-1,0.3-2.2,1.2-2.7c2-1.1,3.9-2.3,5.7-3.7c0.8-0.6,2.1-0.7,2.9-0.1l1.6,1.2c0.8,0.6,2,0.5,2.7-0.3l3.5-3.9
			c0.7-0.8,0.7-2,0-2.7l-1.4-1.5c-0.7-0.8-0.8-2-0.3-2.9c1.2-1.9,2.2-3.9,3.1-6.1c0.4-1,1.5-1.7,2.5-1.5l2,0.2c1,0.1,2-0.6,2.2-1.6
			L110.9,307.1z M99.4,309.8c-0.2,1-0.6,2.6-1,3.6c-0.7,1.8-1.6,3.5-2.6,5.2c-0.5,0.9-1.6,2.2-2.3,3l-3,3.3c-0.7,0.8-1.9,2-2.7,2.6
			c-1.6,1.2-3.2,2.3-5,3.3c-0.9,0.5-2.5,1.1-3.4,1.4l-4.2,1.4c-1,0.3-2.6,0.8-3.6,0.9c-1.9,0.3-3.8,0.4-5.7,0.3
			c-1,0-2.7-0.3-3.7-0.5l-4.6-0.9c-1-0.2-2.6-0.6-3.6-1c-1.8-0.7-3.5-1.6-5.1-2.6c-0.9-0.5-2.2-1.6-3-2.3l-3.4-3
			c-0.8-0.7-2-1.9-2.6-2.7c-1.2-1.6-2.3-3.2-3.3-5c-0.5-0.9-1.1-2.5-1.4-3.4l-1.4-4.3c-0.3-1-0.8-2.6-0.9-3.6
			c-0.3-1.9-0.4-3.8-0.3-5.7c0-1,0.3-2.7,0.5-3.7l0.9-4.5c0.2-1,0.6-2.6,1-3.6c0.7-1.8,1.6-3.5,2.6-5.1c0.5-0.9,1.6-2.2,2.3-3l3-3.3
			c0.7-0.8,1.9-2,2.7-2.6c1.6-1.2,3.2-2.3,5-3.3c0.9-0.5,2.5-1.1,3.4-1.4l4.3-1.4c1-0.3,2.6-0.8,3.6-0.9c1.9-0.3,3.8-0.4,5.7-0.3
			c1,0,2.7,0.3,3.7,0.5l4.5,0.9c1,0.2,2.6,0.6,3.6,1c1.8,0.7,3.5,1.6,5.1,2.6c0.9,0.5,2.2,1.6,3,2.3l3.3,3c0.8,0.7,2,1.9,2.6,2.7
			c1.2,1.6,2.3,3.2,3.3,5c0.5,0.9,1.1,2.5,1.4,3.4l1.4,4.2c0.3,1,0.8,2.6,0.9,3.6c0.3,1.9,0.4,3.8,0.3,5.7c0,1-0.3,2.7-0.5,3.7
			L99.4,309.8z"/>
	</g>
	<g id="XMLID_63_">
		<path class="st6" d="M74.1,265.5L74.1,265.5c-19.5-4-38.5,8.5-42.5,27.9s8.5,38.4,27.9,42.4h0.1c19.4,3.9,38.3-8.5,42.3-27.9
			S93.5,269.6,74.1,265.5z M98.3,313.3c-0.7,1.8-1.6,3.5-2.6,5.2c-0.5,0.9-1.6,2.2-2.3,3l-3,3.3c-0.7,0.8-1.9,2-2.7,2.6
			c-1.6,1.2-3.2,2.3-5,3.3c-0.9,0.5-2.5,1.1-3.4,1.4l-4.2,1.4c-1,0.3-2.6,0.8-3.6,0.9c-1.9,0.3-3.8,0.4-5.7,0.3
			c-1,0-2.7-0.3-3.7-0.5l-4.6-0.9c-1-0.2-2.6-0.6-3.6-1c-1.8-0.7-3.5-1.6-5.1-2.6c-0.9-0.5-2.2-1.6-3-2.3l-3.4-3
			c-0.8-0.7-2-1.9-2.6-2.7c-1.2-1.6-2.3-3.2-3.3-5c-0.5-0.9-1.1-2.5-1.4-3.4l-1.4-4.3c-0.3-1-0.8-2.6-0.9-3.6
			c-0.3-1.9-0.4-3.8-0.3-5.7c0-1,0.3-2.7,0.5-3.7l0.9-4.5c0.2-1,0.6-2.6,1-3.6c0.7-1.8,1.6-3.5,2.6-5.1c0.5-0.9,1.6-2.2,2.3-3l3-3.3
			c0.7-0.8,1.9-2,2.7-2.6c1.6-1.2,3.2-2.3,5-3.3c0.9-0.5,2.5-1.1,3.4-1.4l4.3-1.4c1-0.3,2.6-0.8,3.6-0.9c1.9-0.3,3.8-0.4,5.7-0.3
			c1,0,2.7,0.3,3.7,0.5l4.5,0.9c1,0.2,2.6,0.6,3.6,1c1.8,0.7,3.5,1.6,5.1,2.6c0.9,0.5,2.2,1.6,3,2.3l3.3,3c0.8,0.7,2,1.9,2.6,2.7
			c1.2,1.6,2.3,3.2,3.3,5c0.5,0.9,1.1,2.5,1.4,3.4l1.4,4.2c0.3,1,0.8,2.6,0.9,3.6c0.3,1.9,0.4,3.8,0.3,5.7c0,1-0.3,2.7-0.5,3.7
			l-0.9,4.5C99.1,310.8,98.7,312.4,98.3,313.3z"/>
	</g>
</g>
<g id="javascript">
	<path class="st5" d="M199,368.2l-2.4-11.4c-0.3-1.3-1.5-2.2-2.8-2l-6,0.7c-1.3,0.2-2.7-0.7-3.3-1.9c-2.3-4.8-5.3-9.2-8.8-12.9
		c-0.9-0.9-1.2-2.6-0.6-3.7l2.9-5.3c0.6-1.1,0.2-2.6-0.9-3.3l-9.8-6.4c-1.1-0.7-2.6-0.4-3.4,0.6l-3.7,4.8c-0.8,1-2.4,1.4-3.6,1
		c-4.9-1.7-10-2.7-15.4-2.9c-1.3,0-2.6-1-3-2.2l-1.8-5.8c-0.4-1.2-1.7-2-3-1.8L122,318c-1.3,0.3-2.2,1.5-2,2.8l0.7,6
		c0.2,1.3-0.7,2.7-1.9,3.3c-4.8,2.3-9.1,5.3-12.9,8.8c-0.9,0.9-2.6,1.2-3.7,0.5l-5.3-2.9c-1.1-0.6-2.6-0.2-3.4,0.9l-6.4,9.8
		c-0.7,1.1-0.5,2.6,0.6,3.4l4.8,3.7c1,0.8,1.4,2.4,1,3.6c-1.8,4.9-2.7,10-2.9,15.4c0,1.3-1,2.6-2.2,3l-5.8,1.7c-1.2,0.4-2,1.7-1.8,3
		l2.4,11.4c0.3,1.3,1.5,2.2,2.8,2l6-0.7c1.3-0.2,2.7,0.7,3.3,1.9c2.3,4.8,5.3,9.1,8.8,12.9c0.9,0.9,1.2,2.6,0.5,3.7l-2.9,5.3
		c-0.6,1.1-0.2,2.6,0.9,3.3l9.8,6.4c1.1,0.7,2.6,0.5,3.4-0.6l3.7-4.8c0.8-1,2.4-1.4,3.6-1c4.9,1.8,10.1,2.7,15.4,2.9
		c1.3,0,2.6,1,3,2.3l1.7,5.8c0.4,1.2,1.7,2,3,1.8l11.4-2.4c1.3-0.3,2.2-1.5,2-2.8l-0.7-6c-0.2-1.3,0.7-2.7,1.9-3.3
		c4.8-2.3,9.1-5.3,12.9-8.8c0.9-0.9,2.6-1.2,3.7-0.5l5.3,2.9c1.1,0.6,2.6,0.2,3.3-0.9l6.4-9.8c0.7-1.1,0.5-2.6-0.6-3.4l-4.8-3.7
		c-1-0.8-1.4-2.4-1-3.6c1.7-4.9,2.7-10,2.9-15.4c0-1.3,1-2.6,2.3-3l5.8-1.7C198.5,370.8,199.3,369.5,199,368.2z M103.1,382.4
		c-4.3-20.3,8.8-40.4,29.1-44.6c20.3-4.3,40.3,8.8,44.6,29.1c4.3,20.3-8.8,40.4-29.1,44.6C127.4,415.8,107.4,402.8,103.1,382.4z"/>
</g>
<g id="XMLID_9_">
	<line class="st1" x1="133.1" y1="392.2" x2="132.6" y2="393.5"/>
</g>
<g id="css">
	<g id="XMLID_52_">
		<path class="st7" d="M302.9,279.9c0-1.6-1.3-3.1-2.9-3.2l-3.2-0.3c-1.6-0.1-3.1-1.6-3.4-3.2c-0.6-3.6-1.6-7.1-2.8-10.4
			c-0.6-1.5,0-3.5,1.3-4.4l2.6-1.8c1.3-0.9,1.8-2.8,0.9-4.2l-4.1-7.2c-0.8-1.4-2.7-2-4.1-1.3l-2.9,1.4c-1.5,0.7-3.5,0.2-4.5-1.1
			c-2.3-2.7-4.9-5.3-7.6-7.6c-1.2-1.1-1.7-3-1-4.5l1.4-2.9c0.7-1.5,0.1-3.3-1.3-4.1l-7.2-4.1c-1.4-0.8-3.3-0.4-4.2,0.9l-1.8,2.6
			c-0.9,1.3-2.9,1.9-4.4,1.3c-3.3-1.2-6.8-2.1-10.4-2.8c-1.6-0.3-3-1.8-3.2-3.4l-0.3-3.2c-0.1-1.6-1.6-2.9-3.2-2.9h-8.3
			c-1.6,0-3.1,1.3-3.2,2.9l-0.3,3.2c-0.1,1.6-1.6,3.1-3.2,3.4c-3.6,0.6-7.1,1.6-10.4,2.8c-1.5,0.6-3.5,0-4.4-1.3l-1.8-2.6
			c-0.9-1.3-2.8-1.8-4.2-0.9l-7.2,4.1c-1.4,0.8-2,2.7-1.3,4.1l1.4,2.9c0.7,1.5,0.2,3.5-1.1,4.5c-2.7,2.3-5.3,4.8-7.6,7.6
			c-1,1.2-3,1.7-4.5,1.1l-2.9-1.4c-1.5-0.7-3.3-0.1-4.2,1.3l-4.1,7.2c-0.8,1.4-0.4,3.3,0.9,4.2l2.6,1.8c1.3,0.9,1.9,2.9,1.3,4.4
			c-1.2,3.3-2.2,6.8-2.8,10.4c-0.3,1.6-1.8,3-3.4,3.2l-3.2,0.3c-1.6,0.1-2.9,1.6-2.9,3.2v8.3c0,1.6,1.3,3.1,2.9,3.2l3.2,0.3
			c1.6,0.1,3.1,1.6,3.4,3.2c0.6,3.6,1.6,7,2.8,10.4c0.6,1.5,0,3.5-1.3,4.4l-2.6,1.8c-1.3,0.9-1.8,2.8-0.9,4.2l4.1,7.2
			c0.8,1.4,2.7,2,4.2,1.3l2.9-1.3c1.5-0.7,3.5-0.2,4.5,1c2.3,2.7,4.9,5.3,7.6,7.6c1.2,1,1.7,3,1.1,4.5l-1.4,2.9
			c-0.7,1.5-0.1,3.3,1.3,4.2l7.2,4.1c1.4,0.8,3.3,0.4,4.2-0.9l1.8-2.6c0.9-1.3,2.9-1.9,4.4-1.3c3.3,1.2,6.8,2.2,10.4,2.8
			c1.6,0.3,3,1.8,3.2,3.4l0.3,3.2c0.1,1.6,1.6,2.9,3.2,2.9h8.3c1.6,0,3.1-1.3,3.2-2.9l0.3-3.2c0.1-1.6,1.6-3.1,3.2-3.4
			c3.6-0.6,7.1-1.6,10.4-2.8c1.5-0.6,3.5,0,4.4,1.3l1.8,2.6c0.9,1.3,2.8,1.8,4.2,0.9l7.2-4.1c1.4-0.8,2-2.7,1.3-4.1l-1.4-2.9
			c-0.7-1.5-0.2-3.5,1-4.5c2.8-2.3,5.3-4.8,7.6-7.6c1-1.3,3-1.7,4.5-1l2.9,1.3c1.5,0.7,3.3,0.1,4.1-1.3l4.1-7.2
			c0.8-1.4,0.4-3.3-0.9-4.2l-2.6-1.8c-1.3-0.9-1.9-2.9-1.3-4.4c1.2-3.3,2.2-6.8,2.8-10.4c0.3-1.6,1.8-3,3.4-3.2l3.2-0.3
			c1.6-0.1,2.9-1.6,2.9-3.2V279.9z M285.8,287.7c0,1.6-0.2,4.3-0.4,5.9c-0.5,3-1.3,6-2.4,8.8c-0.6,1.5-1.7,3.9-2.6,5.3l-3.5,6.1
			c-0.8,1.4-2.3,3.6-3.3,4.9c-2,2.4-4.2,4.6-6.7,6.7c-1.2,1.1-3.5,2.5-4.9,3.3l-6.1,3.5c-1.4,0.8-3.8,2-5.3,2.6
			c-2.8,1-5.7,1.8-8.7,2.3c-1.6,0.3-4.2,0.4-5.9,0.4h-7.4c-1.6,0-4.3-0.1-5.9-0.4c-3-0.5-5.9-1.3-8.7-2.3c-1.5-0.6-3.9-1.7-5.3-2.6
			l-6.1-3.5c-1.4-0.8-3.6-2.3-4.9-3.3c-2.4-2-4.6-4.2-6.6-6.6c-1.1-1.2-2.5-3.4-3.3-4.9l-3.6-6.1c-0.8-1.4-2-3.8-2.6-5.3
			c-1-2.8-1.8-5.7-2.3-8.7c-0.3-1.6-0.4-4.2-0.4-5.9v-7.3c0-1.6,0.1-4.3,0.4-5.9c0.5-3,1.3-5.9,2.4-8.7c0.6-1.5,1.7-3.9,2.6-5.3
			l3.5-6.1c0.8-1.4,2.3-3.6,3.3-4.9c2-2.4,4.3-4.6,6.7-6.6c1.2-1.1,3.4-2.5,4.9-3.3l6.1-3.5c1.4-0.8,3.8-2,5.3-2.6
			c2.8-1,5.7-1.8,8.8-2.3c1.6-0.3,4.2-0.4,5.9-0.4h7.3c1.6,0,4.3,0.2,5.9,0.4c3,0.5,5.9,1.3,8.8,2.4c1.5,0.6,3.9,1.7,5.3,2.6
			l6.1,3.5c1.4,0.8,3.6,2.3,4.9,3.3c2.4,2,4.6,4.2,6.7,6.6c1.1,1.3,2.5,3.5,3.3,4.9l3.5,6.1c0.8,1.4,2,3.8,2.6,5.3
			c1,2.8,1.8,5.8,2.4,8.8c0.3,1.6,0.4,4.2,0.4,5.9v6.9H285.8z"/>
	</g>
	<g id="XMLID_48_">
		<path class="st7" d="M232.6,227.3h-0.2c-31.3,0-56.7,25.4-56.7,56.7s25.4,56.7,56.7,56.7h0.2c31.2-0.1,56.6-25.5,56.6-56.7
			C289.1,252.8,263.8,227.4,232.6,227.3z M285.3,293.5c-0.5,3-1.3,6-2.4,8.8c-0.6,1.5-1.7,3.9-2.6,5.3l-3.5,6.1
			c-0.8,1.4-2.3,3.6-3.3,4.9c-2,2.4-4.2,4.6-6.7,6.7c-1.2,1.1-3.5,2.5-4.9,3.3l-6.1,3.5c-1.4,0.8-3.8,2-5.3,2.6
			c-2.8,1-5.7,1.8-8.7,2.3c-1.6,0.3-4.2,0.4-5.9,0.4h-7.4c-1.6,0-4.3-0.1-5.9-0.4c-3-0.5-5.9-1.3-8.7-2.3c-1.5-0.6-3.9-1.7-5.3-2.6
			l-6.1-3.5c-1.4-0.8-3.6-2.3-4.9-3.3c-2.4-2-4.6-4.2-6.6-6.6c-1.1-1.2-2.5-3.4-3.3-4.9l-3.6-6.1c-0.8-1.4-2-3.8-2.6-5.3
			c-1-2.8-1.8-5.7-2.3-8.7c-0.3-1.6-0.4-4.2-0.4-5.9v-7.3c0-1.6,0.1-4.3,0.4-5.9c0.5-3,1.3-5.9,2.4-8.7c0.6-1.5,1.7-3.9,2.6-5.3
			l3.5-6.1c0.8-1.4,2.3-3.6,3.3-4.9c2-2.4,4.3-4.6,6.7-6.6c1.2-1.1,3.4-2.5,4.9-3.3l6.1-3.5c1.4-0.8,3.8-2,5.3-2.6
			c2.8-1,5.7-1.8,8.8-2.3c1.6-0.3,4.2-0.4,5.9-0.4h7.3c1.6,0,4.3,0.2,5.9,0.4c3,0.5,5.9,1.3,8.8,2.4c1.5,0.6,3.9,1.7,5.3,2.6
			l6.1,3.5c1.4,0.8,3.6,2.3,4.9,3.3c2.4,2,4.6,4.2,6.7,6.6c1.1,1.3,2.5,3.5,3.3,4.9l3.5,6.1c0.8,1.4,2,3.8,2.6,5.3
			c1,2.8,1.8,5.8,2.4,8.8c0.3,1.6,0.4,4.2,0.4,5.9v7.3C285.8,289.3,285.6,291.9,285.3,293.5z"/>
	</g>
</g>
<g id="html">
	<path class="st8" d="M345.4,183.3l-2.5-8.1c-0.3-0.9-1.2-1.5-2.2-1.3l-4.3,0.9c-0.9,0.2-2-0.3-2.5-1.1c-2-3.3-4.4-6.2-7.2-8.7
		c-0.7-0.6-1-1.8-0.6-2.6l1.7-4c0.4-0.9,0-1.9-0.8-2.3l-7.5-3.9c-0.8-0.4-1.9-0.1-2.4,0.6l-2.4,3.7c-0.5,0.8-1.6,1.2-2.5,1
		c-3.6-0.9-7.4-1.3-11.2-1c-0.9,0.1-2-0.5-2.3-1.4l-1.7-4c-0.4-0.9-1.4-1.3-2.2-1.1l-8.1,2.5c-0.9,0.3-1.5,1.2-1.3,2.2l0.9,4.3
		c0.2,0.9-0.3,2-1.1,2.5c-3.3,2-6.2,4.4-8.7,7.2c-0.6,0.7-1.8,1-2.6,0.6l-4-1.7c-0.9-0.4-1.9,0-2.4,0.8l-3.9,7.5
		c-0.4,0.8-0.2,1.9,0.6,2.4l3.7,2.4c0.8,0.5,1.2,1.6,1,2.5c-0.9,3.6-1.3,7.4-1,11.2c0.1,0.9-0.5,2-1.4,2.3l-4.1,1.6
		c-0.9,0.4-1.3,1.4-1.1,2.3l2.5,8.1c0.3,0.9,1.2,1.5,2.2,1.3l4.3-0.9c0.9-0.2,2,0.3,2.5,1.1c2,3.3,4.4,6.2,7.2,8.7
		c0.7,0.6,1,1.8,0.6,2.6l-1.7,4c-0.4,0.9,0,1.9,0.8,2.3l7.5,3.9c0.8,0.4,1.9,0.2,2.4-0.6l2.4-3.7c0.5-0.8,1.6-1.2,2.5-1
		c3.6,0.9,7.4,1.3,11.3,1c0.9-0.1,2,0.5,2.3,1.4l1.6,4c0.4,0.9,1.4,1.3,2.3,1.1l8.1-2.5c0.9-0.3,1.5-1.2,1.2-2.2l-0.9-4.3
		c-0.2-0.9,0.3-2,1.1-2.5c3.3-2,6.2-4.4,8.7-7.2c0.6-0.7,1.8-1,2.6-0.6l4,1.7c0.9,0.4,1.9,0,2.3-0.8l3.9-7.5
		c0.4-0.8,0.2-1.9-0.6-2.4l-3.7-2.4c-0.8-0.5-1.2-1.6-1-2.5c0.9-3.6,1.3-7.4,1-11.3c-0.1-0.9,0.5-2,1.4-2.3l4.1-1.6
		C345.2,185.2,345.7,184.2,345.4,183.3z M277.4,200c-4.5-14.3,3.6-29.6,17.9-34.1s29.6,3.6,34.1,17.9c4.5,14.3-3.6,29.6-17.9,34.1
		C297.1,222.4,281.8,214.4,277.4,200z"/>
</g>
<g id="code">
	<path class="st9" d="M282.2,123.7c0.3-1.6-0.7-3.2-2.3-3.6l-3-0.8c-1.5-0.4-2.7-2-2.7-3.6c0-3.6-0.3-7.1-0.9-10.5
		c-0.3-1.6,0.6-3.4,2-4l2.8-1.3c1.4-0.7,2.2-2.4,1.6-3.9l-2.8-7.6c-0.6-1.5-2.2-2.4-3.8-1.9l-3,0.8c-1.5,0.4-3.4-0.4-4.2-1.8
		c-1.8-3-3.8-5.9-6-8.6c-1-1.2-1.2-3.2-0.2-4.5l1.8-2.5c0.9-1.3,0.7-3.2-0.6-4.2l-6.2-5.2c-1.2-1-3.1-0.9-4.2,0.2l-2.2,2.2
		c-1.1,1.1-3.1,1.3-4.5,0.6c-3-1.7-6.2-3.2-9.5-4.4c-1.5-0.5-2.6-2.2-2.5-3.8l0.3-3.1c0.1-1.6-1-3.1-2.6-3.4l-8-1.4
		c-1.6-0.3-3.2,0.8-3.6,2.3l-0.8,3c-0.4,1.5-2,2.7-3.6,2.7c-3.6,0-7.1,0.3-10.5,0.9c-1.6,0.3-3.4-0.6-4-2l-1.3-2.8
		c-0.7-1.4-2.4-2.2-3.9-1.6l-7.6,2.8c-1.5,0.5-2.4,2.2-1.9,3.8l0.8,3c0.4,1.5-0.4,3.4-1.8,4.2c-3,1.8-5.9,3.8-8.6,6
		c-1.2,1-3.2,1.2-4.5,0.3l-2.6-1.8c-1.3-0.9-3.2-0.7-4.2,0.6l-5.2,6.2c-1,1.2-0.9,3.1,0.2,4.2l2.2,2.2c1.1,1.1,1.3,3.1,0.6,4.5
		c-1.7,3-3.2,6.2-4.4,9.5c-0.5,1.5-2.2,2.6-3.8,2.5l-3.1-0.3c-1.6-0.1-3.1,1-3.4,2.6l-1.4,8c-0.3,1.6,0.8,3.2,2.3,3.6l3,0.8
		c1.5,0.4,2.7,2,2.7,3.6c0,3.6,0.3,7.1,0.9,10.5c0.3,1.6-0.6,3.4-2,4l-2.8,1.3c-1.4,0.7-2.2,2.4-1.6,3.9l2.8,7.6
		c0.5,1.5,2.2,2.4,3.8,2l3-0.8c1.5-0.4,3.4,0.4,4.2,1.8c1.8,3,3.8,5.9,6.1,8.6c1,1.2,1.2,3.2,0.2,4.5l-1.8,2.5
		c-0.9,1.3-0.7,3.2,0.5,4.2l6.2,5.2c1.2,1,3.1,0.9,4.2-0.2l2.2-2.2c1.1-1.1,3.1-1.3,4.5-0.5c3,1.7,6.2,3.2,9.5,4.4
		c1.5,0.5,2.6,2.2,2.5,3.8l-0.3,3.1c-0.1,1.6,1,3.1,2.6,3.4l8,1.4c1.6,0.3,3.2-0.8,3.6-2.3l0.8-3c0.4-1.5,2-2.7,3.6-2.7
		c3.6,0,7.1-0.3,10.5-0.9c1.6-0.3,3.4,0.6,4,2l1.3,2.8c0.7,1.4,2.4,2.2,3.9,1.6l7.6-2.8c1.5-0.5,2.4-2.2,2-3.8l-0.8-3
		c-0.4-1.5,0.4-3.4,1.8-4.2c3-1.8,5.9-3.8,8.6-6c1.2-1,3.2-1.2,4.5-0.3l2.5,1.8c1.3,0.9,3.2,0.7,4.2-0.6l5.2-6.2
		c1-1.2,0.9-3.1-0.2-4.2l-2.2-2.2c-1.1-1.1-1.3-3.1-0.5-4.5c1.7-3,3.2-6.2,4.4-9.5c0.5-1.5,2.2-2.6,3.8-2.5l3.1,0.3
		c1.6,0.1,3.1-1,3.4-2.6L282.2,123.7z M206.6,155.4c-21.9-3.8-36.5-24.6-32.7-46.5s24.6-36.5,46.5-32.7s36.5,24.6,32.7,46.5
		C249.2,144.6,228.4,159.2,206.6,155.4z"/>
</g>
<path id="XMLID_319_" class="st5" d="M57.6,82.8c0,0.2,0,0.3-0.1,0.4l0,0c-0.1,0.2-0.2,0.3-0.4,0.5c-1.3,1-2.8,1.5-4.4,1.5
	c-2,0-3.7-0.7-5.1-2c-1.4-1.4-2.1-3-2.1-5s0.7-3.6,2.1-5s3.1-2.1,5.1-2.1c1.7,0,3.2,0.5,4.5,1.5c0.2,0.2,0.4,0.4,0.4,0.7
	c0,0.3,0,0.6-0.2,0.8c-0.2,0.2-0.4,0.4-0.7,0.4c-0.3,0-0.6,0-0.8-0.2c-0.9-0.7-2-1.1-3.3-1.1s-2.4,0.5-3.3,1.4
	c-1,0.9-1.5,2.1-1.5,3.4s0.5,2.5,1.5,3.4s2.2,1.4,3.5,1.4c0.9,0,1.8-0.2,2.7-0.7v-2.7h-2.8c-0.3,0-0.6-0.1-0.8-0.3
	c-0.2-0.2-0.3-0.5-0.3-0.8s0.1-0.6,0.3-0.8c0.2-0.2,0.5-0.3,0.8-0.3h3.9c0.3,0,0.6,0.1,0.8,0.3c0.2,0.2,0.3,0.5,0.3,0.8L57.6,82.8
	L57.6,82.8z"/>
<path id="XMLID_321_" class="st5" d="M62.9,76.7c0.3-0.4,0.7-0.6,1.2-0.8s1-0.3,1.4-0.3s0.7,0.1,0.9,0.3s0.3,0.4,0.3,0.7
	c0,0.3-0.1,0.5-0.3,0.7c-0.2,0.2-0.4,0.3-0.7,0.3c-1.2,0-2.2,1-2.9,2.9v3.7c0,0.3-0.1,0.5-0.3,0.7c-0.2,0.2-0.5,0.3-0.8,0.3
	s-0.5-0.1-0.7-0.3c-0.2-0.2-0.3-0.4-0.3-0.7v-7.7c0-0.3,0.1-0.5,0.3-0.7s0.4-0.3,0.7-0.3s0.5,0.1,0.8,0.3s0.3,0.4,0.3,0.7L62.9,76.7
	L62.9,76.7z"/>
<path id="XMLID_323_" class="st5" d="M68.7,83.8c-0.9-0.9-1.3-2.1-1.3-3.4s0.4-2.5,1.3-3.5s2-1.4,3.3-1.4c0.9,0,1.8,0.3,2.6,0.9
	c0.1-0.2,0.2-0.5,0.4-0.6c0.2-0.2,0.4-0.2,0.7-0.2s0.5,0.1,0.7,0.3c0.2,0.2,0.3,0.5,0.3,0.7v7.7c0,0.3-0.1,0.5-0.3,0.7
	c-0.2,0.2-0.4,0.3-0.7,0.3s-0.5-0.1-0.7-0.2c-0.2-0.2-0.3-0.4-0.4-0.6c-0.8,0.6-1.7,0.8-2.6,0.8C70.7,85.2,69.6,84.8,68.7,83.8z
	 M69.5,80.4c0,0.8,0.2,1.4,0.7,2s1.1,0.8,1.8,0.8s1.4-0.3,1.9-0.8s0.7-1.2,0.7-2s-0.2-1.4-0.7-2c-0.5-0.5-1.1-0.8-1.8-0.8
	s-1.3,0.3-1.8,0.8C69.7,78.9,69.5,79.6,69.5,80.4z"/>
<path id="XMLID_326_" class="st5" d="M81.3,88.6c-0.2,0.2-0.5,0.3-0.8,0.3s-0.5-0.1-0.8-0.3c-0.2-0.2-0.3-0.5-0.3-0.7V76.5
	c0-0.3,0.1-0.5,0.3-0.7c0.2-0.2,0.4-0.3,0.7-0.3c0.3,0,0.5,0.1,0.7,0.2s0.3,0.3,0.4,0.6c0.8-0.5,1.7-0.8,2.7-0.8
	c1.3,0,2.4,0.5,3.3,1.4c0.9,1,1.4,2.1,1.4,3.5c0,1.3-0.5,2.5-1.4,3.4s-2,1.4-3.3,1.4c-1,0-1.9-0.3-2.6-0.8v3.4
	C81.7,88.1,81.6,88.4,81.3,88.6z M86.1,78.4c-0.5-0.5-1.1-0.8-1.9-0.8s-1.3,0.3-1.8,0.8s-0.8,1.2-0.8,2s0.3,1.4,0.8,1.9
	s1.1,0.8,1.8,0.8c0.7,0,1.3-0.3,1.9-0.8c0.5-0.5,0.8-1.2,0.8-1.9S86.6,79,86.1,78.4z"/>
<path id="XMLID_329_" class="st5" d="M93.3,84.9c-0.2,0.2-0.5,0.3-0.8,0.3s-0.5-0.1-0.8-0.3c-0.2-0.2-0.3-0.5-0.3-0.8V72.7
	c0-0.3,0.1-0.6,0.3-0.8c0.2-0.2,0.5-0.3,0.8-0.3s0.6,0.1,0.8,0.3c0.2,0.2,0.3,0.5,0.3,0.8V76c0.7-0.4,1.4-0.6,2.1-0.6
	c1.2,0,2.2,0.4,3,1.3c0.8,0.8,1.2,1.8,1.2,3v4.4c0,0.3-0.1,0.6-0.3,0.8c-0.2,0.2-0.5,0.3-0.8,0.3s-0.6-0.1-0.8-0.3
	c-0.2-0.2-0.3-0.5-0.3-0.8v-4.4c0-0.6-0.2-1.1-0.6-1.5c-0.4-0.4-0.9-0.6-1.5-0.6s-1.1,0.2-1.5,0.6s-0.6,0.9-0.6,1.5v4.4
	C93.6,84.5,93.5,84.7,93.3,84.9z"/>
<path id="XMLID_331_" class="st5" d="M104.5,72.6V73c0,0.3-0.1,0.6-0.3,0.8c-0.2,0.2-0.4,0.3-0.7,0.3s-0.5-0.1-0.8-0.3
	c-0.2-0.2-0.3-0.5-0.3-0.8v-0.4c0-0.3,0.1-0.5,0.3-0.7s0.5-0.3,0.8-0.3s0.5,0.1,0.7,0.3S104.5,72.3,104.5,72.6z M102.7,75.8
	c0.2-0.2,0.5-0.3,0.8-0.3s0.5,0.1,0.8,0.3c0.2,0.2,0.3,0.5,0.3,0.8v7.6c0,0.3-0.1,0.5-0.3,0.8c-0.2,0.2-0.4,0.3-0.7,0.3
	s-0.5-0.1-0.8-0.3c-0.2-0.2-0.3-0.5-0.3-0.7v-7.6C102.4,76.3,102.5,76,102.7,75.8z"/>
<path id="XMLID_334_" class="st5" d="M107.7,83.8c-1-1-1.5-2.1-1.5-3.4s0.5-2.5,1.5-3.4s2.1-1.4,3.5-1.4c1.1,0,2.2,0.4,3.1,1.1
	c0.2,0.2,0.4,0.4,0.4,0.7s0,0.5-0.2,0.8c-0.2,0.2-0.4,0.4-0.7,0.4s-0.5,0-0.8-0.2c-0.6-0.4-1.2-0.6-1.9-0.6s-1.4,0.3-1.9,0.8
	c-0.6,0.6-0.9,1.2-0.9,2s0.3,1.4,0.8,2s1.2,0.8,1.9,0.8s1.4-0.2,2-0.6c0.2-0.2,0.5-0.2,0.7-0.2c0.3,0,0.5,0.2,0.7,0.4
	s0.2,0.5,0.2,0.8s-0.2,0.5-0.4,0.7c-1,0.7-2,1-3.1,1C109.8,85.2,108.7,84.8,107.7,83.8z"/>
<path id="XMLID_308_" class="st9" d="M187.5,112.7c-1.2,1.2-1.8,2.6-1.8,4.2s0.6,3,1.8,4.1s2.6,1.7,4.1,1.7c1.6,0,2.9-0.4,4-1.3
	c0.3-0.2,0.6-0.3,1-0.2c0.4,0,0.7,0.2,0.9,0.5s0.3,0.6,0.3,1s-0.2,0.7-0.5,0.9c-1.6,1.2-3.4,1.9-5.5,1.9c-2.4,0-4.5-0.8-6.2-2.5
	s-2.6-3.7-2.6-6.1s0.9-4.4,2.6-6.1c1.7-1.7,3.8-2.5,6.2-2.6c2.1,0,3.9,0.6,5.5,1.9c0.3,0.2,0.5,0.5,0.5,0.9s0,0.7-0.3,1
	c-0.2,0.3-0.5,0.5-0.9,0.5s-0.7,0-1-0.3c-1.1-0.9-2.4-1.3-4-1.3S188.8,111.5,187.5,112.7z"/>
<path id="XMLID_310_" class="st9" d="M207.3,125.6c-1.6,0-3-0.6-4.1-1.8s-1.7-2.6-1.7-4.2c0-1.6,0.6-3.1,1.7-4.3s2.5-1.8,4.1-1.8
	s2.9,0.6,4,1.8c1.1,1.2,1.7,2.6,1.7,4.3c0,1.7-0.6,3-1.7,4.1C210.2,125,208.9,125.6,207.3,125.6z M205,117c-0.6,0.7-0.9,1.5-0.9,2.5
	s0.3,1.8,0.9,2.5c0.6,0.6,1.4,0.9,2.3,0.9s1.6-0.3,2.3-0.9c0.6-0.7,0.9-1.6,0.9-2.5c0-1-0.3-1.8-0.9-2.5c-0.7-0.6-1.4-0.9-2.3-0.9
	S205.6,116.4,205,117z"/>
<path id="XMLID_313_" class="st9" d="M227.9,124.2c0,0.4-0.1,0.7-0.4,0.9s-0.6,0.4-0.9,0.4s-0.6-0.1-0.9-0.3
	c-0.2-0.2-0.4-0.4-0.4-0.7c-1,0.7-2.1,1-3.3,1c-1.6,0-3-0.6-4.1-1.8s-1.7-2.6-1.7-4.2s0.6-3.1,1.7-4.2c1.1-1.2,2.5-1.8,4.1-1.8
	c1.2,0,2.3,0.3,3.2,1V110c0-0.4,0.1-0.7,0.4-0.9c0.3-0.3,0.6-0.4,0.9-0.4s0.7,0.1,0.9,0.4c0.3,0.3,0.4,0.6,0.4,0.9L227.9,124.2
	L227.9,124.2z M222.1,122.9c0.9,0,1.6-0.3,2.3-1s0.9-1.5,0.9-2.4s-0.3-1.7-0.9-2.4s-1.4-1-2.3-1s-1.7,0.3-2.3,1s-0.9,1.5-0.9,2.4
	s0.3,1.7,0.9,2.4S221.2,122.9,222.1,122.9z"/>
<path id="XMLID_316_" class="st9" d="M243.7,119.2c0,0.4-0.1,0.6-0.3,0.9c-0.2,0.2-0.5,0.3-0.9,0.3h-7.6c0.1,0.7,0.4,1.2,0.8,1.6
	c0.5,0.6,1.3,0.9,2.2,1.1c1,0.1,1.8-0.1,2.6-0.6c0.2-0.3,0.6-0.4,1-0.4s0.7,0.1,0.8,0.3c0.4,0.5,0.4,1,0,1.6
	c-1.2,1.1-2.6,1.6-4.2,1.6c-1.7,0-3.1-0.6-4.2-1.8s-1.7-2.6-1.7-4.2c0-1.6,0.6-3.1,1.7-4.2c1.1-1.2,2.5-1.8,4.1-1.8s2.9,0.5,4,1.6
	C243.1,116.2,243.7,117.6,243.7,119.2L243.7,119.2L243.7,119.2z M237.9,115.8c-0.9,0-1.7,0.3-2.2,0.9c-0.6,0.5-0.9,1.1-1,1.7h6.8
	c-0.1-0.6-0.5-1.1-1.2-1.6C239.6,116.2,238.8,115.9,237.9,115.8z"/>
<path id="XMLID_285_" class="st2" d="M57.7,194c0.6,0.6,0.9,1.4,0.9,2.3s-0.3,1.6-0.9,2.3c-0.6,0.6-1.4,0.9-2.3,0.9h-1.9v3.3
	c0,0.2-0.1,0.4-0.2,0.6s-0.4,0.2-0.6,0.2s-0.4-0.1-0.6-0.2s-0.2-0.4-0.2-0.6v-8.9c0-0.2,0.1-0.4,0.2-0.6s0.4-0.2,0.6-0.2h2.7
	C56.3,193,57.1,193.3,57.7,194z M53.6,194.7v3.1h1.9c0.4,0,0.8-0.2,1.1-0.5c0.3-0.3,0.5-0.7,0.5-1.1c0-0.4-0.2-0.8-0.5-1.1
	s-0.7-0.5-1.1-0.5h-1.9V194.7z"/>
<path id="XMLID_288_" class="st2" d="M61.9,203.3c-0.2,0.2-0.4,0.2-0.6,0.2s-0.4-0.1-0.6-0.2c-0.2-0.2-0.2-0.4-0.2-0.6v-8.9
	c0-0.2,0.1-0.4,0.2-0.6s0.4-0.2,0.6-0.2s0.4,0.1,0.6,0.2s0.2,0.4,0.2,0.6v2.6c0.6-0.3,1.1-0.4,1.6-0.4c0.9,0,1.7,0.3,2.3,1
	c0.6,0.6,1,1.4,1,2.3v3.4c0,0.2-0.1,0.4-0.2,0.6s-0.4,0.2-0.6,0.2s-0.4-0.1-0.6-0.2c-0.2-0.2-0.2-0.4-0.2-0.6v-3.4
	c0-0.4-0.2-0.8-0.5-1.1s-0.7-0.5-1.2-0.5c-0.4,0-0.8,0.2-1.1,0.5c-0.3,0.3-0.5,0.7-0.5,1.1v3.4C62.2,203,62.1,203.2,61.9,203.3z"/>
<path id="XMLID_290_" class="st2" d="M73,203.6c-1,0-1.9-0.4-2.6-1.1s-1.1-1.6-1.1-2.7c0-1,0.4-1.9,1.1-2.7c0.7-0.7,1.6-1.1,2.6-1.1
	s1.8,0.4,2.5,1.1s1,1.7,1,2.7s-0.4,1.9-1.1,2.6C74.9,203.2,74,203.6,73,203.6z M71.6,198.2c-0.4,0.4-0.5,0.9-0.5,1.6
	s0.2,1.2,0.5,1.6c0.4,0.4,0.9,0.6,1.4,0.6c0.6,0,1-0.2,1.4-0.6c0.4-0.4,0.6-1,0.6-1.6s-0.2-1.1-0.6-1.6c-0.4-0.4-0.9-0.6-1.4-0.6
	C72.5,197.7,72,197.9,71.6,198.2z"/>
<path id="XMLID_293_" class="st2" d="M81.7,196c0.2,0,0.4,0.1,0.6,0.2c0.2,0.2,0.2,0.4,0.2,0.6c0,0.2-0.1,0.4-0.2,0.6
	s-0.4,0.2-0.6,0.2h-0.4v4.2c0.2,0,0.4,0.1,0.6,0.2c0.2,0.2,0.2,0.4,0.2,0.6s-0.1,0.4-0.2,0.6c-0.2,0.2-0.4,0.2-0.6,0.2
	c-0.5,0-0.9-0.2-1.2-0.5c-0.3-0.3-0.5-0.7-0.5-1.2v-4.2h-0.4c-0.2,0-0.4-0.1-0.6-0.2c-0.2-0.2-0.2-0.4-0.2-0.6s0.1-0.4,0.2-0.6
	c0.2-0.2,0.4-0.2,0.6-0.2h0.4v-2.2c0-0.2,0.1-0.4,0.2-0.6s0.4-0.2,0.6-0.2s0.4,0.1,0.6,0.2c0.2,0.2,0.2,0.4,0.2,0.6v2.2L81.7,196
	L81.7,196z"/>
<path id="XMLID_295_" class="st2" d="M88.5,203.6c-1,0-1.9-0.4-2.6-1.1s-1.1-1.6-1.1-2.7c0-1,0.4-1.9,1.1-2.7
	c0.7-0.7,1.6-1.1,2.6-1.1s1.8,0.4,2.5,1.1s1,1.7,1,2.7s-0.4,1.9-1.1,2.6C90.3,203.2,89.5,203.6,88.5,203.6z M87,198.2
	c-0.4,0.4-0.5,0.9-0.5,1.6s0.2,1.2,0.5,1.6c0.4,0.4,0.9,0.6,1.4,0.6c0.6,0,1-0.2,1.4-0.6c0.4-0.4,0.6-1,0.6-1.6s-0.2-1.1-0.6-1.6
	c-0.4-0.4-0.9-0.6-1.4-0.6C87.9,197.7,87.4,197.9,87,198.2z"/>
<path id="XMLID_298_" class="st2" d="M99.2,196.9c0.2,0.1,0.3,0.3,0.3,0.5s0,0.4-0.1,0.6c-0.1,0.2-0.3,0.3-0.5,0.3s-0.4,0-0.6-0.1
	c-0.6-0.4-1-0.6-1.4-0.6s-0.7,0.1-0.9,0.3c-0.2,0.1-0.2,0.2-0.2,0.3s0,0.1,0,0.2c0,0,0.1,0.1,0.2,0.1c0.2,0.2,0.6,0.3,1.1,0.4l0,0
	l0,0c0.5,0.1,1,0.3,1.5,0.5c0.4,0.2,0.8,0.5,1,0.8c0.2,0.4,0.3,0.7,0.3,1c0,0.7-0.3,1.3-0.9,1.7c-0.6,0.4-1.2,0.6-2,0.6
	c-0.9,0-1.8-0.4-2.7-1c-0.2-0.1-0.3-0.3-0.3-0.5s0-0.4,0.2-0.6c0.1-0.2,0.3-0.3,0.5-0.3s0.4,0,0.6,0.2c0.5,0.5,1.1,0.7,1.7,0.7
	c0.4,0,0.7-0.1,1-0.3c0.2-0.2,0.3-0.3,0.3-0.4s0-0.2,0-0.2s-0.1-0.1-0.2-0.2c-0.2-0.2-0.6-0.3-1.2-0.4l0,0c-0.5-0.1-1-0.2-1.4-0.4
	s-0.7-0.5-1-0.8c-0.2-0.3-0.3-0.6-0.3-0.9c0-0.7,0.3-1.2,0.9-1.7c0.5-0.4,1.2-0.6,1.9-0.6S98.4,196.3,99.2,196.9z"/>
<path id="XMLID_300_" class="st2" d="M103.4,203.3c-0.2,0.2-0.4,0.2-0.6,0.2c-0.2,0-0.4-0.1-0.6-0.2c-0.2-0.2-0.2-0.4-0.2-0.6v-8.9
	c0-0.2,0.1-0.4,0.2-0.6s0.4-0.2,0.6-0.2c0.2,0,0.4,0.1,0.6,0.2s0.2,0.4,0.2,0.6v2.6c0.6-0.3,1.1-0.4,1.6-0.4c0.9,0,1.7,0.3,2.3,1
	c0.6,0.6,1,1.4,1,2.3v3.4c0,0.2-0.1,0.4-0.2,0.6s-0.4,0.2-0.6,0.2s-0.4-0.1-0.6-0.2c-0.2-0.2-0.2-0.4-0.2-0.6v-3.4
	c0-0.4-0.2-0.8-0.5-1.1s-0.7-0.5-1.2-0.5c-0.4,0-0.8,0.2-1.1,0.5s-0.5,0.7-0.5,1.1v3.4C103.7,203,103.6,203.2,103.4,203.3z"/>
<path id="XMLID_302_" class="st2" d="M114.5,203.6c-1,0-1.9-0.4-2.6-1.1s-1.1-1.6-1.1-2.7c0-1,0.4-1.9,1.1-2.7
	c0.7-0.7,1.6-1.1,2.6-1.1s1.8,0.4,2.5,1.1s1,1.7,1,2.7s-0.4,1.9-1.1,2.6C116.4,203.2,115.5,203.6,114.5,203.6z M113.1,198.2
	c-0.4,0.4-0.5,0.9-0.5,1.6s0.2,1.2,0.5,1.6c0.4,0.4,0.9,0.6,1.4,0.6c0.6,0,1-0.2,1.4-0.6c0.4-0.4,0.6-1,0.6-1.6s-0.2-1.1-0.6-1.6
	c-0.4-0.4-0.9-0.6-1.4-0.6C114,197.7,113.5,197.9,113.1,198.2z"/>
<path id="XMLID_305_" class="st2" d="M122,206.1c-0.2,0.2-0.4,0.2-0.6,0.2c-0.2,0-0.4-0.1-0.6-0.2c-0.2-0.2-0.2-0.4-0.2-0.6v-8.7
	c0-0.2,0.1-0.4,0.2-0.6c0.2-0.2,0.3-0.2,0.6-0.2c0.2,0,0.4,0.1,0.6,0.2c0.2,0.1,0.2,0.3,0.3,0.4c0.6-0.4,1.3-0.6,2-0.6
	c1,0,1.9,0.4,2.6,1.1c0.7,0.7,1.1,1.6,1.1,2.7s-0.4,1.9-1.1,2.6c-0.7,0.7-1.6,1.1-2.6,1.1c-0.8,0-1.4-0.2-2-0.6v2.6
	C122.3,205.8,122.2,206,122,206.1z M125.7,198.3c-0.4-0.4-0.9-0.6-1.4-0.6c-0.6,0-1,0.2-1.4,0.6c-0.4,0.4-0.6,0.9-0.6,1.6
	c0,0.6,0.2,1.1,0.6,1.5c0.4,0.4,0.9,0.6,1.4,0.6s1-0.2,1.4-0.6c0.4-0.4,0.6-0.9,0.6-1.5C126.3,199.2,126.1,198.7,125.7,198.3z"/>
<path id="XMLID_240_" class="st10" d="M40.7,294.5c0-0.2,0.1-0.4,0.2-0.5s0.3-0.2,0.5-0.2s0.4,0.1,0.5,0.2s0.2,0.3,0.2,0.5v7.4
	c0,0.2-0.1,0.4-0.2,0.5s-0.3,0.2-0.5,0.2s-0.4-0.1-0.5-0.2s-0.2-0.3-0.2-0.5V294.5z"/>
<path id="XMLID_242_" class="st10" d="M43.7,294.5c0-0.2,0.1-0.4,0.2-0.5s0.3-0.2,0.5-0.2s0.4,0.1,0.5,0.2s0.2,0.3,0.2,0.5v7.4
	c0,0.2-0.1,0.4-0.2,0.5s-0.3,0.2-0.5,0.2s-0.4-0.1-0.5-0.2s-0.2-0.3-0.2-0.5V294.5z"/>
<path id="XMLID_244_" class="st10" d="M46.2,294.5c0-0.2,0.1-0.4,0.2-0.5s0.3-0.2,0.5-0.2s0.4,0.1,0.5,0.2s0.2,0.3,0.2,0.5v7.4
	c0,0.2-0.1,0.4-0.2,0.5s-0.3,0.2-0.5,0.2s-0.4-0.1-0.5-0.2s-0.2-0.3-0.2-0.5V294.5z"/>
<path id="XMLID_246_" class="st10" d="M53.8,299.9c0,0.7-0.3,1.3-0.8,1.8s-1.1,0.8-1.9,0.8s-1.3-0.3-1.8-0.8s-0.8-1.1-0.8-1.8v-3
	c0-0.2,0.1-0.3,0.2-0.5c0.1-0.1,0.3-0.2,0.5-0.2s0.3,0.1,0.5,0.2c0.1,0.1,0.2,0.3,0.2,0.5v3c0,0.4,0.1,0.7,0.4,0.9
	c0.2,0.2,0.5,0.4,0.9,0.4s0.7-0.1,0.9-0.4c0.3-0.2,0.4-0.5,0.4-0.9v-3c0-0.2,0.1-0.3,0.2-0.5c0.1-0.1,0.3-0.2,0.5-0.2
	s0.3,0.1,0.5,0.2c0.1,0.1,0.2,0.3,0.2,0.5L53.8,299.9L53.8,299.9z"/>
<path id="XMLID_248_" class="st10" d="M59.6,297c0.2,0.1,0.2,0.2,0.3,0.4s0,0.3-0.1,0.5s-0.2,0.2-0.4,0.3c-0.2,0-0.3,0-0.5-0.1
	c-0.5-0.3-0.9-0.5-1.2-0.5s-0.6,0.1-0.7,0.2s-0.2,0.2-0.2,0.2c0,0.1,0,0.1,0,0.2s0.1,0.1,0.1,0.1c0.2,0.1,0.5,0.2,0.9,0.3l0,0l0,0
	c0.4,0.1,0.8,0.2,1.2,0.4c0.4,0.2,0.6,0.4,0.8,0.7s0.3,0.6,0.3,0.9c0,0.6-0.3,1.1-0.8,1.5c-0.5,0.3-1,0.5-1.6,0.5
	c-0.8,0-1.5-0.3-2.2-0.9c-0.1-0.1-0.2-0.3-0.2-0.4c0-0.2,0-0.3,0.1-0.5s0.3-0.2,0.5-0.3c0.2,0,0.4,0,0.5,0.2
	c0.5,0.4,0.9,0.6,1.4,0.6c0.3,0,0.6-0.1,0.9-0.2c0.2-0.1,0.2-0.2,0.2-0.3s0-0.1,0-0.2c0,0-0.1-0.1-0.2-0.2c-0.2-0.1-0.5-0.3-1-0.4
	l0,0c-0.4-0.1-0.8-0.2-1.2-0.4c-0.3-0.2-0.6-0.4-0.8-0.7c-0.1-0.2-0.2-0.5-0.2-0.8c0-0.5,0.2-1,0.7-1.4c0.5-0.3,1-0.5,1.5-0.5
	C58.3,296.3,58.9,296.5,59.6,297z"/>
<path id="XMLID_250_" class="st10" d="M63.3,296.3c0.2,0,0.4,0.1,0.5,0.2s0.2,0.3,0.2,0.5s-0.1,0.4-0.2,0.5s-0.3,0.2-0.5,0.2H63v3.5
	c0.2,0,0.4,0.1,0.5,0.2s0.2,0.3,0.2,0.5s-0.1,0.4-0.2,0.5s-0.3,0.2-0.5,0.2c-0.4,0-0.7-0.1-1-0.4s-0.4-0.6-0.4-1v-3.5h-0.4
	c-0.2,0-0.4-0.1-0.5-0.2s-0.2-0.3-0.2-0.5s0.1-0.4,0.2-0.5s0.3-0.2,0.5-0.2h0.4v-1.8c0-0.2,0.1-0.4,0.2-0.5s0.3-0.2,0.5-0.2
	s0.4,0.1,0.5,0.2s0.2,0.3,0.2,0.5v1.8L63.3,296.3L63.3,296.3z"/>
<path id="XMLID_252_" class="st10" d="M67,297c0.2-0.2,0.5-0.4,0.8-0.5s0.6-0.2,0.9-0.2s0.5,0.1,0.6,0.2s0.2,0.3,0.2,0.5
	s-0.1,0.3-0.2,0.5c-0.1,0.1-0.3,0.2-0.5,0.2c-0.8,0-1.4,0.6-1.8,1.9v2.4c0,0.2-0.1,0.3-0.2,0.5c-0.1,0.1-0.3,0.2-0.5,0.2
	s-0.3-0.1-0.5-0.2c-0.1-0.1-0.2-0.3-0.2-0.5v-4.9c0-0.2,0.1-0.3,0.2-0.5c0.1-0.1,0.3-0.2,0.5-0.2s0.3,0.1,0.5,0.2
	C66.9,296.6,67,296.8,67,297L67,297z"/>
<path id="XMLID_254_" class="st10" d="M70.7,301.6c-0.6-0.6-0.9-1.3-0.9-2.2c0-0.9,0.3-1.6,0.9-2.2s1.3-0.9,2.1-0.9
	c0.6,0,1.1,0.2,1.7,0.6c0-0.2,0.1-0.3,0.2-0.4s0.3-0.2,0.4-0.2s0.3,0.1,0.5,0.2c0.1,0.1,0.2,0.3,0.2,0.5v4.9c0,0.2-0.1,0.3-0.2,0.5
	c-0.1,0.1-0.3,0.2-0.5,0.2s-0.3,0-0.4-0.2c-0.1-0.1-0.2-0.2-0.2-0.4c-0.5,0.4-1.1,0.5-1.7,0.5C72,302.5,71.2,302.2,70.7,301.6z
	 M71.2,299.4c0,0.5,0.2,0.9,0.5,1.3c0.3,0.3,0.7,0.5,1.2,0.5s0.9-0.2,1.2-0.5c0.3-0.3,0.5-0.8,0.5-1.3s-0.2-0.9-0.5-1.3
	s-0.7-0.5-1.2-0.5s-0.9,0.2-1.2,0.5C71.3,298.5,71.2,298.9,71.2,299.4z"/>
<path id="XMLID_257_" class="st10" d="M79.7,296.3c0.2,0,0.4,0.1,0.5,0.2s0.2,0.3,0.2,0.5s-0.1,0.4-0.2,0.5s-0.3,0.2-0.5,0.2h-0.3
	v3.5c0.2,0,0.4,0.1,0.5,0.2s0.2,0.3,0.2,0.5s-0.1,0.4-0.2,0.5s-0.3,0.2-0.5,0.2c-0.4,0-0.7-0.1-1-0.4s-0.4-0.6-0.4-1v-3.5h-0.4
	c-0.2,0-0.4-0.1-0.5-0.2s-0.2-0.3-0.2-0.5s0.1-0.4,0.2-0.5s0.3-0.2,0.5-0.2H78v-1.8c0-0.2,0.1-0.4,0.2-0.5s0.3-0.2,0.5-0.2
	s0.4,0.1,0.5,0.2s0.2,0.3,0.2,0.5v1.8L79.7,296.3L79.7,296.3z"/>
<path id="XMLID_259_" class="st10" d="M84.7,302.6c-0.8,0-1.6-0.3-2.1-0.9c-0.6-0.6-0.9-1.4-0.9-2.2c0-0.9,0.3-1.6,0.9-2.2
	s1.3-0.9,2.1-0.9c0.8,0,1.5,0.3,2.1,0.9s0.9,1.4,0.9,2.2s-0.3,1.6-0.9,2.2C86.3,302.3,85.6,302.6,84.7,302.6z M83.5,298.1
	c-0.3,0.4-0.5,0.8-0.5,1.3s0.2,1,0.5,1.3s0.7,0.5,1.2,0.5s0.9-0.2,1.2-0.5c0.3-0.4,0.5-0.8,0.5-1.3s-0.2-1-0.5-1.3
	c-0.4-0.3-0.8-0.5-1.2-0.5S83.9,297.8,83.5,298.1z"/>
<path id="XMLID_262_" class="st10" d="M90.5,297c0.2-0.2,0.5-0.4,0.8-0.5s0.6-0.2,0.9-0.2c0.3,0,0.5,0.1,0.6,0.2s0.2,0.3,0.2,0.5
	s-0.1,0.3-0.2,0.5c-0.1,0.1-0.3,0.2-0.5,0.2c-0.8,0-1.4,0.6-1.8,1.9v2.4c0,0.2-0.1,0.3-0.2,0.5c-0.1,0.1-0.3,0.2-0.5,0.2
	s-0.3-0.1-0.5-0.2c-0.1-0.1-0.2-0.3-0.2-0.5v-4.9c0-0.2,0.1-0.3,0.2-0.5c0.1-0.1,0.3-0.2,0.5-0.2s0.3,0.1,0.5,0.2
	C90.5,296.6,90.5,296.8,90.5,297L90.5,297z"/>
<path id="XMLID_220_" class="st8" d="M285.4,191.7c-0.2,0.2-0.4,0.2-0.6,0.2s-0.4-0.1-0.6-0.2c-0.2-0.2-0.2-0.4-0.2-0.6v-8.7
	c0-0.2,0.1-0.4,0.2-0.6c0.2-0.2,0.3-0.2,0.6-0.2s0.4,0.1,0.6,0.2c0.2,0.2,0.2,0.4,0.2,0.6v3.5h3.8v-3.5c0-0.2,0.1-0.4,0.2-0.6
	c0.2-0.2,0.3-0.2,0.6-0.2c0.2,0,0.4,0.1,0.6,0.2c0.2,0.2,0.2,0.4,0.2,0.6v8.7c0,0.2-0.1,0.4-0.2,0.6c-0.2,0.2-0.4,0.2-0.6,0.2
	s-0.4-0.1-0.6-0.2c-0.2-0.2-0.2-0.4-0.2-0.6v-3.5h-3.8v3.5C285.6,191.3,285.5,191.5,285.4,191.7z"/>
<path id="XMLID_222_" class="st8" d="M301.4,181.8c0.2,0.2,0.2,0.4,0.2,0.6c0,0.2-0.1,0.4-0.2,0.6s-0.4,0.2-0.6,0.2h-2.4v7.9
	c0,0.2-0.1,0.4-0.2,0.6c-0.2,0.2-0.4,0.2-0.6,0.2s-0.4-0.1-0.6-0.2c-0.2-0.2-0.2-0.4-0.2-0.6v-7.9h-2.3c-0.2,0-0.4-0.1-0.6-0.2
	c-0.2-0.2-0.2-0.4-0.2-0.6c0-0.2,0.1-0.4,0.2-0.6c0.2-0.2,0.3-0.2,0.6-0.2h6.3C301,181.6,301.2,181.7,301.4,181.8z"/>
<path id="XMLID_224_" class="st8" d="M308.5,188.2L308.5,188.2c-0.3,0-0.5-0.1-0.7-0.3l-2.1-3v6.2c0,0.2-0.1,0.4-0.2,0.6
	c-0.2,0.2-0.4,0.2-0.6,0.2s-0.4-0.1-0.6-0.2c-0.2-0.2-0.2-0.4-0.2-0.6v-8.7c0-0.2,0.1-0.4,0.2-0.6c0.2-0.2,0.3-0.2,0.6-0.2l0,0
	c0.3,0,0.5,0.1,0.7,0.3l2.9,4.1l2.9-4.1c0.2-0.2,0.4-0.3,0.7-0.3l0,0c0.2,0,0.4,0.1,0.6,0.3s0.2,0.3,0.2,0.6v8.7
	c0,0.2-0.1,0.4-0.2,0.6c-0.2,0.2-0.4,0.2-0.6,0.2s-0.4-0.1-0.6-0.2s-0.2-0.4-0.2-0.6V185l-2.1,3C309,188.1,308.8,188.2,308.5,188.2z
	"/>
<path id="XMLID_226_" class="st8" d="M317.3,191.9c-0.2,0-0.4-0.1-0.6-0.2c-0.2-0.2-0.2-0.4-0.2-0.6v-8.7c0-0.2,0.1-0.4,0.2-0.6
	c0.2-0.2,0.3-0.2,0.6-0.2s0.4,0.1,0.6,0.2c0.2,0.2,0.2,0.4,0.2,0.6v7.9h4c0.2,0,0.4,0.1,0.6,0.2c0.2,0.2,0.2,0.4,0.2,0.6
	c0,0.2-0.1,0.4-0.2,0.6c-0.2,0.2-0.4,0.2-0.6,0.2H317.3z"/>
<path id="XMLID_203_" class="st7" d="M202.3,274.1c-1.8,1.8-2.7,4-2.7,6.4c0,2.5,0.9,4.5,2.7,6.3c1.8,1.7,3.9,2.6,6.3,2.6
	c2.4,0,4.4-0.7,6.1-2c0.4-0.3,0.9-0.4,1.5-0.4c0.6,0.1,1.1,0.3,1.4,0.8s0.5,1,0.4,1.5s-0.3,1-0.8,1.4c-2.4,1.9-5.2,2.8-8.4,2.8
	c-3.6,0-6.8-1.3-9.4-3.8c-2.6-2.6-3.9-5.6-4-9.3c0-3.6,1.3-6.7,4-9.2c2.6-2.6,5.8-3.9,9.4-3.9c3.2,0,6,0.9,8.4,2.8
	c0.4,0.4,0.7,0.8,0.8,1.4c0.1,0.6-0.1,1.1-0.4,1.5s-0.8,0.7-1.4,0.8c-0.6,0.1-1.1-0.1-1.5-0.4c-1.6-1.3-3.6-2-6-2
	C206.3,271.5,204.1,272.3,202.3,274.1z"/>
<path id="XMLID_205_" class="st7" d="M239.6,285.8c0-1.8-2.1-3.2-6.4-4h-0.1c-1.9-0.4-3.5-0.9-4.9-1.5c-1.4-0.7-2.4-1.5-3-2.5
	s-1-2.1-1-3.2c0-2.1,0.9-3.8,2.8-5.2s4-2,6.4-2c1.1,0,2.2,0.2,3.3,0.5c1.1,0.4,1.9,0.7,2.5,1s1.3,0.8,2.2,1.3
	c0.4,0.3,0.7,0.7,0.8,1.2s0,1-0.3,1.4s-0.7,0.7-1.2,0.8c-0.5,0.1-1,0-1.4-0.3c-1.1-0.8-2.2-1.4-3-1.7c-0.9-0.4-1.8-0.6-2.8-0.6
	c-1.6,0-2.9,0.4-3.9,1.1c-1,0.8-1.5,1.6-1.5,2.4c0,0.4,0.1,0.8,0.3,1.1c0.7,1.1,2.5,2,5.5,2.5h0.1c2,0.4,3.7,0.9,5,1.5
	c3,1.5,4.5,3.5,4.5,6.1c0,2.3-1,4.1-3,5.6c-2,1.4-4.3,2.2-6.9,2.2c-3.2,0-6.3-1.2-9.3-3.6c-0.4-0.3-0.6-0.7-0.7-1.3
	c-0.1-0.5,0.1-1,0.4-1.4s0.7-0.6,1.3-0.7c0.5-0.1,1,0.1,1.4,0.4c2.3,1.9,4.6,2.8,7,2.8c1.8,0,3.3-0.4,4.4-1.3
	C239,287.6,239.6,286.7,239.6,285.8z"/>
<path id="XMLID_207_" class="st7" d="M263.9,285.8c0-1.8-2.1-3.2-6.4-4h-0.1c-1.9-0.4-3.5-0.9-4.9-1.5c-1.4-0.7-2.4-1.5-3-2.5
	s-1-2.1-1-3.2c0-2.1,0.9-3.8,2.8-5.2s4-2,6.4-2c1.1,0,2.2,0.2,3.3,0.5c1.1,0.4,1.9,0.7,2.5,1s1.3,0.8,2.2,1.3
	c0.4,0.3,0.7,0.7,0.8,1.2s0,1-0.3,1.4s-0.7,0.7-1.2,0.8c-0.5,0.1-1,0-1.4-0.3c-1.1-0.8-2.2-1.4-3-1.7c-0.9-0.4-1.8-0.6-2.8-0.6
	c-1.6,0-2.9,0.4-3.9,1.1c-1,0.8-1.5,1.6-1.5,2.4c0,0.4,0.1,0.8,0.3,1.1c0.7,1.1,2.5,2,5.5,2.5h0.1c2,0.4,3.7,0.9,5,1.5
	c3,1.5,4.5,3.5,4.5,6.1c0,2.3-1,4.1-3,5.6c-2,1.4-4.3,2.2-6.9,2.2c-3.2,0-6.3-1.2-9.3-3.6c-0.4-0.3-0.6-0.7-0.7-1.3
	c-0.1-0.5,0.1-1,0.4-1.4s0.7-0.6,1.3-0.7c0.5-0.1,1,0.1,1.4,0.4c2.3,1.9,4.6,2.8,7,2.8c1.8,0,3.3-0.4,4.4-1.3
	C263.3,287.6,263.9,286.7,263.9,285.8z"/>
<path id="XMLID_168_" class="st5" d="M105.8,370.4c0.1-0.2,0.2-0.3,0.4-0.4s0.4,0,0.6,0c0.2,0.1,0.3,0.2,0.4,0.4
	c0.1,0.4,0.4,0.7,0.7,1s0.7,0.4,1.2,0.4s0.9-0.2,1.3-0.6s0.6-0.8,0.6-1.3v-5.5c0-0.2,0.1-0.4,0.2-0.5c0.2-0.1,0.3-0.2,0.5-0.2
	s0.4,0.1,0.5,0.2s0.2,0.3,0.2,0.5v5.5c0,1-0.3,1.8-1,2.4c-0.7,0.7-1.5,1-2.4,1c-0.8,0-1.4-0.2-2-0.7c-0.6-0.4-1-1-1.2-1.7
	C105.7,370.7,105.7,370.5,105.8,370.4z"/>
<path id="XMLID_170_" class="st5" d="M114.1,372.3c-0.6-0.7-1-1.5-1-2.4s0.3-1.8,1-2.5c0.6-0.7,1.4-1,2.4-1c0.7,0,1.3,0.2,1.8,0.6
	c0-0.2,0.1-0.3,0.3-0.4c0.1-0.1,0.3-0.2,0.5-0.2s0.4,0.1,0.5,0.2s0.2,0.3,0.2,0.5v5.5c0,0.2-0.1,0.4-0.2,0.5
	c-0.1,0.1-0.3,0.2-0.5,0.2s-0.3-0.1-0.5-0.2c-0.1-0.1-0.2-0.3-0.3-0.4c-0.6,0.4-1.2,0.6-1.8,0.6C115.5,373.3,114.7,373,114.1,372.3z
	 M114.6,369.9c0,0.6,0.2,1,0.5,1.4s0.8,0.6,1.3,0.6s1-0.2,1.3-0.6s0.5-0.8,0.5-1.4s-0.2-1-0.5-1.4s-0.8-0.6-1.3-0.6s-1,0.2-1.3,0.6
	S114.6,369.3,114.6,369.9z"/>
<path id="XMLID_173_" class="st5" d="M124,373.3c-0.2-0.1-0.2-0.1-0.3-0.2c0-0.1,0-0.1,0-0.1s-0.1,0-0.1-0.1l-2.2-5.4
	c-0.1-0.2-0.1-0.4,0-0.5s0.2-0.3,0.4-0.4s0.3-0.1,0.5,0s0.3,0.2,0.4,0.4l1.6,3.8l1.6-3.8c0.1-0.2,0.2-0.3,0.4-0.4s0.4-0.1,0.6,0
	s0.3,0.2,0.4,0.4s0.1,0.4,0,0.5l-2.3,5.4c0,0,0,0.1-0.1,0.1s0,0-0.1,0.1s0,0.1-0.1,0.1s-0.1,0.1-0.1,0.1s0,0-0.1,0l0,0l0,0h-0.1l0,0
	h-0.1h-0.1l0,0C124.1,373.3,124.1,373.3,124,373.3L124,373.3L124,373.3z"/>
<path id="XMLID_175_" class="st5" d="M129.4,372.3c-0.6-0.7-1-1.5-1-2.4s0.3-1.8,1-2.5c0.6-0.7,1.4-1,2.4-1c0.7,0,1.3,0.2,1.8,0.6
	c0-0.2,0.1-0.3,0.3-0.4c0.1-0.1,0.3-0.2,0.5-0.2s0.4,0.1,0.5,0.2s0.2,0.3,0.2,0.5v5.5c0,0.2-0.1,0.4-0.2,0.5
	c-0.1,0.1-0.3,0.2-0.5,0.2s-0.3-0.1-0.5-0.2c-0.1-0.1-0.2-0.3-0.3-0.4c-0.6,0.4-1.2,0.6-1.8,0.6C130.8,373.3,130,373,129.4,372.3z
	 M129.9,369.9c0,0.6,0.2,1,0.5,1.4s0.8,0.6,1.3,0.6s1-0.2,1.3-0.6s0.5-0.8,0.5-1.4s-0.2-1-0.5-1.4s-0.8-0.6-1.3-0.6s-1,0.2-1.3,0.6
	S129.9,369.3,129.9,369.9z"/>
<path id="XMLID_178_" class="st5" d="M142.9,370.4c0-0.7-0.8-1.2-2.4-1.5l0,0c-0.7-0.1-1.3-0.3-1.9-0.6c-0.5-0.2-0.9-0.6-1.2-1
	c-0.2-0.4-0.4-0.8-0.4-1.2c0-0.8,0.4-1.5,1.1-2s1.5-0.8,2.4-0.8c0.4,0,0.8,0.1,1.2,0.2s0.7,0.3,1,0.4c0.2,0.1,0.5,0.3,0.8,0.5
	c0.2,0.1,0.3,0.3,0.3,0.5s0,0.4-0.1,0.5c-0.1,0.2-0.3,0.3-0.5,0.3s-0.4,0-0.5-0.1c-0.4-0.3-0.8-0.5-1.2-0.7
	c-0.3-0.1-0.7-0.2-1.1-0.2c-0.6,0-1.1,0.1-1.5,0.4s-0.6,0.6-0.6,0.9c0,0.2,0,0.3,0.1,0.4c0.3,0.4,1,0.7,2.1,1l0,0
	c0.8,0.2,1.4,0.4,1.9,0.6c1.1,0.6,1.7,1.3,1.7,2.3c0,0.9-0.4,1.6-1.1,2.1c-0.8,0.5-1.6,0.8-2.6,0.8c-1.2,0-2.4-0.5-3.6-1.4
	c-0.1-0.1-0.2-0.3-0.3-0.5c0-0.2,0-0.4,0.1-0.5s0.3-0.2,0.5-0.3c0.2,0,0.4,0,0.5,0.2c0.9,0.7,1.8,1.1,2.6,1.1c0.7,0,1.3-0.2,1.7-0.5
	C142.7,371.1,142.9,370.7,142.9,370.4z"/>
<path id="XMLID_180_" class="st5" d="M146.2,372.3c-0.7-0.7-1-1.5-1-2.4s0.3-1.8,1-2.4c0.7-0.7,1.5-1,2.5-1c0.8,0,1.5,0.3,2.2,0.8
	c0.2,0.1,0.2,0.3,0.3,0.5s0,0.4-0.1,0.5s-0.3,0.3-0.5,0.3s-0.4,0-0.5-0.2c-0.4-0.3-0.9-0.4-1.4-0.4s-1,0.2-1.4,0.6s-0.6,0.9-0.6,1.4
	s0.2,1,0.6,1.4c0.4,0.4,0.9,0.6,1.4,0.6s1-0.1,1.4-0.4c0.1-0.1,0.3-0.2,0.5-0.1c0.2,0,0.4,0.1,0.5,0.3s0.2,0.3,0.1,0.5
	c0,0.2-0.1,0.4-0.3,0.5c-0.7,0.5-1.4,0.7-2.2,0.7C147.7,373.3,146.9,373,146.2,372.3z"/>
<path id="XMLID_182_" class="st5" d="M154.3,367.2c0.2-0.3,0.5-0.5,0.9-0.6c0.4-0.2,0.7-0.2,1-0.2s0.5,0.1,0.7,0.2
	c0.1,0.1,0.2,0.3,0.2,0.5s-0.1,0.4-0.2,0.5c-0.1,0.1-0.3,0.2-0.5,0.2c-0.9,0-1.5,0.7-2,2.1v2.6c0,0.2-0.1,0.4-0.2,0.5
	s-0.3,0.2-0.5,0.2s-0.4-0.1-0.5-0.2s-0.2-0.3-0.2-0.5V367c0-0.2,0.1-0.4,0.2-0.5c0.1-0.1,0.3-0.2,0.5-0.2s0.4,0.1,0.5,0.2
	S154.3,366.9,154.3,367.2L154.3,367.2z"/>
<path id="XMLID_184_" class="st5" d="M159.7,364.4v0.3c0,0.2-0.1,0.4-0.2,0.5c-0.1,0.1-0.3,0.2-0.5,0.2s-0.4-0.1-0.5-0.2
	s-0.2-0.3-0.2-0.5v-0.3c0-0.2,0.1-0.4,0.2-0.5s0.3-0.2,0.5-0.2s0.4,0.1,0.5,0.2C159.7,364,159.7,364.2,159.7,364.4z M158.5,366.6
	c0.1-0.1,0.3-0.2,0.5-0.2s0.4,0.1,0.5,0.2s0.2,0.3,0.2,0.5v5.4c0,0.2-0.1,0.4-0.2,0.5c-0.1,0.1-0.3,0.2-0.5,0.2s-0.4-0.1-0.5-0.2
	s-0.2-0.3-0.2-0.5v-5.4C158.2,366.9,158.3,366.8,158.5,366.6z"/>
<path id="XMLID_187_" class="st5" d="M162.7,375.7c-0.2,0.2-0.3,0.2-0.5,0.2s-0.4-0.1-0.5-0.2c-0.1-0.2-0.2-0.3-0.2-0.5v-8.1
	c0-0.2,0.1-0.4,0.2-0.5c0.1-0.1,0.3-0.2,0.5-0.2s0.4,0.1,0.5,0.2s0.2,0.2,0.3,0.4c0.6-0.4,1.2-0.6,1.9-0.6c0.9,0,1.7,0.3,2.4,1
	s1,1.5,1,2.5s-0.3,1.8-1,2.4c-0.7,0.7-1.4,1-2.4,1c-0.7,0-1.3-0.2-1.9-0.6v2.4C163,375.4,162.9,375.6,162.7,375.7z M166.1,368.5
	c-0.4-0.4-0.8-0.6-1.3-0.6s-1,0.2-1.3,0.6c-0.4,0.4-0.5,0.9-0.5,1.4s0.2,1,0.5,1.3c0.4,0.4,0.8,0.6,1.3,0.6s1-0.2,1.3-0.6
	c0.4-0.4,0.5-0.8,0.5-1.4C166.7,369.4,166.5,368.9,166.1,368.5z"/>
<path id="XMLID_190_" class="st5" d="M172.2,366.4c0.2,0,0.4,0.1,0.5,0.2c0.2,0.1,0.2,0.3,0.2,0.5s-0.1,0.4-0.2,0.5
	c-0.2,0.2-0.3,0.2-0.5,0.2h-0.3v3.9c0.2,0,0.4,0.1,0.5,0.2c0.1,0.2,0.2,0.3,0.2,0.5s-0.1,0.4-0.2,0.5c-0.1,0.1-0.3,0.2-0.5,0.2
	c-0.4,0-0.8-0.2-1.1-0.5s-0.5-0.7-0.5-1.1v-3.9H170c-0.2,0-0.4-0.1-0.5-0.2s-0.2-0.3-0.2-0.5s0.1-0.4,0.2-0.5
	c0.1-0.1,0.3-0.2,0.5-0.2h0.4v-2c0-0.2,0.1-0.4,0.2-0.5c0.2-0.1,0.3-0.2,0.5-0.2s0.4,0.1,0.5,0.2s0.2,0.3,0.2,0.5v2h0.4V366.4z"/>
<path id="XMLID_149_" class="st4" d="M312.7,354.3c0-0.7-0.8-1.2-2.4-1.5l0,0c-0.7-0.1-1.3-0.3-1.8-0.6c-0.5-0.2-0.9-0.6-1.1-0.9
	s-0.4-0.8-0.4-1.2c0-0.8,0.3-1.4,1-1.9s1.5-0.8,2.4-0.8c0.4,0,0.8,0.1,1.2,0.2s0.7,0.3,0.9,0.4s0.5,0.3,0.8,0.5
	c0.2,0.1,0.3,0.3,0.3,0.4c0,0.2,0,0.4-0.1,0.5s-0.3,0.3-0.4,0.3c-0.2,0-0.4,0-0.5-0.1c-0.4-0.3-0.8-0.5-1.1-0.7
	c-0.3-0.1-0.7-0.2-1-0.2c-0.6,0-1.1,0.1-1.5,0.4s-0.6,0.6-0.6,0.9c0,0.2,0,0.3,0.1,0.4c0.3,0.4,0.9,0.7,2,0.9l0,0
	c0.8,0.2,1.4,0.3,1.9,0.6c1.1,0.6,1.7,1.3,1.7,2.3c0,0.8-0.4,1.5-1.1,2.1s-1.6,0.8-2.6,0.8c-1.2,0-2.3-0.5-3.5-1.4
	c-0.1-0.1-0.2-0.3-0.3-0.5c0-0.2,0-0.4,0.1-0.5s0.3-0.2,0.5-0.3c0.2,0,0.4,0,0.5,0.2c0.9,0.7,1.7,1.1,2.6,1c0.7,0,1.2-0.2,1.6-0.5
	C312.5,355,312.7,354.7,312.7,354.3z"/>
<path id="XMLID_151_" class="st4" d="M318.3,350c-0.7,0.7-1,1.5-1,2.4s0.3,1.7,1,2.3s1.5,1,2.3,1s1.6-0.2,2.3-0.7
	c0.2-0.1,0.3-0.2,0.6-0.1c0.2,0,0.4,0.1,0.5,0.3c0.1,0.2,0.2,0.4,0.1,0.6c0,0.2-0.1,0.4-0.3,0.5c-0.9,0.7-1.9,1.1-3.1,1.1
	c-1.4,0-2.5-0.5-3.5-1.4c-1-1-1.5-2.1-1.5-3.4s0.5-2.5,1.5-3.4c1-1,2.1-1.4,3.5-1.4c1.2,0,2.2,0.4,3.1,1.1c0.2,0.1,0.3,0.3,0.3,0.5
	s0,0.4-0.2,0.6s-0.3,0.3-0.5,0.3s-0.4,0-0.6-0.1c-0.6-0.5-1.4-0.7-2.2-0.7C319.7,349,319,349.3,318.3,350z"/>
<path id="XMLID_153_" class="st4" d="M332.1,354.3c0-0.7-0.8-1.2-2.4-1.5l0,0c-0.7-0.1-1.3-0.3-1.8-0.6c-0.5-0.2-0.9-0.6-1.1-0.9
	s-0.4-0.8-0.4-1.2c0-0.8,0.3-1.4,1-1.9s1.5-0.8,2.4-0.8c0.4,0,0.8,0.1,1.2,0.2s0.7,0.3,0.9,0.4s0.5,0.3,0.8,0.5
	c0.2,0.1,0.3,0.3,0.3,0.4c0,0.2,0,0.4-0.1,0.5s-0.3,0.3-0.4,0.3c-0.2,0-0.4,0-0.5-0.1c-0.4-0.3-0.8-0.5-1.1-0.7
	c-0.3-0.1-0.7-0.2-1-0.2c-0.6,0-1.1,0.1-1.5,0.4s-0.6,0.6-0.6,0.9c0,0.2,0,0.3,0.1,0.4c0.3,0.4,0.9,0.7,2,0.9l0,0
	c0.8,0.2,1.4,0.3,1.9,0.6c1.1,0.6,1.7,1.3,1.7,2.3c0,0.8-0.4,1.5-1.1,2.1s-1.6,0.8-2.6,0.8c-1.2,0-2.3-0.5-3.5-1.4
	c-0.1-0.1-0.2-0.3-0.3-0.5c0-0.2,0-0.4,0.1-0.5s0.3-0.2,0.5-0.3c0.2,0,0.4,0,0.5,0.2c0.9,0.7,1.7,1.1,2.6,1c0.7,0,1.2-0.2,1.6-0.5
	C331.9,355,332.1,354.7,332.1,354.3z"/>
<path id="XMLID_155_" class="st4" d="M341.2,354.3c0-0.7-0.8-1.2-2.4-1.5l0,0c-0.7-0.1-1.3-0.3-1.8-0.6c-0.5-0.2-0.9-0.6-1.1-0.9
	s-0.4-0.8-0.4-1.2c0-0.8,0.3-1.4,1-1.9s1.5-0.8,2.4-0.8c0.4,0,0.8,0.1,1.2,0.2s0.7,0.3,0.9,0.4s0.5,0.3,0.8,0.5
	c0.2,0.1,0.3,0.3,0.3,0.4c0,0.2,0,0.4-0.1,0.5s-0.3,0.3-0.4,0.3c-0.2,0-0.4,0-0.5-0.1c-0.4-0.3-0.8-0.5-1.1-0.7
	c-0.3-0.1-0.7-0.2-1-0.2c-0.6,0-1.1,0.1-1.5,0.4s-0.6,0.6-0.6,0.9c0,0.2,0,0.3,0.1,0.4c0.3,0.4,0.9,0.7,2,0.9l0,0
	c0.8,0.2,1.4,0.3,1.9,0.6c1.1,0.6,1.7,1.3,1.7,2.3c0,0.8-0.4,1.5-1.1,2.1s-1.6,0.8-2.6,0.8c-1.2,0-2.3-0.5-3.5-1.4
	c-0.1-0.1-0.2-0.3-0.3-0.5c0-0.2,0-0.4,0.1-0.5s0.3-0.2,0.5-0.3c0.2,0,0.4,0,0.5,0.2c0.9,0.7,1.7,1.1,2.6,1c0.7,0,1.2-0.2,1.6-0.5
	C341,355,341.2,354.7,341.2,354.3z"/>
<path id="XMLID_124_" class="st3" d="M52.8,443.4c0.7,0.5,1,1.2,1,2.1c0,0.3,0,0.6,0.1,0.9c0.3,0.1,0.4,0.2,0.5,0.5s0,0.5-0.1,0.7
	s-0.4,0.3-0.7,0.3l0,0c-0.4,0-0.8-0.2-1-0.7c-0.2-0.4-0.3-1-0.3-1.8c0-0.4-0.2-0.8-0.6-1.1c-0.3-0.2-0.5-0.3-0.8-0.4H49v3.2
	c0,0.2-0.1,0.4-0.2,0.6c-0.2,0.2-0.4,0.2-0.6,0.2s-0.4-0.1-0.6-0.2c-0.2-0.2-0.2-0.3-0.2-0.6v-8.6c0-0.2,0.1-0.4,0.2-0.6
	c0.2-0.2,0.3-0.2,0.6-0.2h2.6c0.9,0,1.6,0.3,2.2,0.9s0.9,1.4,0.9,2.3C54,442,53.6,442.7,52.8,443.4z M50.8,442.5
	c0.4,0,0.8-0.1,1.1-0.4s0.4-0.6,0.4-1.1c0-0.4-0.1-0.8-0.4-1.1s-0.6-0.4-1.1-0.4H49v3H50.8z"/>
<path id="XMLID_127_" class="st3" d="M63.2,444.2c0,0.2-0.1,0.4-0.2,0.5s-0.3,0.2-0.6,0.2h-4.6c0.1,0.4,0.3,0.7,0.5,1
	c0.3,0.4,0.8,0.6,1.4,0.6c0.6,0.1,1.1,0,1.6-0.4c0.1-0.2,0.3-0.2,0.6-0.2c0.2,0,0.4,0.1,0.5,0.2c0.3,0.3,0.3,0.6,0,0.9
	c-0.7,0.6-1.6,1-2.6,1s-1.9-0.4-2.6-1.1s-1-1.6-1-2.6s0.4-1.9,1-2.6s1.5-1.1,2.5-1.1s1.8,0.3,2.5,1
	C62.7,442.4,63.1,443.2,63.2,444.2L63.2,444.2z M59.6,442.2c-0.6,0-1,0.2-1.4,0.5c-0.3,0.3-0.5,0.7-0.6,1h4.1
	c-0.1-0.3-0.3-0.7-0.7-1C60.7,442.4,60.2,442.2,59.6,442.2z"/>
<path id="XMLID_130_" class="st3" d="M65.7,447c-0.7-0.7-1-1.6-1-2.6s0.3-1.9,1-2.6s1.5-1.1,2.5-1.1c0.7,0,1.3,0.2,1.9,0.6
	c0-0.2,0.1-0.3,0.3-0.5c0.1-0.1,0.3-0.2,0.5-0.2s0.4,0.1,0.5,0.2c0.2,0.2,0.2,0.3,0.2,0.6v5.7c0,0.2-0.1,0.4-0.2,0.5
	c-0.2,0.2-0.3,0.2-0.5,0.2s-0.4-0.1-0.5-0.2s-0.2-0.3-0.3-0.5c-0.6,0.4-1.2,0.6-1.9,0.6C67.2,448.1,66.4,447.7,65.7,447z
	 M66.3,444.4c0,0.6,0.2,1.1,0.5,1.5c0.4,0.4,0.8,0.6,1.4,0.6s1-0.2,1.4-0.6s0.5-0.9,0.5-1.5s-0.2-1.1-0.6-1.5s-0.8-0.6-1.4-0.6
	s-1,0.2-1.4,0.6C66.5,443.3,66.3,443.8,66.3,444.4z"/>
<path id="XMLID_133_" class="st3" d="M75.1,447c-0.7-0.7-1.1-1.6-1.1-2.6s0.4-1.9,1.1-2.6s1.6-1.1,2.6-1.1c0.8,0,1.6,0.3,2.3,0.8
	c0.2,0.1,0.3,0.3,0.3,0.5s0,0.4-0.2,0.6c-0.1,0.2-0.3,0.3-0.5,0.3s-0.4,0-0.6-0.2c-0.4-0.3-0.9-0.5-1.5-0.5c-0.5,0-1,0.2-1.5,0.6
	c-0.4,0.4-0.6,0.9-0.6,1.5s0.2,1.1,0.6,1.5s0.9,0.6,1.5,0.6c0.5,0,1-0.2,1.5-0.5c0.2-0.1,0.3-0.2,0.6-0.1c0.2,0,0.4,0.1,0.5,0.3
	c0.1,0.2,0.2,0.4,0.2,0.6s-0.1,0.4-0.3,0.5c-0.7,0.5-1.5,0.8-2.3,0.8C76.7,448.1,75.8,447.7,75.1,447z"/>
<path id="XMLID_135_" class="st3" d="M85.3,440.8c0.2,0,0.4,0.1,0.6,0.2c0.2,0.2,0.2,0.3,0.2,0.6s-0.1,0.4-0.2,0.6s-0.4,0.2-0.6,0.2
	H85v4.1c0.2,0,0.4,0.1,0.6,0.2c0.2,0.2,0.2,0.4,0.2,0.6s-0.1,0.4-0.2,0.6c-0.2,0.2-0.3,0.2-0.6,0.2c-0.4,0-0.8-0.2-1.1-0.5
	c-0.3-0.3-0.5-0.7-0.5-1.1v-4.1H83c-0.2,0-0.4-0.1-0.6-0.2c-0.2-0.2-0.2-0.3-0.2-0.6c0-0.2,0.1-0.4,0.2-0.6c0.2-0.2,0.3-0.2,0.6-0.2
	h0.4v-2.1c0-0.2,0.1-0.4,0.2-0.6c0.2-0.2,0.4-0.2,0.6-0.2s0.4,0.1,0.6,0.2c0.2,0.2,0.2,0.3,0.2,0.6v2.1L85.3,440.8L85.3,440.8z"/>
<path id="XMLID_92_" class="st3" d="M196.6,451.5c-0.2,0-0.4-0.1-0.5-0.2s-0.2-0.3-0.2-0.5s0.1-0.4,0.2-0.5s0.3-0.2,0.5-0.2v-7
	c0-0.2,0.1-0.4,0.2-0.5c0.1-0.1,0.3-0.2,0.5-0.2s0.4,0.1,0.5,0.2s0.2,0.3,0.2,0.5v7c0,0.4-0.1,0.7-0.4,1
	C197.4,451.3,197,451.5,196.6,451.5z M197.9,441c-0.1,0.2-0.3,0.2-0.5,0.2s-0.4-0.1-0.5-0.2s-0.2-0.3-0.2-0.5v-0.3
	c0-0.2,0.1-0.4,0.2-0.5c0.1-0.1,0.3-0.2,0.5-0.2s0.4,0.1,0.5,0.2s0.2,0.3,0.2,0.5v0.3C198.1,440.7,198,440.9,197.9,441z"/>
<path id="XMLID_98_" class="st3" d="M201.6,448c-0.9-1-1.4-2.2-1.4-3.6s0.5-2.6,1.4-3.6s2.1-1.5,3.4-1.5s2.5,0.5,3.4,1.5
	s1.4,2.2,1.4,3.5s-0.5,2.6-1.4,3.6c-0.4,0.4-0.9,0.8-1.5,1.1l-0.3,0.1c0.6,0.3,1.1,0.5,1.5,0.5s0.9-0.2,1.3-0.5
	c0.2-0.1,0.4-0.2,0.6-0.2s0.4,0.1,0.5,0.3c0.1,0.2,0.2,0.4,0.2,0.6s-0.1,0.4-0.3,0.5c-0.7,0.6-1.5,0.9-2.3,0.9l0,0
	c-0.7,0-1.6-0.3-2.5-0.8c-0.2-0.1-0.5-0.2-0.7-0.2s-0.5,0-0.7,0.1s-0.3,0.1-0.4,0.1c-0.3,0.2-0.6,0.2-0.8,0h-0.1
	c-0.3-0.4-0.3-0.6-0.3-0.9s0.2-0.4,0.4-0.5l0,0C202.6,448.7,202,448.4,201.6,448z M205,447.8c0.9,0,1.7-0.3,2.3-1s0.9-1.5,0.9-2.4
	s-0.3-1.8-0.9-2.4s-1.4-1-2.3-1s-1.6,0.3-2.2,1c-0.6,0.6-0.9,1.5-0.9,2.4s0.3,1.8,0.9,2.5C203.4,447.5,204.1,447.8,205,447.8z"/>
<path id="XMLID_102_" class="st3" d="M217.8,446.2c0,0.8-0.3,1.4-0.9,2s-1.2,0.8-2,0.8s-1.5-0.3-2-0.8c-0.6-0.6-0.8-1.2-0.8-2v-3.3
	c0-0.2,0.1-0.4,0.2-0.5s0.3-0.2,0.5-0.2s0.4,0.1,0.5,0.2s0.2,0.3,0.2,0.5v3.3c0,0.4,0.1,0.7,0.4,1c0.3,0.3,0.6,0.4,1,0.4
	s0.7-0.1,1-0.4s0.4-0.6,0.4-1v-3.3c0-0.2,0.1-0.4,0.2-0.5s0.3-0.2,0.5-0.2s0.4,0.1,0.5,0.2c0.2,0.1,0.2,0.3,0.2,0.5v3.3H217.8z"/>
<path id="XMLID_104_" class="st3" d="M226.7,445.5c0,0.2-0.1,0.4-0.2,0.5s-0.3,0.2-0.5,0.2h-4.4c0.1,0.4,0.2,0.7,0.5,0.9
	c0.3,0.3,0.7,0.5,1.3,0.6s1,0,1.5-0.3c0.1-0.1,0.3-0.2,0.5-0.2s0.4,0.1,0.5,0.2c0.3,0.3,0.3,0.6,0,0.9c-0.7,0.6-1.5,0.9-2.4,0.9
	c-1,0-1.8-0.3-2.4-1s-1-1.5-1-2.4s0.3-1.7,1-2.4c0.6-0.7,1.4-1,2.3-1s1.7,0.3,2.3,0.9C226.3,443.7,226.7,444.5,226.7,445.5
	L226.7,445.5z M223.4,443.5c-0.5,0-1,0.2-1.3,0.5s-0.5,0.6-0.6,1h3.9c-0.1-0.3-0.3-0.6-0.7-0.9C224.4,443.7,224,443.6,223.4,443.5z"
	/>
<path id="XMLID_107_" class="st3" d="M230.4,443c0.2-0.2,0.5-0.4,0.9-0.6s0.7-0.2,1-0.2s0.5,0.1,0.7,0.2s0.2,0.3,0.2,0.5
	s-0.1,0.4-0.2,0.5s-0.3,0.2-0.5,0.2c-0.8,0-1.5,0.7-2,2.1v2.6c0,0.2-0.1,0.4-0.2,0.5s-0.3,0.2-0.5,0.2s-0.4-0.1-0.5-0.2
	s-0.2-0.3-0.2-0.5v-5.4c0-0.2,0.1-0.4,0.2-0.5s0.3-0.2,0.5-0.2s0.4,0.1,0.5,0.2C230.3,442.6,230.4,442.7,230.4,443L230.4,443z"/>
<path id="XMLID_109_" class="st3" d="M238.8,442.4c0.1-0.1,0.3-0.2,0.5-0.2s0.4,0.1,0.5,0.2s0.2,0.3,0.2,0.5v5.2
	c0,0.9-0.3,1.7-1,2.3s-1.4,1-2.3,1c-0.5,0-1-0.1-1.4-0.3c-0.2-0.1-0.3-0.2-0.4-0.4c-0.1-0.2-0.1-0.4,0-0.6s0.2-0.3,0.4-0.3
	c0.2-0.1,0.4,0,0.6,0.1s0.5,0.2,0.8,0.2s0.7-0.1,1-0.4c0.3-0.2,0.5-0.5,0.6-0.9c-0.4,0.2-0.8,0.3-1.3,0.3c-0.8,0-1.5-0.3-2-0.8
	c-0.6-0.6-0.8-1.2-0.8-2v-3.2c0-0.2,0.1-0.4,0.2-0.5s0.3-0.2,0.5-0.2s0.4,0.1,0.5,0.2s0.2,0.3,0.2,0.5v3.2c0,0.4,0.1,0.7,0.4,1
	s0.6,0.4,1,0.4s0.7-0.1,1-0.4s0.4-0.6,0.4-1v-3.2C238.6,442.7,238.7,442.6,238.8,442.4z"/>
</svg>
