<?xml version="1.0" encoding="utf-8"?>
<!-- Generator: Adobe Illustrator 19.0.0, SVG Export Plug-In . SVG Version: 6.00 Build 0)  -->
<svg version="1.1" id="Layer_1" xmlns="http://www.w3.org/2000/svg" xmlns:xlink="http://www.w3.org/1999/xlink" x="0px" y="0px"
	 viewBox="0 0 414 515" style="enable-background:new 0 0 414 515;" xml:space="preserve">
<style type="text/css">
	.st0{fill:#FFFFFF;}
	.st1{fill:#ACACAC;}
	.st2{fill:#84D460;}
	.st3{fill:#FF87C2;}
	.st4{fill:#FF5A5A;}
	.st5{fill:#00C7A0;}
	.st6{fill:#239CEE;}
	.st7{fill:none;}
	.st8{fill:#FF6E4E;}
	.st9{fill:#FFCE47;}
	.st10{fill:#00C1EA;}
	.st11{fill:#239DEE;}
	#graphic,#javascript{
		animation:spin 50s linear infinite;
		-webkit-transform-origin: 50% 50%;
		-moz-transform-origin: 50% 50%;
		-o-transform-origin: 50% 50%;
		transform-origin: 50% 50%;
}
	#code,#photoshop,#css{
		animation:spin 50s linear infinite reverse;
		-webkit-transform-origin: 50% 50%;
		-moz-transform-origin: 50% 50%;
		-o-transform-origin: 50% 50%;
		transform-origin: 50% 50%;
}
	#html,#scss,#illustrator{
		animation:spin 20s linear infinite;
		-webkit-transform-origin: 50% 50%;
		-moz-transform-origin: 50% 50%;
		-o-transform-origin: 50% 50%;
		transform-origin: 50% 50%;
}
	#jquery,#react{
		animation:spin 20s linear infinite reverse;
		-webkit-transform-origin: 50% 50%;
		-moz-transform-origin: 50% 50%;
		-o-transform-origin: 50% 50%;
		transform-origin: 50% 50%;
}
@-moz-keyframes spin {
    from { -moz-transform: rotate(0deg); }
    to { -moz-transform: rotate(360deg); }
}
@-webkit-keyframes spin {
    from { -webkit-transform: rotate(0deg); }
    to { -webkit-transform: rotate(360deg); }
}
@keyframes spin {
    from {transform:rotate(0deg);}
    to {transform:rotate(360deg);}
}
</style>
<g id="XMLID_36_">
	<polygon class="st0" points="6,209 12.4,220.1 18.8,231.2 25.2,220.1 31.6,209 24.4,209 24.4,84.5 13.2,84.5 13.2,209 	"/>
</g>
<g id="XMLID_35_">
	<polygon class="st0" points="11.8,357 15.3,363.1 18.8,369.1 22.3,363.1 25.8,357 21.9,357 21.9,310.5 15.7,310.5 15.7,357 	"/>
</g>
<g id="XMLID_34_">
	<circle class="st0" cx="18.8" cy="386.7" r="2.2"/>
</g>
<g id="XMLID_33_">
	<circle class="st0" cx="18.8" cy="401.4" r="2.2"/>
</g>
<g id="XMLID_32_">
	<circle class="st0" cx="18.8" cy="416.2" r="2.2"/>
</g>
<g id="XMLID_31_">
	<circle class="st0" cx="18.8" cy="431" r="2.2"/>
</g>
<g id="XMLID_30_">
	<circle class="st0" cx="18.8" cy="445.7" r="2.2"/>
</g>
<g id="XMLID_29_">
	<circle class="st0" cx="18.8" cy="460.5" r="2.2"/>
</g>
<g id="XMLID_28_">
	<line class="st1" x1="83.7" y1="432.2" x2="83.3" y2="433.2"/>
</g>
<g id="photoshop">
	<g id="XMLID_93_">
		<path class="st2" d="M187.7,204.5c0-1.3-1.1-2.4-2.3-2.6l-2.5-0.2c-1.3-0.1-2.5-1.2-2.7-2.5c-0.5-2.9-1.2-5.6-2.2-8.3
			c-0.4-1.2,0-2.8,1.1-3.5l2.1-1.4c1.1-0.7,1.4-2.3,0.8-3.4l-3.3-5.7c-0.6-1.1-2.1-1.6-3.3-1l-2.3,1.1c-1.2,0.6-2.8,0.2-3.6-0.8
			c-1.9-2.2-3.9-4.2-6.1-6.1c-1-0.8-1.4-2.4-0.8-3.6l1.1-2.3c0.6-1.2,0.1-2.7-1-3.3l-5.7-3.3c-1.1-0.6-2.6-0.3-3.4,0.8l-1.4,2.1
			c-0.7,1.1-2.3,1.5-3.5,1.1c-2.7-1-5.4-1.7-8.3-2.2c-1.3-0.2-2.4-1.4-2.5-2.7l-0.2-2.5c-0.1-1.3-1.3-2.4-2.6-2.4h-6.6
			c-1.3,0-2.4,1.1-2.6,2.4l-0.2,2.5c-0.1,1.3-1.2,2.5-2.5,2.7c-2.9,0.5-5.6,1.2-8.3,2.2c-1.2,0.4-2.8,0-3.5-1.1l-1.4-2.1
			c-0.7-1.1-2.3-1.4-3.4-0.8l-5.7,3.3c-1.1,0.6-1.6,2.1-1,3.3l1.1,2.3c0.6,1.2,0.2,2.8-0.8,3.6c-2.2,1.8-4.2,3.9-6.1,6.1
			c-0.8,1-2.4,1.4-3.6,0.8l-2.3-1.1c-1.2-0.6-2.7-0.1-3.3,1l-3.3,5.7c-0.6,1.1-0.3,2.6,0.8,3.4l2.1,1.4c1.1,0.7,1.5,2.3,1.1,3.5
			c-1,2.7-1.7,5.4-2.2,8.3c-0.2,1.3-1.4,2.4-2.7,2.5l-2.5,0.2c-1.3,0.1-2.4,1.3-2.4,2.6v6.6c0,1.3,1.1,2.4,2.4,2.6l2.5,0.2
			c1.3,0.1,2.5,1.2,2.7,2.5c0.5,2.9,1.3,5.6,2.2,8.3c0.4,1.2,0,2.8-1.1,3.5l-2.1,1.4c-1.1,0.7-1.4,2.3-0.8,3.4l3.3,5.7
			c0.7,1.1,2.1,1.6,3.3,1l2.3-1.1c1.2-0.6,2.8-0.2,3.6,0.8c1.8,2.2,3.9,4.2,6.1,6.1c1,0.8,1.4,2.4,0.8,3.6l-1.1,2.3
			c-0.6,1.2-0.1,2.7,1,3.3l5.7,3.3c1.1,0.7,2.6,0.3,3.4-0.8l1.4-2.1c0.7-1.1,2.3-1.5,3.5-1.1c2.7,1,5.4,1.7,8.3,2.2
			c1.3,0.2,2.4,1.4,2.5,2.7l0.2,2.5c0.1,1.3,1.3,2.4,2.6,2.4h6.6c1.3,0,2.4-1.1,2.6-2.4l0.2-2.5c0.1-1.3,1.3-2.5,2.5-2.7
			c2.9-0.5,5.6-1.2,8.3-2.2c1.2-0.4,2.8,0,3.5,1.1l1.4,2.1c0.7,1.1,2.3,1.4,3.4,0.8l5.7-3.3c1.1-0.7,1.6-2.1,1-3.3l-1.1-2.3
			c-0.6-1.2-0.2-2.8,0.8-3.6c2.2-1.8,4.2-3.9,6.1-6.1c0.8-1,2.4-1.4,3.6-0.8l2.3,1.1c1.2,0.6,2.7,0.1,3.3-1l3.3-5.7
			c0.7-1.1,0.3-2.6-0.8-3.4l-2.1-1.4c-1.1-0.7-1.5-2.3-1.1-3.5c1-2.7,1.7-5.4,2.2-8.3c0.2-1.3,1.4-2.4,2.7-2.5l2.5-0.2
			c1.3-0.1,2.3-1.3,2.3-2.6L187.7,204.5z M174,210.7c0,1.3-0.1,3.4-0.4,4.7c-0.4,2.4-1.1,4.8-1.9,7c-0.4,1.2-1.4,3.1-2,4.2l-2.8,4.9
			c-0.6,1.1-1.8,2.9-2.6,3.9c-1.6,1.9-3.4,3.7-5.3,5.3c-1,0.8-2.8,2-3.9,2.6l-4.9,2.8c-1.1,0.7-3,1.6-4.2,2c-2.2,0.8-4.6,1.4-7,1.9
			c-1.3,0.2-3.4,0.3-4.7,0.3h-5.9c-1.3,0-3.4-0.1-4.7-0.3c-2.4-0.4-4.7-1.1-6.9-1.9c-1.2-0.4-3.1-1.4-4.2-2l-4.9-2.8
			c-1.1-0.7-2.9-1.8-3.9-2.6c-1.9-1.6-3.7-3.4-5.3-5.3c-0.8-1-2-2.8-2.6-3.9l-2.8-4.9c-0.7-1.1-1.6-3-2-4.2c-0.8-2.2-1.4-4.6-1.9-7
			c-0.2-1.3-0.4-3.4-0.4-4.7l0-5.8c0-1.3,0.1-3.4,0.4-4.7c0.4-2.4,1.1-4.7,1.9-7c0.4-1.2,1.4-3.1,2-4.2l2.8-4.9
			c0.7-1.1,1.8-2.9,2.6-3.9c1.6-1.9,3.4-3.7,5.3-5.3c1-0.8,2.8-2,3.9-2.6l4.9-2.8c1.1-0.6,3-1.6,4.2-2c2.3-0.8,4.6-1.4,7-1.9
			c1.3-0.2,3.4-0.4,4.7-0.4h5.8c1.3,0,3.4,0.1,4.7,0.4c2.4,0.4,4.7,1.1,7,1.9c1.2,0.4,3.1,1.4,4.2,2l4.9,2.8
			c1.1,0.6,2.9,1.8,3.9,2.6c1.9,1.6,3.7,3.4,5.3,5.3c0.8,1,2,2.8,2.6,3.9l2.8,4.9c0.6,1.1,1.6,3,2,4.2c0.8,2.3,1.4,4.6,1.9,7
			c0.2,1.3,0.4,3.4,0.4,4.7V210.7z"/>
	</g>
	<g id="XMLID_89_">
		<path class="st2" d="M131.5,162.5h-0.1c-25,0-45.3,20.3-45.3,45.3c0,25,20.3,45.3,45.3,45.3h0.1c25-0.1,45.2-20.3,45.2-45.3
			C176.7,182.8,156.5,162.5,131.5,162.5z M173.7,215.4c-0.4,2.4-1.1,4.8-1.9,7c-0.4,1.2-1.4,3.1-2,4.2l-2.8,4.9
			c-0.6,1.1-1.8,2.9-2.6,3.9c-1.6,1.9-3.4,3.7-5.3,5.3c-1,0.8-2.8,2-3.9,2.6l-4.9,2.8c-1.1,0.7-3,1.6-4.2,2c-2.2,0.8-4.6,1.4-7,1.9
			c-1.3,0.2-3.4,0.3-4.7,0.3h-5.9c-1.3,0-3.4-0.1-4.7-0.3c-2.4-0.4-4.7-1.1-6.9-1.9c-1.2-0.4-3.1-1.4-4.2-2l-4.9-2.8
			c-1.1-0.7-2.9-1.8-3.9-2.6c-1.9-1.6-3.7-3.4-5.3-5.3c-0.8-1-2-2.8-2.6-3.9l-2.8-4.9c-0.7-1.1-1.6-3-2-4.2c-0.8-2.2-1.4-4.6-1.9-7
			c-0.2-1.3-0.4-3.4-0.4-4.7l0-5.8c0-1.3,0.1-3.4,0.4-4.7c0.4-2.4,1.1-4.7,1.9-7c0.4-1.2,1.4-3.1,2-4.2l2.8-4.9
			c0.7-1.1,1.8-2.9,2.6-3.9c1.6-1.9,3.4-3.7,5.3-5.3c1-0.8,2.8-2,3.9-2.6l4.9-2.8c1.1-0.6,3-1.6,4.2-2c2.3-0.8,4.6-1.4,7-1.9
			c1.3-0.2,3.4-0.4,4.7-0.4h5.8c1.3,0,3.4,0.1,4.7,0.4c2.4,0.4,4.7,1.1,7,1.9c1.2,0.4,3.1,1.4,4.2,2l4.9,2.8
			c1.1,0.6,2.9,1.8,3.9,2.6c1.9,1.6,3.7,3.4,5.3,5.3c0.8,1,2,2.8,2.6,3.9l2.8,4.9c0.6,1.1,1.6,3,2,4.2c0.8,2.3,1.4,4.6,1.9,7
			c0.2,1.3,0.4,3.4,0.4,4.7v5.8C174,212,173.9,214.1,173.7,215.4z"/>
	</g>
</g>
<g id="react">
	<path class="st3" d="M150.8,445l-2.5-8.1c-0.3-0.9-1.2-1.5-2.2-1.3l-4.3,0.9c-0.9,0.2-2-0.3-2.5-1.1c-2-3.3-4.4-6.2-7.2-8.7
		c-0.7-0.6-1-1.8-0.6-2.6l1.7-4c0.4-0.9,0-1.9-0.8-2.3l-7.5-3.9c-0.8-0.4-1.9-0.1-2.4,0.6l-2.4,3.7c-0.5,0.8-1.6,1.2-2.5,1
		c-3.6-0.9-7.4-1.3-11.2-1c-0.9,0.1-2-0.5-2.3-1.4l-1.7-4c-0.4-0.9-1.4-1.3-2.2-1.1l-8.1,2.5c-0.9,0.3-1.5,1.2-1.3,2.2l0.9,4.3
		c0.2,0.9-0.3,2-1.1,2.5c-3.3,2-6.2,4.4-8.7,7.2c-0.6,0.7-1.8,1-2.6,0.6l-4-1.7c-0.9-0.4-1.9,0-2.4,0.8l-3.9,7.5
		c-0.4,0.8-0.2,1.9,0.6,2.4l3.7,2.4c0.8,0.5,1.2,1.6,1,2.5c-0.9,3.6-1.3,7.4-1,11.2c0.1,0.9-0.5,2-1.4,2.3l-4.1,1.6
		c-0.9,0.4-1.3,1.4-1.1,2.3l2.5,8.1c0.3,0.9,1.2,1.5,2.2,1.3l4.3-0.9c0.9-0.2,2,0.3,2.5,1.1c2,3.3,4.4,6.2,7.2,8.7
		c0.7,0.6,1,1.8,0.6,2.6l-1.7,4c-0.4,0.9,0,1.9,0.8,2.3l7.5,3.9c0.8,0.4,1.9,0.2,2.4-0.6l2.4-3.7c0.5-0.8,1.6-1.2,2.5-1
		c3.6,0.9,7.4,1.3,11.3,1c0.9-0.1,2,0.5,2.3,1.4l1.6,4c0.4,0.9,1.4,1.3,2.3,1.1l8.1-2.5c0.9-0.3,1.5-1.2,1.2-2.2l-0.9-4.3
		c-0.2-0.9,0.3-2,1.1-2.5c3.3-2,6.2-4.4,8.7-7.2c0.6-0.7,1.8-1,2.6-0.6l4,1.7c0.9,0.4,1.9,0,2.3-0.8l3.9-7.5
		c0.4-0.8,0.2-1.9-0.6-2.4l-3.7-2.4c-0.8-0.5-1.2-1.6-1-2.5c0.9-3.6,1.3-7.4,1-11.3c-0.1-0.9,0.5-2,1.4-2.3l4.1-1.6
		C150.6,446.9,151,445.9,150.8,445z M82.7,461.7c-4.5-14.3,3.6-29.6,17.9-34.1c14.3-4.5,29.6,3.6,34.1,17.9
		c4.5,14.3-3.6,29.6-17.9,34.1C102.5,484.1,87.2,476.1,82.7,461.7z"/>
</g>
<g id="jquery">
	<path class="st3" d="M301.8,445l-2.5-8.1c-0.3-0.9-1.2-1.5-2.2-1.3l-4.3,0.9c-0.9,0.2-2-0.3-2.5-1.1c-2-3.3-4.4-6.2-7.2-8.7
		c-0.7-0.6-1-1.8-0.6-2.6l1.7-4c0.4-0.9,0-1.9-0.8-2.3l-7.5-3.9c-0.8-0.4-1.9-0.1-2.4,0.6l-2.4,3.7c-0.5,0.8-1.6,1.2-2.5,1
		c-3.6-0.9-7.4-1.3-11.2-1c-0.9,0.1-2-0.5-2.3-1.4l-1.7-4c-0.4-0.9-1.4-1.3-2.2-1.1l-8.1,2.5c-0.9,0.3-1.5,1.2-1.3,2.2l0.9,4.3
		c0.2,0.9-0.3,2-1.1,2.5c-3.3,2-6.2,4.4-8.7,7.2c-0.6,0.7-1.8,1-2.6,0.6l-4-1.7c-0.9-0.4-1.9,0-2.4,0.8l-3.9,7.5
		c-0.4,0.8-0.2,1.9,0.6,2.4l3.7,2.4c0.8,0.5,1.2,1.6,1,2.5c-0.9,3.6-1.3,7.4-1,11.2c0.1,0.9-0.5,2-1.4,2.3l-4.1,1.6
		c-0.9,0.4-1.3,1.4-1.1,2.3l2.5,8.1c0.3,0.9,1.2,1.5,2.2,1.3l4.3-0.9c0.9-0.2,2,0.3,2.5,1.1c2,3.3,4.4,6.2,7.2,8.7
		c0.7,0.6,1,1.8,0.6,2.6l-1.7,4c-0.4,0.9,0,1.9,0.8,2.3l7.5,3.9c0.8,0.4,1.9,0.2,2.4-0.6l2.4-3.7c0.5-0.8,1.6-1.2,2.5-1
		c3.6,0.9,7.4,1.3,11.3,1c0.9-0.1,2,0.5,2.3,1.4l1.6,4c0.4,0.9,1.4,1.3,2.3,1.1l8.1-2.5c0.9-0.3,1.5-1.2,1.2-2.2l-0.9-4.3
		c-0.2-0.9,0.3-2,1.1-2.5c3.3-2,6.2-4.4,8.7-7.2c0.6-0.7,1.8-1,2.6-0.6l4,1.7c0.9,0.4,1.9,0,2.3-0.8l3.9-7.5
		c0.4-0.8,0.2-1.9-0.6-2.4l-3.7-2.4c-0.8-0.5-1.2-1.6-1-2.5c0.9-3.6,1.3-7.4,1-11.3c-0.1-0.9,0.5-2,1.4-2.3l4.1-1.6
		C301.6,446.9,302.1,445.9,301.8,445z M233.8,461.7c-4.5-14.3,3.6-29.6,17.9-34.1c14.3-4.5,29.6,3.6,34.1,17.9
		c4.5,14.3-3.6,29.6-17.9,34.1C253.5,484.1,238.3,476.1,233.8,461.7z"/>
</g>
<g id="scss">
	<path class="st4" d="M408.4,354.2l-2.5-8.1c-0.3-0.9-1.2-1.5-2.2-1.3l-4.3,0.9c-0.9,0.2-2-0.3-2.5-1.1c-2-3.3-4.4-6.2-7.2-8.7
		c-0.7-0.6-1-1.8-0.6-2.6l1.7-4c0.4-0.9,0-1.9-0.8-2.3l-7.5-3.9c-0.8-0.4-1.9-0.1-2.4,0.6l-2.4,3.7c-0.5,0.8-1.6,1.2-2.5,1
		c-3.6-0.9-7.4-1.3-11.2-1c-0.9,0.1-2-0.5-2.3-1.4l-1.7-4c-0.4-0.9-1.4-1.3-2.2-1.1l-8.1,2.5c-0.9,0.3-1.5,1.2-1.3,2.2l0.9,4.3
		c0.2,0.9-0.3,2-1.1,2.5c-3.3,2-6.2,4.4-8.7,7.2c-0.6,0.7-1.8,1-2.6,0.6l-4-1.7c-0.9-0.4-1.9,0-2.4,0.8l-3.9,7.5
		c-0.4,0.8-0.2,1.9,0.6,2.4l3.7,2.4c0.8,0.5,1.2,1.6,1,2.5c-0.9,3.6-1.3,7.4-1,11.2c0.1,0.9-0.5,2-1.4,2.3l-4.1,1.6
		c-0.9,0.4-1.3,1.4-1.1,2.3l2.5,8.1c0.3,0.9,1.2,1.5,2.2,1.3l4.3-0.9c0.9-0.2,2,0.3,2.5,1.1c2,3.3,4.4,6.2,7.2,8.7
		c0.7,0.6,1,1.8,0.6,2.6l-1.7,4c-0.4,0.9,0,1.9,0.8,2.3l7.5,3.9c0.8,0.4,1.9,0.2,2.4-0.6l2.4-3.7c0.5-0.8,1.6-1.2,2.5-1
		c3.6,0.9,7.4,1.3,11.3,1c0.9-0.1,2,0.5,2.3,1.4l1.6,4c0.4,0.9,1.4,1.3,2.3,1.1l8.1-2.5c0.9-0.3,1.5-1.2,1.2-2.2l-0.9-4.3
		c-0.2-0.9,0.3-2,1.1-2.5c3.3-2,6.2-4.4,8.7-7.2c0.6-0.7,1.8-1,2.6-0.6l4,1.7c0.9,0.4,1.9,0,2.3-0.8l3.9-7.5
		c0.4-0.8,0.2-1.9-0.6-2.4l-3.7-2.4c-0.8-0.5-1.2-1.6-1-2.5c0.9-3.6,1.3-7.4,1-11.3c-0.1-0.9,0.5-2,1.4-2.3l4.1-1.6
		C408.2,356.1,408.7,355.1,408.4,354.2z M340.4,370.9c-4.5-14.3,3.6-29.6,17.9-34.1c14.3-4.5,29.6,3.6,34.1,17.9
		c4.5,14.3-3.6,29.6-17.9,34.1C360.1,393.3,344.8,385.3,340.4,370.9z"/>
</g>
<path id="graphic" class="st5" d="M190.3,90.5c0.3-1.6-0.7-3.2-2.3-3.6l-3-0.8c-1.5-0.4-2.7-2-2.7-3.6c0-3.6-0.3-7.1-0.9-10.5
	c-0.3-1.6,0.6-3.4,2-4l2.8-1.3c1.4-0.7,2.2-2.4,1.6-3.9l-2.8-7.6c-0.6-1.5-2.2-2.4-3.8-1.9l-3,0.8c-1.5,0.4-3.4-0.4-4.2-1.8
	c-1.8-3-3.8-5.9-6-8.6c-1-1.2-1.2-3.2-0.2-4.5l1.8-2.5c0.9-1.3,0.7-3.2-0.6-4.2l-6.2-5.2c-1.2-1-3.1-0.9-4.2,0.2l-2.2,2.2
	c-1.1,1.1-3.1,1.3-4.5,0.6c-3-1.7-6.2-3.2-9.5-4.4c-1.5-0.5-2.6-2.2-2.5-3.8l0.3-3.1c0.1-1.6-1-3.1-2.6-3.4l-8-1.4
	c-1.6-0.3-3.2,0.8-3.6,2.3l-0.8,3c-0.4,1.5-2,2.7-3.6,2.7c-3.6,0-7.1,0.3-10.5,0.9c-1.6,0.3-3.4-0.6-4-2l-1.3-2.8
	c-0.7-1.4-2.4-2.2-3.9-1.6l-7.6,2.8c-1.5,0.5-2.4,2.2-1.9,3.8l0.8,3c0.4,1.5-0.4,3.4-1.8,4.2c-3,1.8-5.9,3.8-8.6,6
	c-1.2,1-3.2,1.2-4.5,0.3l-2.6-1.8c-1.3-0.9-3.2-0.7-4.2,0.6l-5.2,6.2c-1,1.2-0.9,3.1,0.2,4.2l2.2,2.2c1.1,1.1,1.3,3.1,0.6,4.5
	c-1.7,3-3.2,6.2-4.4,9.5c-0.5,1.5-2.2,2.6-3.8,2.5l-3.1-0.3c-1.6-0.1-3.1,1-3.4,2.6l-1.4,8c-0.3,1.6,0.8,3.2,2.3,3.6l3,0.8
	c1.5,0.4,2.7,2,2.7,3.6c0,3.6,0.3,7.1,0.9,10.5c0.3,1.6-0.6,3.4-2,4l-2.8,1.3c-1.4,0.7-2.2,2.4-1.6,3.9l2.8,7.6
	c0.5,1.5,2.2,2.4,3.8,2l3-0.8c1.5-0.4,3.4,0.4,4.2,1.8c1.8,3,3.8,5.9,6.1,8.6c1,1.2,1.2,3.2,0.2,4.5l-1.8,2.5
	c-0.9,1.3-0.7,3.2,0.5,4.2l6.2,5.2c1.2,1,3.1,0.9,4.2-0.2l2.2-2.2c1.1-1.1,3.1-1.3,4.5-0.5c3,1.7,6.2,3.2,9.5,4.4
	c1.5,0.5,2.6,2.2,2.5,3.8l-0.3,3.1c-0.1,1.6,1,3.1,2.6,3.4l8,1.4c1.6,0.3,3.2-0.8,3.6-2.3l0.8-3c0.4-1.5,2-2.7,3.6-2.7
	c3.6,0,7.1-0.3,10.5-0.9c1.6-0.3,3.4,0.6,4,2l1.3,2.8c0.7,1.4,2.4,2.2,3.9,1.6l7.6-2.8c1.5-0.5,2.4-2.2,2-3.8l-0.8-3
	c-0.4-1.5,0.4-3.4,1.8-4.2c3-1.8,5.9-3.8,8.6-6c1.2-1,3.2-1.2,4.5-0.3l2.5,1.8c1.3,0.9,3.2,0.7,4.2-0.6l5.2-6.2
	c1-1.2,0.9-3.1-0.2-4.2l-2.2-2.2c-1.1-1.1-1.3-3.1-0.5-4.5c1.7-3,3.2-6.2,4.4-9.5c0.5-1.5,2.2-2.6,3.8-2.5l3.1,0.3
	c1.6,0.1,3.1-1,3.4-2.6L190.3,90.5z M114.7,122.2C92.8,118.4,78.2,97.6,82,75.7c3.8-21.9,24.6-36.5,46.5-32.7
	c21.9,3.8,36.5,24.6,32.7,46.5C157.3,111.4,136.5,126,114.7,122.2z"/>
<g id="illustrator">
	<g id="XMLID_67_">
		<path class="st6" d="M152.9,314.1c0.2-1-0.4-2.1-1.4-2.4l-1.9-0.6c-1-0.3-1.7-1.4-1.7-2.4c0.1-2.3-0.1-4.6-0.4-6.8
			c-0.1-1,0.5-2.2,1.4-2.6l1.8-0.8c0.9-0.4,1.5-1.5,1.1-2.5l-1.6-5c-0.3-1-1.4-1.6-2.4-1.3l-2,0.5c-1,0.2-2.2-0.3-2.7-1.2
			c-1.1-2-2.3-3.9-3.7-5.7c-0.6-0.8-0.7-2.1-0.1-2.9l1.2-1.6c0.6-0.8,0.5-2.1-0.3-2.7l-3.9-3.5c-0.8-0.7-2-0.7-2.7,0l-1.5,1.4
			c-0.7,0.7-2,0.8-2.9,0.3c-1.9-1.2-3.9-2.2-6.1-3.1c-1-0.4-1.7-1.5-1.5-2.5l0.2-2c0.1-1-0.6-2-1.6-2.2l-5.1-1.1
			c-1-0.2-2.1,0.4-2.4,1.4l-0.6,1.9c-0.3,1-1.4,1.7-2.4,1.7c-2.3-0.1-4.6,0.1-6.8,0.4c-1,0.2-2.2-0.5-2.6-1.4l-0.8-1.8
			c-0.4-0.9-1.5-1.5-2.5-1.1l-5,1.7c-1,0.3-1.6,1.4-1.3,2.4l0.5,2c0.2,1-0.3,2.2-1.2,2.7c-2,1.1-3.9,2.3-5.7,3.7
			c-0.8,0.6-2.1,0.7-2.9,0.1l-1.6-1.2c-0.8-0.6-2.1-0.5-2.7,0.3l-3.5,3.9c-0.7,0.8-0.7,2,0,2.7l1.4,1.5c0.7,0.7,0.8,2,0.3,2.9
			c-1.2,1.9-2.2,3.9-3.1,6.1c-0.4,1-1.5,1.7-2.5,1.5l-2-0.2c-1-0.1-2,0.6-2.2,1.6l-1.1,5.1c-0.2,1,0.4,2.1,1.4,2.4l1.9,0.6
			c1,0.3,1.7,1.4,1.7,2.4c-0.1,2.3,0.1,4.6,0.4,6.8c0.2,1-0.5,2.2-1.4,2.6l-1.8,0.8c-0.9,0.4-1.5,1.5-1.1,2.5l1.7,5
			c0.3,1,1.4,1.6,2.4,1.3l2-0.5c1-0.2,2.2,0.3,2.7,1.2c1.1,2,2.3,3.9,3.7,5.7c0.6,0.8,0.7,2.1,0.1,2.9l-1.2,1.6
			c-0.6,0.8-0.5,2,0.3,2.7l3.9,3.5c0.8,0.7,2,0.7,2.7,0l1.5-1.4c0.8-0.7,2-0.8,2.9-0.3c1.9,1.2,3.9,2.2,6.1,3.1
			c1,0.4,1.6,1.5,1.5,2.5l-0.2,2c-0.1,1,0.6,2,1.6,2.2l5.1,1.1c1,0.2,2.1-0.4,2.4-1.4l0.6-1.9c0.3-1,1.4-1.7,2.4-1.7
			c2.3,0.1,4.6-0.1,6.8-0.4c1-0.2,2.2,0.5,2.6,1.4l0.8,1.8c0.4,0.9,1.5,1.5,2.5,1.1l5-1.6c1-0.3,1.6-1.4,1.3-2.4l-0.5-2
			c-0.2-1,0.3-2.2,1.2-2.7c2-1.1,3.9-2.3,5.7-3.7c0.8-0.6,2.1-0.7,2.9-0.1l1.6,1.2c0.8,0.6,2,0.5,2.7-0.3l3.5-3.9
			c0.7-0.8,0.7-2,0-2.7l-1.4-1.5c-0.7-0.8-0.8-2-0.3-2.9c1.2-1.9,2.2-3.9,3.1-6.1c0.4-1,1.5-1.7,2.5-1.5l2,0.2c1,0.1,2-0.6,2.2-1.6
			L152.9,314.1z M141.4,316.8c-0.2,1-0.6,2.6-1,3.6c-0.7,1.8-1.6,3.5-2.6,5.2c-0.5,0.9-1.6,2.2-2.3,3l-3,3.3c-0.7,0.8-1.9,2-2.7,2.6
			c-1.6,1.2-3.2,2.3-5,3.3c-0.9,0.5-2.5,1.1-3.4,1.4l-4.2,1.4c-1,0.3-2.6,0.8-3.6,0.9c-1.9,0.3-3.8,0.4-5.7,0.3
			c-1,0-2.7-0.3-3.7-0.5l-4.6-0.9c-1-0.2-2.6-0.6-3.6-1c-1.8-0.7-3.5-1.6-5.1-2.6c-0.9-0.5-2.2-1.6-3-2.3l-3.4-3
			c-0.8-0.7-2-1.9-2.6-2.7c-1.2-1.6-2.3-3.2-3.3-5c-0.5-0.9-1.1-2.5-1.4-3.4l-1.4-4.3c-0.3-1-0.8-2.6-0.9-3.6
			c-0.3-1.9-0.4-3.8-0.3-5.7c0-1,0.3-2.7,0.5-3.7l0.9-4.5c0.2-1,0.6-2.6,1-3.6c0.7-1.8,1.6-3.5,2.6-5.1c0.5-0.9,1.6-2.2,2.3-3l3-3.3
			c0.7-0.8,1.9-2,2.7-2.6c1.6-1.2,3.2-2.3,5-3.3c0.9-0.5,2.5-1.1,3.4-1.4l4.3-1.4c1-0.3,2.6-0.8,3.6-0.9c1.9-0.3,3.8-0.4,5.7-0.3
			c1,0,2.7,0.3,3.7,0.5l4.5,0.9c1,0.2,2.6,0.6,3.6,1c1.8,0.7,3.5,1.6,5.1,2.6c0.9,0.5,2.2,1.6,3,2.3l3.3,3c0.8,0.7,2,1.9,2.6,2.7
			c1.2,1.6,2.3,3.2,3.3,5c0.5,0.9,1.1,2.5,1.4,3.4l1.4,4.2c0.3,1,0.8,2.6,0.9,3.6c0.3,1.9,0.4,3.8,0.3,5.7c0,1-0.3,2.7-0.5,3.7
			L141.4,316.8z"/>
	</g>
	<g id="XMLID_63_">
		<path class="st6" d="M116.1,272.5l-0.1,0c-19.4-4-38.4,8.5-42.4,27.9c-4,19.4,8.5,38.4,27.9,42.4l0.1,0
			c19.4,3.9,38.3-8.5,42.3-27.9C147.9,295.5,135.5,276.6,116.1,272.5z M140.3,320.3c-0.7,1.8-1.6,3.5-2.6,5.2
			c-0.5,0.9-1.6,2.2-2.3,3l-3,3.3c-0.7,0.8-1.9,2-2.7,2.6c-1.6,1.2-3.2,2.3-5,3.3c-0.9,0.5-2.5,1.1-3.4,1.4l-4.2,1.4
			c-1,0.3-2.6,0.8-3.6,0.9c-1.9,0.3-3.8,0.4-5.7,0.3c-1,0-2.7-0.3-3.7-0.5l-4.6-0.9c-1-0.2-2.6-0.6-3.6-1c-1.8-0.7-3.5-1.6-5.1-2.6
			c-0.9-0.5-2.2-1.6-3-2.3l-3.4-3c-0.8-0.7-2-1.9-2.6-2.7c-1.2-1.6-2.3-3.2-3.3-5c-0.5-0.9-1.1-2.5-1.4-3.4l-1.4-4.3
			c-0.3-1-0.8-2.6-0.9-3.6c-0.3-1.9-0.4-3.8-0.3-5.7c0-1,0.3-2.7,0.5-3.7l0.9-4.5c0.2-1,0.6-2.6,1-3.6c0.7-1.8,1.6-3.5,2.6-5.1
			c0.5-0.9,1.6-2.2,2.3-3l3-3.3c0.7-0.8,1.9-2,2.7-2.6c1.6-1.2,3.2-2.3,5-3.3c0.9-0.5,2.5-1.1,3.4-1.4l4.3-1.4
			c1-0.3,2.6-0.8,3.6-0.9c1.9-0.3,3.8-0.4,5.7-0.3c1,0,2.7,0.3,3.7,0.5l4.5,0.9c1,0.2,2.6,0.6,3.6,1c1.8,0.7,3.5,1.6,5.1,2.6
			c0.9,0.5,2.2,1.6,3,2.3l3.3,3c0.8,0.7,2,1.9,2.6,2.7c1.2,1.6,2.3,3.2,3.3,5c0.5,0.9,1.1,2.5,1.4,3.4l1.4,4.2
			c0.3,1,0.8,2.6,0.9,3.6c0.3,1.9,0.4,3.8,0.3,5.7c0,1-0.3,2.7-0.5,3.7l-0.9,4.5C141.1,317.8,140.7,319.4,140.3,320.3z"/>
	</g>
</g>
<g id="javascript">
	<path class="st5" d="M241,375.2l-2.4-11.4c-0.3-1.3-1.5-2.2-2.8-2l-6,0.7c-1.3,0.2-2.7-0.7-3.3-1.9c-2.3-4.8-5.3-9.2-8.8-12.9
		c-0.9-0.9-1.2-2.6-0.6-3.7l2.9-5.3c0.6-1.1,0.2-2.6-0.9-3.3l-9.8-6.4c-1.1-0.7-2.6-0.4-3.4,0.6l-3.7,4.8c-0.8,1-2.4,1.4-3.6,1
		c-4.9-1.7-10-2.7-15.4-2.9c-1.3,0-2.6-1-3-2.2l-1.8-5.8c-0.4-1.2-1.7-2-3-1.8L164,325c-1.3,0.3-2.2,1.5-2,2.8l0.7,6
		c0.2,1.3-0.7,2.7-1.9,3.3c-4.8,2.3-9.1,5.3-12.9,8.8c-0.9,0.9-2.6,1.2-3.7,0.5l-5.3-2.9c-1.1-0.6-2.6-0.2-3.4,0.9l-6.4,9.8
		c-0.7,1.1-0.5,2.6,0.6,3.4l4.8,3.7c1,0.8,1.4,2.4,1,3.6c-1.8,4.9-2.7,10-2.9,15.4c0,1.3-1,2.6-2.2,3l-5.8,1.7c-1.2,0.4-2,1.7-1.8,3
		l2.4,11.4c0.3,1.3,1.5,2.2,2.8,2l6-0.7c1.3-0.2,2.7,0.7,3.3,1.9c2.3,4.8,5.3,9.1,8.8,12.9c0.9,0.9,1.2,2.6,0.5,3.7l-2.9,5.3
		c-0.6,1.1-0.2,2.6,0.9,3.3l9.8,6.4c1.1,0.7,2.6,0.5,3.4-0.6l3.7-4.8c0.8-1,2.4-1.4,3.6-1c4.9,1.8,10.1,2.7,15.4,2.9
		c1.3,0,2.6,1,3,2.3l1.7,5.8c0.4,1.2,1.7,2,3,1.8l11.4-2.4c1.3-0.3,2.2-1.5,2-2.8l-0.7-6c-0.2-1.3,0.7-2.7,1.9-3.3
		c4.8-2.3,9.1-5.3,12.9-8.8c0.9-0.9,2.6-1.2,3.7-0.5l5.3,2.9c1.1,0.6,2.6,0.2,3.3-0.9l6.4-9.8c0.7-1.1,0.5-2.6-0.6-3.4l-4.8-3.7
		c-1-0.8-1.4-2.4-1-3.6c1.7-4.9,2.7-10,2.9-15.4c0-1.3,1-2.6,2.3-3l5.8-1.7C240.5,377.8,241.3,376.5,241,375.2z M145.1,389.4
		c-4.3-20.3,8.8-40.4,29.1-44.6c20.3-4.3,40.3,8.8,44.6,29.1c4.3,20.3-8.8,40.4-29.1,44.6C169.4,422.8,149.4,409.8,145.1,389.4z"/>
</g>
<g id="XMLID_9_">
	<line class="st7" x1="175.1" y1="399.2" x2="174.6" y2="400.5"/>
</g>
<g id="css">
	<g id="XMLID_52_">
		<path class="st8" d="M344.9,286.9c0-1.6-1.3-3.1-2.9-3.2l-3.2-0.3c-1.6-0.1-3.1-1.6-3.4-3.2c-0.6-3.6-1.6-7.1-2.8-10.4
			c-0.6-1.5,0-3.5,1.3-4.4l2.6-1.8c1.3-0.9,1.8-2.8,0.9-4.2l-4.1-7.2c-0.8-1.4-2.7-2-4.1-1.3l-2.9,1.4c-1.5,0.7-3.5,0.2-4.5-1.1
			c-2.3-2.7-4.9-5.3-7.6-7.6c-1.2-1.1-1.7-3-1-4.5l1.4-2.9c0.7-1.5,0.1-3.3-1.3-4.1l-7.2-4.1c-1.4-0.8-3.3-0.4-4.2,0.9l-1.8,2.6
			c-0.9,1.3-2.9,1.9-4.4,1.3c-3.3-1.2-6.8-2.1-10.4-2.8c-1.6-0.3-3-1.8-3.2-3.4l-0.3-3.2c-0.1-1.6-1.6-2.9-3.2-2.9h-8.3
			c-1.6,0-3.1,1.3-3.2,2.9l-0.3,3.2c-0.1,1.6-1.6,3.1-3.2,3.4c-3.6,0.6-7.1,1.6-10.4,2.8c-1.5,0.6-3.5,0-4.4-1.3l-1.8-2.6
			c-0.9-1.3-2.8-1.8-4.2-0.9l-7.2,4.1c-1.4,0.8-2,2.7-1.3,4.1l1.4,2.9c0.7,1.5,0.2,3.5-1.1,4.5c-2.7,2.3-5.3,4.8-7.6,7.6
			c-1,1.2-3,1.7-4.5,1.1l-2.9-1.4c-1.5-0.7-3.3-0.1-4.2,1.3l-4.1,7.2c-0.8,1.4-0.4,3.3,0.9,4.2l2.6,1.8c1.3,0.9,1.9,2.9,1.3,4.4
			c-1.2,3.3-2.2,6.8-2.8,10.4c-0.3,1.6-1.8,3-3.4,3.2l-3.2,0.3c-1.6,0.1-2.9,1.6-2.9,3.2v8.3c0,1.6,1.3,3.1,2.9,3.2l3.2,0.3
			c1.6,0.1,3.1,1.6,3.4,3.2c0.6,3.6,1.6,7,2.8,10.4c0.6,1.5,0,3.5-1.3,4.4l-2.6,1.8c-1.3,0.9-1.8,2.8-0.9,4.2l4.1,7.2
			c0.8,1.4,2.7,2,4.2,1.3l2.9-1.3c1.5-0.7,3.5-0.2,4.5,1c2.3,2.7,4.9,5.3,7.6,7.6c1.2,1,1.7,3,1.1,4.5l-1.4,2.9
			c-0.7,1.5-0.1,3.3,1.3,4.2l7.2,4.1c1.4,0.8,3.3,0.4,4.2-0.9l1.8-2.6c0.9-1.3,2.9-1.9,4.4-1.3c3.3,1.2,6.8,2.2,10.4,2.8
			c1.6,0.3,3,1.8,3.2,3.4l0.3,3.2c0.1,1.6,1.6,2.9,3.2,2.9h8.3c1.6,0,3.1-1.3,3.2-2.9l0.3-3.2c0.1-1.6,1.6-3.1,3.2-3.4
			c3.6-0.6,7.1-1.6,10.4-2.8c1.5-0.6,3.5,0,4.4,1.3l1.8,2.6c0.9,1.3,2.8,1.8,4.2,0.9l7.2-4.1c1.4-0.8,2-2.7,1.3-4.1l-1.4-2.9
			c-0.7-1.5-0.2-3.5,1-4.5c2.8-2.3,5.3-4.8,7.6-7.6c1-1.3,3-1.7,4.5-1l2.9,1.3c1.5,0.7,3.3,0.1,4.1-1.3l4.1-7.2
			c0.8-1.4,0.4-3.3-0.9-4.2l-2.6-1.8c-1.3-0.9-1.9-2.9-1.3-4.4c1.2-3.3,2.2-6.8,2.8-10.4c0.3-1.6,1.8-3,3.4-3.2l3.2-0.3
			c1.6-0.1,2.9-1.6,2.9-3.2L344.9,286.9z M327.8,294.7c0,1.6-0.2,4.3-0.4,5.9c-0.5,3-1.3,6-2.4,8.8c-0.6,1.5-1.7,3.9-2.6,5.3
			l-3.5,6.1c-0.8,1.4-2.3,3.6-3.3,4.9c-2,2.4-4.2,4.6-6.7,6.7c-1.2,1.1-3.5,2.5-4.9,3.3l-6.1,3.5c-1.4,0.8-3.8,2-5.3,2.6
			c-2.8,1-5.7,1.8-8.7,2.3c-1.6,0.3-4.2,0.4-5.9,0.4h-7.4c-1.6,0-4.3-0.1-5.9-0.4c-3-0.5-5.9-1.3-8.7-2.3c-1.5-0.6-3.9-1.7-5.3-2.6
			l-6.1-3.5c-1.4-0.8-3.6-2.3-4.9-3.3c-2.4-2-4.6-4.2-6.6-6.6c-1.1-1.2-2.5-3.4-3.3-4.9l-3.6-6.1c-0.8-1.4-2-3.8-2.6-5.3
			c-1-2.8-1.8-5.7-2.3-8.7c-0.3-1.6-0.4-4.2-0.4-5.9l0-7.3c0-1.6,0.1-4.3,0.4-5.9c0.5-3,1.3-5.9,2.4-8.7c0.6-1.5,1.7-3.9,2.6-5.3
			l3.5-6.1c0.8-1.4,2.3-3.6,3.3-4.9c2-2.4,4.3-4.6,6.7-6.6c1.2-1.1,3.4-2.5,4.9-3.3l6.1-3.5c1.4-0.8,3.8-2,5.3-2.6
			c2.8-1,5.7-1.8,8.8-2.3c1.6-0.3,4.2-0.4,5.9-0.4h7.3c1.6,0,4.3,0.2,5.9,0.4c3,0.5,5.9,1.3,8.8,2.4c1.5,0.6,3.9,1.7,5.3,2.6
			l6.1,3.5c1.4,0.8,3.6,2.3,4.9,3.3c2.4,2,4.6,4.2,6.7,6.6c1.1,1.3,2.5,3.5,3.3,4.9l3.5,6.1c0.8,1.4,2,3.8,2.6,5.3
			c1,2.8,1.8,5.8,2.4,8.8c0.3,1.6,0.4,4.2,0.4,5.9V294.7z"/>
	</g>
	<g id="XMLID_48_">
		<path class="st8" d="M274.6,234.3h-0.2c-31.3,0-56.7,25.4-56.7,56.7c0,31.3,25.4,56.7,56.7,56.7h0.2c31.2-0.1,56.6-25.5,56.6-56.7
			C331.1,259.8,305.8,234.4,274.6,234.3z M327.3,300.5c-0.5,3-1.3,6-2.4,8.8c-0.6,1.5-1.7,3.9-2.6,5.3l-3.5,6.1
			c-0.8,1.4-2.3,3.6-3.3,4.9c-2,2.4-4.2,4.6-6.7,6.7c-1.2,1.1-3.5,2.5-4.9,3.3l-6.1,3.5c-1.4,0.8-3.8,2-5.3,2.6
			c-2.8,1-5.7,1.8-8.7,2.3c-1.6,0.3-4.2,0.4-5.9,0.4h-7.4c-1.6,0-4.3-0.1-5.9-0.4c-3-0.5-5.9-1.3-8.7-2.3c-1.5-0.6-3.9-1.7-5.3-2.6
			l-6.1-3.5c-1.4-0.8-3.6-2.3-4.9-3.3c-2.4-2-4.6-4.2-6.6-6.6c-1.1-1.2-2.5-3.4-3.3-4.9l-3.6-6.1c-0.8-1.4-2-3.8-2.6-5.3
			c-1-2.8-1.8-5.7-2.3-8.7c-0.3-1.6-0.4-4.2-0.4-5.9l0-7.3c0-1.6,0.1-4.3,0.4-5.9c0.5-3,1.3-5.9,2.4-8.7c0.6-1.5,1.7-3.9,2.6-5.3
			l3.5-6.1c0.8-1.4,2.3-3.6,3.3-4.9c2-2.4,4.3-4.6,6.7-6.6c1.2-1.1,3.4-2.5,4.9-3.3l6.1-3.5c1.4-0.8,3.8-2,5.3-2.6
			c2.8-1,5.7-1.8,8.8-2.3c1.6-0.3,4.2-0.4,5.9-0.4h7.3c1.6,0,4.3,0.2,5.9,0.4c3,0.5,5.9,1.3,8.8,2.4c1.5,0.6,3.9,1.7,5.3,2.6
			l6.1,3.5c1.4,0.8,3.6,2.3,4.9,3.3c2.4,2,4.6,4.2,6.7,6.6c1.1,1.3,2.5,3.5,3.3,4.9l3.5,6.1c0.8,1.4,2,3.8,2.6,5.3
			c1,2.8,1.8,5.8,2.4,8.8c0.3,1.6,0.4,4.2,0.4,5.9v7.3C327.8,296.3,327.6,298.9,327.3,300.5z"/>
	</g>
</g>
<g id="html">
	<path class="st9" d="M387.4,190.3l-2.5-8.1c-0.3-0.9-1.2-1.5-2.2-1.3l-4.3,0.9c-0.9,0.2-2-0.3-2.5-1.1c-2-3.3-4.4-6.2-7.2-8.7
		c-0.7-0.6-1-1.8-0.6-2.6l1.7-4c0.4-0.9,0-1.9-0.8-2.3l-7.5-3.9c-0.8-0.4-1.9-0.1-2.4,0.6l-2.4,3.7c-0.5,0.8-1.6,1.2-2.5,1
		c-3.6-0.9-7.4-1.3-11.2-1c-0.9,0.1-2-0.5-2.3-1.4l-1.7-4c-0.4-0.9-1.4-1.3-2.2-1.1l-8.1,2.5c-0.9,0.3-1.5,1.2-1.3,2.2l0.9,4.3
		c0.2,0.9-0.3,2-1.1,2.5c-3.3,2-6.2,4.4-8.7,7.2c-0.6,0.7-1.8,1-2.6,0.6l-4-1.7c-0.9-0.4-1.9,0-2.4,0.8l-3.9,7.5
		c-0.4,0.8-0.2,1.9,0.6,2.4l3.7,2.4c0.8,0.5,1.2,1.6,1,2.5c-0.9,3.6-1.3,7.4-1,11.2c0.1,0.9-0.5,2-1.4,2.3l-4.1,1.6
		c-0.9,0.4-1.3,1.4-1.1,2.3l2.5,8.1c0.3,0.9,1.2,1.5,2.2,1.3l4.3-0.9c0.9-0.2,2,0.3,2.5,1.1c2,3.3,4.4,6.2,7.2,8.7
		c0.7,0.6,1,1.8,0.6,2.6l-1.7,4c-0.4,0.9,0,1.9,0.8,2.3l7.5,3.9c0.8,0.4,1.9,0.2,2.4-0.6l2.4-3.7c0.5-0.8,1.6-1.2,2.5-1
		c3.6,0.9,7.4,1.3,11.3,1c0.9-0.1,2,0.5,2.3,1.4l1.6,4c0.4,0.9,1.4,1.3,2.3,1.1l8.1-2.5c0.9-0.3,1.5-1.2,1.2-2.2l-0.9-4.3
		c-0.2-0.9,0.3-2,1.1-2.5c3.3-2,6.2-4.4,8.7-7.2c0.6-0.7,1.8-1,2.6-0.6l4,1.7c0.9,0.4,1.9,0,2.3-0.8l3.9-7.5
		c0.4-0.8,0.2-1.9-0.6-2.4l-3.7-2.4c-0.8-0.5-1.2-1.6-1-2.5c0.9-3.6,1.3-7.4,1-11.3c-0.1-0.9,0.5-2,1.4-2.3l4.1-1.6
		C387.2,192.2,387.7,191.2,387.4,190.3z M319.4,207c-4.5-14.3,3.6-29.6,17.9-34.1c14.3-4.5,29.6,3.6,34.1,17.9
		c4.5,14.3-3.6,29.6-17.9,34.1C339.1,229.4,323.8,221.4,319.4,207z"/>
</g>
<g id="code">
	<path class="st10" d="M324.2,130.7c0.3-1.6-0.7-3.2-2.3-3.6l-3-0.8c-1.5-0.4-2.7-2-2.7-3.6c0-3.6-0.3-7.1-0.9-10.5
		c-0.3-1.6,0.6-3.4,2-4l2.8-1.3c1.4-0.7,2.2-2.4,1.6-3.9l-2.8-7.6c-0.6-1.5-2.2-2.4-3.8-1.9l-3,0.8c-1.5,0.4-3.4-0.4-4.2-1.8
		c-1.8-3-3.8-5.9-6-8.6c-1-1.2-1.2-3.2-0.2-4.5l1.8-2.5c0.9-1.3,0.7-3.2-0.6-4.2l-6.2-5.2c-1.2-1-3.1-0.9-4.2,0.2l-2.2,2.2
		c-1.1,1.1-3.1,1.3-4.5,0.6c-3-1.7-6.2-3.2-9.5-4.4c-1.5-0.5-2.6-2.2-2.5-3.8l0.3-3.1c0.1-1.6-1-3.1-2.6-3.4l-8-1.4
		c-1.6-0.3-3.2,0.8-3.6,2.3l-0.8,3c-0.4,1.5-2,2.7-3.6,2.7c-3.6,0-7.1,0.3-10.5,0.9c-1.6,0.3-3.4-0.6-4-2l-1.3-2.8
		c-0.7-1.4-2.4-2.2-3.9-1.6l-7.6,2.8c-1.5,0.5-2.4,2.2-1.9,3.8l0.8,3c0.4,1.5-0.4,3.4-1.8,4.2c-3,1.8-5.9,3.8-8.6,6
		c-1.2,1-3.2,1.2-4.5,0.3l-2.6-1.8c-1.3-0.9-3.2-0.7-4.2,0.6l-5.2,6.2c-1,1.2-0.9,3.1,0.2,4.2l2.2,2.2c1.1,1.1,1.3,3.1,0.6,4.5
		c-1.7,3-3.2,6.2-4.4,9.5c-0.5,1.5-2.2,2.6-3.8,2.5l-3.1-0.3c-1.6-0.1-3.1,1-3.4,2.6l-1.4,8c-0.3,1.6,0.8,3.2,2.3,3.6l3,0.8
		c1.5,0.4,2.7,2,2.7,3.6c0,3.6,0.3,7.1,0.9,10.5c0.3,1.6-0.6,3.4-2,4l-2.8,1.3c-1.4,0.7-2.2,2.4-1.6,3.9l2.8,7.6
		c0.5,1.5,2.2,2.4,3.8,2l3-0.8c1.5-0.4,3.4,0.4,4.2,1.8c1.8,3,3.8,5.9,6.1,8.6c1,1.2,1.2,3.2,0.2,4.5l-1.8,2.5
		c-0.9,1.3-0.7,3.2,0.5,4.2l6.2,5.2c1.2,1,3.1,0.9,4.2-0.2l2.2-2.2c1.1-1.1,3.1-1.3,4.5-0.5c3,1.7,6.2,3.2,9.5,4.4
		c1.5,0.5,2.6,2.2,2.5,3.8l-0.3,3.1c-0.1,1.6,1,3.1,2.6,3.4l8,1.4c1.6,0.3,3.2-0.8,3.6-2.3l0.8-3c0.4-1.5,2-2.7,3.6-2.7
		c3.6,0,7.1-0.3,10.5-0.9c1.6-0.3,3.4,0.6,4,2l1.3,2.8c0.7,1.4,2.4,2.2,3.9,1.6l7.6-2.8c1.5-0.5,2.4-2.2,2-3.8l-0.8-3
		c-0.4-1.5,0.4-3.4,1.8-4.2c3-1.8,5.9-3.8,8.6-6c1.2-1,3.2-1.2,4.5-0.3l2.5,1.8c1.3,0.9,3.2,0.7,4.2-0.6l5.2-6.2
		c1-1.2,0.9-3.1-0.2-4.2l-2.2-2.2c-1.1-1.1-1.3-3.1-0.5-4.5c1.7-3,3.2-6.2,4.4-9.5c0.5-1.5,2.2-2.6,3.8-2.5l3.1,0.3
		c1.6,0.1,3.1-1,3.4-2.6L324.2,130.7z M248.6,162.4c-21.9-3.8-36.5-24.6-32.7-46.5c3.8-21.9,24.6-36.5,46.5-32.7
		c21.9,3.8,36.5,24.6,32.7,46.5C291.2,151.6,270.4,166.2,248.6,162.4z"/>
</g>
<path id="XMLID_319_" class="st5" d="M99.6,89.8c0,0.2,0,0.3-0.1,0.4v0c-0.1,0.2-0.2,0.3-0.4,0.5c-1.3,1-2.8,1.5-4.4,1.5
	c-2,0-3.7-0.7-5.1-2c-1.4-1.4-2.1-3-2.1-5c0-2,0.7-3.6,2.1-5c1.4-1.4,3.1-2.1,5.1-2.1c1.7,0,3.2,0.5,4.5,1.5
	c0.2,0.2,0.4,0.4,0.4,0.7c0,0.3,0,0.6-0.2,0.8c-0.2,0.2-0.4,0.4-0.7,0.4c-0.3,0-0.6,0-0.8-0.2c-0.9-0.7-2-1.1-3.3-1.1
	c-1.3,0-2.4,0.5-3.3,1.4c-1,0.9-1.5,2.1-1.5,3.4s0.5,2.5,1.5,3.4c1,0.9,2.2,1.4,3.5,1.4c0.9,0,1.8-0.2,2.7-0.7v-2.7h-2.8
	c-0.3,0-0.6-0.1-0.8-0.3c-0.2-0.2-0.3-0.5-0.3-0.8c0-0.3,0.1-0.6,0.3-0.8c0.2-0.2,0.5-0.3,0.8-0.3h3.9c0.3,0,0.6,0.1,0.8,0.3
	c0.2,0.2,0.3,0.5,0.3,0.8V89.8z"/>
<path id="XMLID_321_" class="st5" d="M104.9,83.7c0.3-0.4,0.7-0.6,1.2-0.8s1-0.3,1.4-0.3c0.4,0,0.7,0.1,0.9,0.3s0.3,0.4,0.3,0.7
	c0,0.3-0.1,0.5-0.3,0.7c-0.2,0.2-0.4,0.3-0.7,0.3c-1.2,0-2.2,1-2.9,2.9v3.7c0,0.3-0.1,0.5-0.3,0.7c-0.2,0.2-0.5,0.3-0.8,0.3
	s-0.5-0.1-0.7-0.3c-0.2-0.2-0.3-0.4-0.3-0.7v-7.7c0-0.3,0.1-0.5,0.3-0.7s0.4-0.3,0.7-0.3s0.5,0.1,0.8,0.3s0.3,0.4,0.3,0.7V83.7z"/>
<path id="XMLID_323_" class="st5" d="M110.7,90.8c-0.9-0.9-1.3-2.1-1.3-3.4s0.4-2.5,1.3-3.5s2-1.4,3.3-1.4c0.9,0,1.8,0.3,2.6,0.9
	c0.1-0.2,0.2-0.5,0.4-0.6c0.2-0.2,0.4-0.2,0.7-0.2s0.5,0.1,0.7,0.3c0.2,0.2,0.3,0.5,0.3,0.7v7.7c0,0.3-0.1,0.5-0.3,0.7
	c-0.2,0.2-0.4,0.3-0.7,0.3s-0.5-0.1-0.7-0.2c-0.2-0.2-0.3-0.4-0.4-0.6c-0.8,0.6-1.7,0.8-2.6,0.8C112.7,92.2,111.6,91.8,110.7,90.8z
	 M111.5,87.4c0,0.8,0.2,1.4,0.7,2s1.1,0.8,1.8,0.8s1.4-0.3,1.9-0.8c0.5-0.5,0.7-1.2,0.7-2c0-0.8-0.2-1.4-0.7-2
	c-0.5-0.5-1.1-0.8-1.8-0.8s-1.3,0.3-1.8,0.8C111.7,85.9,111.5,86.6,111.5,87.4z"/>
<path id="XMLID_326_" class="st5" d="M123.3,95.6c-0.2,0.2-0.5,0.3-0.8,0.3s-0.5-0.1-0.8-0.3c-0.2-0.2-0.3-0.5-0.3-0.7V83.5
	c0-0.3,0.1-0.5,0.3-0.7c0.2-0.2,0.4-0.3,0.7-0.3c0.3,0,0.5,0.1,0.7,0.2s0.3,0.3,0.4,0.6c0.8-0.5,1.7-0.8,2.7-0.8
	c1.3,0,2.4,0.5,3.3,1.4c0.9,1,1.4,2.1,1.4,3.5c0,1.3-0.5,2.5-1.4,3.4c-0.9,0.9-2,1.4-3.3,1.4c-1,0-1.9-0.3-2.6-0.8v3.4
	C123.7,95.1,123.6,95.4,123.3,95.6z M128.1,85.4c-0.5-0.5-1.1-0.8-1.9-0.8s-1.3,0.3-1.8,0.8c-0.5,0.5-0.8,1.2-0.8,2s0.3,1.4,0.8,1.9
	c0.5,0.5,1.1,0.8,1.8,0.8c0.7,0,1.3-0.3,1.9-0.8c0.5-0.5,0.8-1.2,0.8-1.9S128.6,86,128.1,85.4z"/>
<path id="XMLID_329_" class="st5" d="M135.3,91.9c-0.2,0.2-0.5,0.3-0.8,0.3s-0.5-0.1-0.8-0.3c-0.2-0.2-0.3-0.5-0.3-0.8V79.7
	c0-0.3,0.1-0.6,0.3-0.8c0.2-0.2,0.5-0.3,0.8-0.3c0.3,0,0.6,0.1,0.8,0.3c0.2,0.2,0.3,0.5,0.3,0.8V83c0.7-0.4,1.4-0.6,2.1-0.6
	c1.2,0,2.2,0.4,3,1.3c0.8,0.8,1.2,1.8,1.2,3v4.4c0,0.3-0.1,0.6-0.3,0.8c-0.2,0.2-0.5,0.3-0.8,0.3s-0.6-0.1-0.8-0.3
	c-0.2-0.2-0.3-0.5-0.3-0.8v-4.4c0-0.6-0.2-1.1-0.6-1.5c-0.4-0.4-0.9-0.6-1.5-0.6c-0.6,0-1.1,0.2-1.5,0.6c-0.4,0.4-0.6,0.9-0.6,1.5
	v4.4C135.6,91.5,135.5,91.7,135.3,91.9z"/>
<path id="XMLID_331_" class="st5" d="M146.5,79.6V80c0,0.3-0.1,0.6-0.3,0.8c-0.2,0.2-0.4,0.3-0.7,0.3s-0.5-0.1-0.8-0.3
	c-0.2-0.2-0.3-0.5-0.3-0.8v-0.4c0-0.3,0.1-0.5,0.3-0.7c0.2-0.2,0.5-0.3,0.8-0.3s0.5,0.1,0.7,0.3S146.5,79.3,146.5,79.6z M144.7,82.8
	c0.2-0.2,0.5-0.3,0.8-0.3c0.3,0,0.5,0.1,0.8,0.3c0.2,0.2,0.3,0.5,0.3,0.8v7.6c0,0.3-0.1,0.5-0.3,0.8c-0.2,0.2-0.4,0.3-0.7,0.3
	s-0.5-0.1-0.8-0.3c-0.2-0.2-0.3-0.5-0.3-0.7v-7.6C144.4,83.3,144.5,83,144.7,82.8z"/>
<path id="XMLID_334_" class="st5" d="M149.7,90.8c-1-1-1.5-2.1-1.5-3.4c0-1.3,0.5-2.5,1.5-3.4c1-0.9,2.1-1.4,3.5-1.4
	c1.1,0,2.2,0.4,3.1,1.1c0.2,0.2,0.4,0.4,0.4,0.7s0,0.5-0.2,0.8c-0.2,0.2-0.4,0.4-0.7,0.4c-0.3,0-0.5,0-0.8-0.2
	c-0.6-0.4-1.2-0.6-1.9-0.6c-0.7,0-1.4,0.3-1.9,0.8c-0.6,0.6-0.9,1.2-0.9,2s0.3,1.4,0.8,2s1.2,0.8,1.9,0.8c0.7,0,1.4-0.2,2-0.6
	c0.2-0.2,0.5-0.2,0.7-0.2c0.3,0,0.5,0.2,0.7,0.4s0.2,0.5,0.2,0.8c0,0.3-0.2,0.5-0.4,0.7c-1,0.7-2,1-3.1,1
	C151.8,92.2,150.7,91.8,149.7,90.8z"/>
<path id="XMLID_308_" class="st10" d="M229.5,119.7c-1.2,1.2-1.8,2.6-1.8,4.2s0.6,3,1.8,4.1c1.2,1.1,2.6,1.7,4.1,1.7
	c1.6,0,2.9-0.4,4-1.3c0.3-0.2,0.6-0.3,1-0.2c0.4,0,0.7,0.2,0.9,0.5c0.2,0.3,0.3,0.6,0.3,1c0,0.4-0.2,0.7-0.5,0.9
	c-1.6,1.2-3.4,1.9-5.5,1.9c-2.4,0-4.5-0.8-6.2-2.5c-1.7-1.7-2.6-3.7-2.6-6.1c0-2.4,0.9-4.4,2.6-6.1c1.7-1.7,3.8-2.5,6.2-2.6
	c2.1,0,3.9,0.6,5.5,1.9c0.3,0.2,0.5,0.5,0.5,0.9c0,0.4,0,0.7-0.3,1c-0.2,0.3-0.5,0.5-0.9,0.5s-0.7,0-1-0.3c-1.1-0.9-2.4-1.3-4-1.3
	S230.8,118.5,229.5,119.7z"/>
<path id="XMLID_310_" class="st10" d="M249.3,132.6c-1.6,0-3-0.6-4.1-1.8c-1.1-1.2-1.7-2.6-1.7-4.2c0-1.6,0.6-3.1,1.7-4.3
	s2.5-1.8,4.1-1.8s2.9,0.6,4,1.8c1.1,1.2,1.7,2.6,1.7,4.3s-0.6,3-1.7,4.1C252.2,132,250.9,132.6,249.3,132.6z M247,124
	c-0.6,0.7-0.9,1.5-0.9,2.5c0,1,0.3,1.8,0.9,2.5c0.6,0.6,1.4,0.9,2.3,0.9s1.6-0.3,2.3-0.9c0.6-0.7,0.9-1.6,0.9-2.5
	c0-1-0.3-1.8-0.9-2.5c-0.7-0.6-1.4-0.9-2.3-0.9S247.6,123.4,247,124z"/>
<path id="XMLID_313_" class="st10" d="M269.9,131.2c0,0.4-0.1,0.7-0.4,0.9s-0.6,0.4-0.9,0.4s-0.6-0.1-0.9-0.3
	c-0.2-0.2-0.4-0.4-0.4-0.7c-1,0.7-2.1,1-3.3,1c-1.6,0-3-0.6-4.1-1.8c-1.1-1.2-1.7-2.6-1.7-4.2s0.6-3.1,1.7-4.2
	c1.1-1.2,2.5-1.8,4.1-1.8c1.2,0,2.3,0.3,3.2,1V117c0-0.4,0.1-0.7,0.4-0.9c0.3-0.3,0.6-0.4,0.9-0.4s0.7,0.1,0.9,0.4
	c0.3,0.3,0.4,0.6,0.4,0.9V131.2z M264.1,129.9c0.9,0,1.6-0.3,2.3-1s0.9-1.5,0.9-2.4s-0.3-1.7-0.9-2.4s-1.4-1-2.3-1
	c-0.9,0-1.7,0.3-2.3,1s-0.9,1.5-0.9,2.4s0.3,1.7,0.9,2.4S263.2,129.9,264.1,129.9z"/>
<path id="XMLID_316_" class="st10" d="M285.7,126.2c0,0.4-0.1,0.6-0.3,0.9c-0.2,0.2-0.5,0.3-0.9,0.3h-7.6c0.1,0.7,0.4,1.2,0.8,1.6
	c0.5,0.6,1.3,0.9,2.2,1.1c1,0.1,1.8-0.1,2.6-0.6c0.2-0.3,0.6-0.4,1-0.4c0.4,0,0.7,0.1,0.8,0.3c0.4,0.5,0.4,1,0,1.6
	c-1.2,1.1-2.6,1.6-4.2,1.6c-1.7,0-3.1-0.6-4.2-1.8s-1.7-2.6-1.7-4.2c0-1.6,0.6-3.1,1.7-4.2c1.1-1.2,2.5-1.8,4.1-1.8
	c1.6,0,2.9,0.5,4,1.6c1.1,1,1.7,2.4,1.8,4V126.2z M279.9,122.8c-0.9,0-1.7,0.3-2.2,0.9c-0.6,0.5-0.9,1.1-1,1.7h6.8
	c-0.1-0.6-0.5-1.1-1.2-1.6C281.6,123.2,280.8,122.9,279.9,122.8z"/>
<path id="XMLID_285_" class="st2" d="M99.7,201c0.6,0.6,0.9,1.4,0.9,2.3s-0.3,1.6-0.9,2.3c-0.6,0.6-1.4,0.9-2.3,0.9h-1.9v3.3
	c0,0.2-0.1,0.4-0.2,0.6s-0.4,0.2-0.6,0.2s-0.4-0.1-0.6-0.2s-0.2-0.4-0.2-0.6v-8.9c0-0.2,0.1-0.4,0.2-0.6s0.4-0.2,0.6-0.2h2.7
	C98.3,200,99.1,200.3,99.7,201z M95.6,201.7v3.1h1.9c0.4,0,0.8-0.2,1.1-0.5c0.3-0.3,0.5-0.7,0.5-1.1c0-0.4-0.2-0.8-0.5-1.1
	c-0.3-0.3-0.7-0.5-1.1-0.5H95.6z"/>
<path id="XMLID_288_" class="st2" d="M103.9,210.3c-0.2,0.2-0.4,0.2-0.6,0.2c-0.2,0-0.4-0.1-0.6-0.2c-0.2-0.2-0.2-0.4-0.2-0.6v-8.9
	c0-0.2,0.1-0.4,0.2-0.6s0.4-0.2,0.6-0.2c0.2,0,0.4,0.1,0.6,0.2s0.2,0.4,0.2,0.6v2.6c0.6-0.3,1.1-0.4,1.6-0.4c0.9,0,1.7,0.3,2.3,1
	c0.6,0.6,1,1.4,1,2.3v3.4c0,0.2-0.1,0.4-0.2,0.6s-0.4,0.2-0.6,0.2s-0.4-0.1-0.6-0.2c-0.2-0.2-0.2-0.4-0.2-0.6v-3.4
	c0-0.4-0.2-0.8-0.5-1.1c-0.3-0.3-0.7-0.5-1.2-0.5c-0.4,0-0.8,0.2-1.1,0.5c-0.3,0.3-0.5,0.7-0.5,1.1v3.4
	C104.2,210,104.1,210.2,103.9,210.3z"/>
<path id="XMLID_290_" class="st2" d="M115,210.6c-1,0-1.9-0.4-2.6-1.1s-1.1-1.6-1.1-2.7c0-1,0.4-1.9,1.1-2.7
	c0.7-0.7,1.6-1.1,2.6-1.1s1.8,0.4,2.5,1.1s1,1.7,1,2.7s-0.4,1.9-1.1,2.6C116.9,210.2,116,210.6,115,210.6z M113.6,205.2
	c-0.4,0.4-0.5,0.9-0.5,1.6s0.2,1.2,0.5,1.6c0.4,0.4,0.9,0.6,1.4,0.6c0.6,0,1-0.2,1.4-0.6c0.4-0.4,0.6-1,0.6-1.6s-0.2-1.1-0.6-1.6
	c-0.4-0.4-0.9-0.6-1.4-0.6C114.5,204.7,114,204.9,113.6,205.2z"/>
<path id="XMLID_293_" class="st2" d="M123.7,203c0.2,0,0.4,0.1,0.6,0.2c0.2,0.2,0.2,0.4,0.2,0.6c0,0.2-0.1,0.4-0.2,0.6
	s-0.4,0.2-0.6,0.2h-0.4v4.2c0.2,0,0.4,0.1,0.6,0.2c0.2,0.2,0.2,0.4,0.2,0.6s-0.1,0.4-0.2,0.6c-0.2,0.2-0.4,0.2-0.6,0.2
	c-0.5,0-0.9-0.2-1.2-0.5c-0.3-0.3-0.5-0.7-0.5-1.2v-4.2h-0.4c-0.2,0-0.4-0.1-0.6-0.2c-0.2-0.2-0.2-0.4-0.2-0.6s0.1-0.4,0.2-0.6
	c0.2-0.2,0.4-0.2,0.6-0.2h0.4v-2.2c0-0.2,0.1-0.4,0.2-0.6s0.4-0.2,0.6-0.2s0.4,0.1,0.6,0.2c0.2,0.2,0.2,0.4,0.2,0.6v2.2H123.7z"/>
<path id="XMLID_295_" class="st2" d="M130.5,210.6c-1,0-1.9-0.4-2.6-1.1s-1.1-1.6-1.1-2.7c0-1,0.4-1.9,1.1-2.7
	c0.7-0.7,1.6-1.1,2.6-1.1s1.8,0.4,2.5,1.1s1,1.7,1,2.7s-0.4,1.9-1.1,2.6C132.3,210.2,131.5,210.6,130.5,210.6z M129,205.2
	c-0.4,0.4-0.5,0.9-0.5,1.6s0.2,1.2,0.5,1.6c0.4,0.4,0.9,0.6,1.4,0.6c0.6,0,1-0.2,1.4-0.6c0.4-0.4,0.6-1,0.6-1.6s-0.2-1.1-0.6-1.6
	c-0.4-0.4-0.9-0.6-1.4-0.6C129.9,204.7,129.4,204.9,129,205.2z"/>
<path id="XMLID_298_" class="st2" d="M141.2,203.9c0.2,0.1,0.3,0.3,0.3,0.5c0,0.2,0,0.4-0.1,0.6c-0.1,0.2-0.3,0.3-0.5,0.3
	c-0.2,0-0.4,0-0.6-0.1c-0.6-0.4-1-0.6-1.4-0.6c-0.4,0-0.7,0.1-0.9,0.3c-0.2,0.1-0.2,0.2-0.2,0.3s0,0.1,0,0.2c0,0,0.1,0.1,0.2,0.1
	c0.2,0.2,0.6,0.3,1.1,0.4l0,0h0c0.5,0.1,1,0.3,1.5,0.5c0.4,0.2,0.8,0.5,1,0.8c0.2,0.4,0.3,0.7,0.3,1c0,0.7-0.3,1.3-0.9,1.7
	c-0.6,0.4-1.2,0.6-2,0.6c-0.9,0-1.8-0.4-2.7-1c-0.2-0.1-0.3-0.3-0.3-0.5c0-0.2,0-0.4,0.2-0.6c0.1-0.2,0.3-0.3,0.5-0.3
	c0.2,0,0.4,0,0.6,0.2c0.5,0.5,1.1,0.7,1.7,0.7c0.4,0,0.7-0.1,1-0.3c0.2-0.2,0.3-0.3,0.3-0.4s0-0.2,0-0.2c0,0-0.1-0.1-0.2-0.2
	c-0.2-0.2-0.6-0.3-1.2-0.4h0c-0.5-0.1-1-0.2-1.4-0.4c-0.4-0.2-0.7-0.5-1-0.8c-0.2-0.3-0.3-0.6-0.3-0.9c0-0.7,0.3-1.2,0.9-1.7
	c0.5-0.4,1.2-0.6,1.9-0.6S140.4,203.3,141.2,203.9z"/>
<path id="XMLID_300_" class="st2" d="M145.4,210.3c-0.2,0.2-0.4,0.2-0.6,0.2c-0.2,0-0.4-0.1-0.6-0.2c-0.2-0.2-0.2-0.4-0.2-0.6v-8.9
	c0-0.2,0.1-0.4,0.2-0.6s0.4-0.2,0.6-0.2c0.2,0,0.4,0.1,0.6,0.2s0.2,0.4,0.2,0.6v2.6c0.6-0.3,1.1-0.4,1.6-0.4c0.9,0,1.7,0.3,2.3,1
	c0.6,0.6,1,1.4,1,2.3v3.4c0,0.2-0.1,0.4-0.2,0.6s-0.4,0.2-0.6,0.2s-0.4-0.1-0.6-0.2c-0.2-0.2-0.2-0.4-0.2-0.6v-3.4
	c0-0.4-0.2-0.8-0.5-1.1c-0.3-0.3-0.7-0.5-1.2-0.5c-0.4,0-0.8,0.2-1.1,0.5c-0.3,0.3-0.5,0.7-0.5,1.1v3.4
	C145.7,210,145.6,210.2,145.4,210.3z"/>
<path id="XMLID_302_" class="st2" d="M156.5,210.6c-1,0-1.9-0.4-2.6-1.1s-1.1-1.6-1.1-2.7c0-1,0.4-1.9,1.1-2.7
	c0.7-0.7,1.6-1.1,2.6-1.1s1.8,0.4,2.5,1.1s1,1.7,1,2.7s-0.4,1.9-1.1,2.6C158.4,210.2,157.5,210.6,156.5,210.6z M155.1,205.2
	c-0.4,0.4-0.5,0.9-0.5,1.6s0.2,1.2,0.5,1.6c0.4,0.4,0.9,0.6,1.4,0.6c0.6,0,1-0.2,1.4-0.6c0.4-0.4,0.6-1,0.6-1.6s-0.2-1.1-0.6-1.6
	c-0.4-0.4-0.9-0.6-1.4-0.6C156,204.7,155.5,204.9,155.1,205.2z"/>
<path id="XMLID_305_" class="st2" d="M164,213.1c-0.2,0.2-0.4,0.2-0.6,0.2c-0.2,0-0.4-0.1-0.6-0.2c-0.2-0.2-0.2-0.4-0.2-0.6v-8.7
	c0-0.2,0.1-0.4,0.2-0.6c0.2-0.2,0.3-0.2,0.6-0.2c0.2,0,0.4,0.1,0.6,0.2c0.2,0.1,0.2,0.3,0.3,0.4c0.6-0.4,1.3-0.6,2-0.6
	c1,0,1.9,0.4,2.6,1.1c0.7,0.7,1.1,1.6,1.1,2.7s-0.4,1.9-1.1,2.6c-0.7,0.7-1.6,1.1-2.6,1.1c-0.8,0-1.4-0.2-2-0.6v2.6
	C164.3,212.8,164.2,213,164,213.1z M167.7,205.3c-0.4-0.4-0.9-0.6-1.4-0.6c-0.6,0-1,0.2-1.4,0.6c-0.4,0.4-0.6,0.9-0.6,1.6
	c0,0.6,0.2,1.1,0.6,1.5c0.4,0.4,0.9,0.6,1.4,0.6s1-0.2,1.4-0.6c0.4-0.4,0.6-0.9,0.6-1.5C168.3,206.2,168.1,205.7,167.7,205.3z"/>
<path id="XMLID_275_" class="st2" d="M125.3,216.8c0.1,0.1,0.1,0.3,0,0.5l-3.4,8.2c-0.1,0.3-0.3,0.5-0.7,0.5s-0.5-0.1-0.7-0.4
	c-0.1-0.2-0.2-0.5-0.1-0.7l3-7.1h-3.6c-0.2,0-0.4-0.1-0.5-0.2c-0.2-0.2-0.2-0.3-0.2-0.5s0.1-0.4,0.2-0.5s0.3-0.2,0.5-0.2h4.7
	c0.1,0,0.2,0,0.4,0.1l0,0c0.1,0.1,0.2,0.1,0.2,0.2C125.3,216.7,125.3,216.7,125.3,216.8C125.3,216.8,125.3,216.8,125.3,216.8z"/>
<path id="XMLID_277_" class="st2" d="M127.3,220.9L127.3,220.9c-0.1-0.2-0.1-0.3,0-0.4l0.4-3.6c0-0.2,0.2-0.4,0.3-0.6
	c0.2-0.1,0.3-0.1,0.5-0.1h4.1c0.2,0,0.4,0.1,0.6,0.2c0.2,0.2,0.2,0.3,0.2,0.6c0,0.2-0.1,0.4-0.2,0.6c-0.2,0.2-0.3,0.2-0.6,0.2h-3.4
	l-0.2,1.4c0.3-0.1,0.6-0.1,0.9-0.1c0.9,0,1.8,0.3,2.4,1c0.7,0.7,1,1.5,1,2.4s-0.3,1.8-1,2.4c-0.7,0.7-1.5,1-2.4,1h0
	c-1,0-1.8-0.3-2.4-1c-0.2-0.1-0.2-0.3-0.2-0.5s0.1-0.4,0.2-0.6s0.3-0.2,0.6-0.2c0.2,0,0.4,0.1,0.6,0.2c0.4,0.4,0.8,0.6,1.3,0.6
	s1-0.2,1.3-0.6s0.5-0.8,0.5-1.3c0-0.5-0.2-1-0.5-1.3c-0.4-0.4-0.8-0.5-1.3-0.5s-1,0.2-1.3,0.5c-0.2,0.1-0.3,0.2-0.6,0.2
	c-0.3,0-0.5-0.1-0.6-0.3c0,0-0.1-0.1-0.1-0.1C127.3,221,127.3,220.9,127.3,220.9z"/>
<path id="XMLID_279_" class="st2" d="M139.4,220.4c-0.4,0.5-1,0.7-1.6,0.7s-1.2-0.2-1.6-0.7c-0.4-0.5-0.6-1.1-0.6-1.7v0
	c0-0.7,0.2-1.3,0.6-1.8c0.4-0.5,1-0.7,1.6-0.7c0.7,0,1.2,0.2,1.6,0.7s0.6,1.1,0.6,1.7v0C140,219.3,139.8,219.9,139.4,220.4z
	 M137,219.6c0.2,0.3,0.5,0.4,0.8,0.4s0.6-0.1,0.7-0.4c0.2-0.3,0.3-0.6,0.3-1v0c0-0.4-0.1-0.7-0.3-1c-0.2-0.3-0.5-0.4-0.8-0.4
	s-0.6,0.1-0.7,0.4c-0.2,0.3-0.3,0.6-0.3,1v0C136.7,219,136.8,219.4,137,219.6z M137.5,226c-0.2,0-0.3-0.1-0.4-0.2
	c-0.1-0.1-0.2-0.2-0.2-0.4c0-0.1,0-0.3,0.1-0.4l6.3-8.6c0.1-0.2,0.2-0.2,0.4-0.2s0.3,0.1,0.4,0.2c0.1,0.1,0.2,0.2,0.2,0.4
	s0,0.3-0.1,0.4l-6.3,8.6C137.8,225.9,137.7,226,137.5,226z M145.2,225.3c-0.4,0.5-1,0.7-1.6,0.7c-0.7,0-1.2-0.2-1.6-0.7
	c-0.4-0.5-0.6-1.1-0.6-1.7v0c0-0.7,0.2-1.3,0.6-1.8c0.4-0.5,1-0.7,1.6-0.7c0.7,0,1.2,0.2,1.6,0.7c0.4,0.5,0.6,1.1,0.6,1.7v0
	C145.8,224.2,145.6,224.8,145.2,225.3z M142.8,224.6c0.2,0.3,0.5,0.4,0.8,0.4s0.6-0.1,0.7-0.4s0.3-0.6,0.3-1v0c0-0.4-0.1-0.7-0.3-1
	c-0.2-0.3-0.5-0.4-0.8-0.4s-0.6,0.1-0.7,0.4c-0.2,0.3-0.3,0.6-0.3,1v0C142.5,224,142.6,224.3,142.8,224.6z"/>
<path id="XMLID_240_" class="st11" d="M82.7,301.5c0-0.2,0.1-0.4,0.2-0.5c0.1-0.1,0.3-0.2,0.5-0.2c0.2,0,0.4,0.1,0.5,0.2
	c0.1,0.1,0.2,0.3,0.2,0.5v7.4c0,0.2-0.1,0.4-0.2,0.5c-0.1,0.1-0.3,0.2-0.5,0.2c-0.2,0-0.4-0.1-0.5-0.2c-0.1-0.1-0.2-0.3-0.2-0.5
	V301.5z"/>
<path id="XMLID_242_" class="st11" d="M85.7,301.5c0-0.2,0.1-0.4,0.2-0.5c0.1-0.1,0.3-0.2,0.5-0.2s0.4,0.1,0.5,0.2
	c0.1,0.1,0.2,0.3,0.2,0.5v7.4c0,0.2-0.1,0.4-0.2,0.5c-0.1,0.1-0.3,0.2-0.5,0.2s-0.4-0.1-0.5-0.2c-0.1-0.1-0.2-0.3-0.2-0.5V301.5z"/>
<path id="XMLID_244_" class="st11" d="M88.2,301.5c0-0.2,0.1-0.4,0.2-0.5c0.1-0.1,0.3-0.2,0.5-0.2s0.4,0.1,0.5,0.2
	c0.1,0.1,0.2,0.3,0.2,0.5v7.4c0,0.2-0.1,0.4-0.2,0.5c-0.1,0.1-0.3,0.2-0.5,0.2s-0.4-0.1-0.5-0.2c-0.1-0.1-0.2-0.3-0.2-0.5V301.5z"/>
<path id="XMLID_246_" class="st11" d="M95.8,306.9c0,0.7-0.3,1.3-0.8,1.8c-0.5,0.5-1.1,0.8-1.9,0.8s-1.3-0.3-1.8-0.8
	c-0.5-0.5-0.8-1.1-0.8-1.8v-3c0-0.2,0.1-0.3,0.2-0.5c0.1-0.1,0.3-0.2,0.5-0.2s0.3,0.1,0.5,0.2c0.1,0.1,0.2,0.3,0.2,0.5v3
	c0,0.4,0.1,0.7,0.4,0.9c0.2,0.2,0.5,0.4,0.9,0.4s0.7-0.1,0.9-0.4c0.3-0.2,0.4-0.5,0.4-0.9v-3c0-0.2,0.1-0.3,0.2-0.5
	c0.1-0.1,0.3-0.2,0.5-0.2s0.3,0.1,0.5,0.2c0.1,0.1,0.2,0.3,0.2,0.5V306.9z"/>
<path id="XMLID_248_" class="st11" d="M101.6,304c0.2,0.1,0.2,0.2,0.3,0.4s0,0.3-0.1,0.5c-0.1,0.2-0.2,0.2-0.4,0.3
	c-0.2,0-0.3,0-0.5-0.1c-0.5-0.3-0.9-0.5-1.2-0.5s-0.6,0.1-0.7,0.2c-0.1,0.1-0.2,0.2-0.2,0.2c0,0.1,0,0.1,0,0.2s0.1,0.1,0.1,0.1
	c0.2,0.1,0.5,0.2,0.9,0.3l0,0h0c0.4,0.1,0.8,0.2,1.2,0.4c0.4,0.2,0.6,0.4,0.8,0.7s0.3,0.6,0.3,0.9c0,0.6-0.3,1.1-0.8,1.5
	c-0.5,0.3-1,0.5-1.6,0.5c-0.8,0-1.5-0.3-2.2-0.9c-0.1-0.1-0.2-0.3-0.2-0.4c0-0.2,0-0.3,0.1-0.5c0.1-0.2,0.3-0.2,0.5-0.3
	c0.2,0,0.4,0,0.5,0.2c0.5,0.4,0.9,0.6,1.4,0.6c0.3,0,0.6-0.1,0.9-0.2c0.2-0.1,0.2-0.2,0.2-0.3s0-0.1,0-0.2c0,0-0.1-0.1-0.2-0.2
	c-0.2-0.1-0.5-0.3-1-0.4h0c-0.4-0.1-0.8-0.2-1.2-0.4c-0.3-0.2-0.6-0.4-0.8-0.7c-0.1-0.2-0.2-0.5-0.2-0.8c0-0.5,0.2-1,0.7-1.4
	c0.5-0.3,1-0.5,1.5-0.5C100.3,303.3,100.9,303.5,101.6,304z"/>
<path id="XMLID_250_" class="st11" d="M105.3,303.3c0.2,0,0.4,0.1,0.5,0.2c0.1,0.1,0.2,0.3,0.2,0.5s-0.1,0.4-0.2,0.5
	s-0.3,0.2-0.5,0.2H105v3.5c0.2,0,0.4,0.1,0.5,0.2c0.1,0.1,0.2,0.3,0.2,0.5c0,0.2-0.1,0.4-0.2,0.5c-0.1,0.1-0.3,0.2-0.5,0.2
	c-0.4,0-0.7-0.1-1-0.4c-0.3-0.3-0.4-0.6-0.4-1v-3.5h-0.4c-0.2,0-0.4-0.1-0.5-0.2c-0.1-0.1-0.2-0.3-0.2-0.5c0-0.2,0.1-0.4,0.2-0.5
	c0.1-0.1,0.3-0.2,0.5-0.2h0.4v-1.8c0-0.2,0.1-0.4,0.2-0.5c0.1-0.1,0.3-0.2,0.5-0.2c0.2,0,0.4,0.1,0.5,0.2c0.1,0.1,0.2,0.3,0.2,0.5
	v1.8H105.3z"/>
<path id="XMLID_252_" class="st11" d="M109,304c0.2-0.2,0.5-0.4,0.8-0.5s0.6-0.2,0.9-0.2c0.3,0,0.5,0.1,0.6,0.2
	c0.1,0.1,0.2,0.3,0.2,0.5c0,0.2-0.1,0.3-0.2,0.5c-0.1,0.1-0.3,0.2-0.5,0.2c-0.8,0-1.4,0.6-1.8,1.9v2.4c0,0.2-0.1,0.3-0.2,0.5
	c-0.1,0.1-0.3,0.2-0.5,0.2c-0.2,0-0.3-0.1-0.5-0.2c-0.1-0.1-0.2-0.3-0.2-0.5v-4.9c0-0.2,0.1-0.3,0.2-0.5c0.1-0.1,0.3-0.2,0.5-0.2
	c0.2,0,0.3,0.1,0.5,0.2C108.9,303.6,109,303.8,109,304L109,304z"/>
<path id="XMLID_254_" class="st11" d="M112.7,308.6c-0.6-0.6-0.9-1.3-0.9-2.2c0-0.9,0.3-1.6,0.9-2.2c0.6-0.6,1.3-0.9,2.1-0.9
	c0.6,0,1.1,0.2,1.7,0.6c0-0.2,0.1-0.3,0.2-0.4c0.1-0.1,0.3-0.2,0.4-0.2s0.3,0.1,0.5,0.2c0.1,0.1,0.2,0.3,0.2,0.5v4.9
	c0,0.2-0.1,0.3-0.2,0.5c-0.1,0.1-0.3,0.2-0.5,0.2s-0.3,0-0.4-0.2c-0.1-0.1-0.2-0.2-0.2-0.4c-0.5,0.4-1.1,0.5-1.7,0.5
	C114,309.5,113.2,309.2,112.7,308.6z M113.2,306.4c0,0.5,0.2,0.9,0.5,1.3c0.3,0.3,0.7,0.5,1.2,0.5s0.9-0.2,1.2-0.5
	c0.3-0.3,0.5-0.8,0.5-1.3s-0.2-0.9-0.5-1.3c-0.3-0.4-0.7-0.5-1.2-0.5s-0.9,0.2-1.2,0.5C113.3,305.5,113.2,305.9,113.2,306.4z"/>
<path id="XMLID_257_" class="st11" d="M121.7,303.3c0.2,0,0.4,0.1,0.5,0.2c0.1,0.1,0.2,0.3,0.2,0.5s-0.1,0.4-0.2,0.5
	s-0.3,0.2-0.5,0.2h-0.3v3.5c0.2,0,0.4,0.1,0.5,0.2c0.1,0.1,0.2,0.3,0.2,0.5c0,0.2-0.1,0.4-0.2,0.5c-0.1,0.1-0.3,0.2-0.5,0.2
	c-0.4,0-0.7-0.1-1-0.4c-0.3-0.3-0.4-0.6-0.4-1v-3.5h-0.4c-0.2,0-0.4-0.1-0.5-0.2c-0.1-0.1-0.2-0.3-0.2-0.5c0-0.2,0.1-0.4,0.2-0.5
	c0.1-0.1,0.3-0.2,0.5-0.2h0.4v-1.8c0-0.2,0.1-0.4,0.2-0.5c0.1-0.1,0.3-0.2,0.5-0.2c0.2,0,0.4,0.1,0.5,0.2c0.1,0.1,0.2,0.3,0.2,0.5
	v1.8H121.7z"/>
<path id="XMLID_259_" class="st11" d="M126.7,309.6c-0.8,0-1.6-0.3-2.1-0.9c-0.6-0.6-0.9-1.4-0.9-2.2c0-0.9,0.3-1.6,0.9-2.2
	c0.6-0.6,1.3-0.9,2.1-0.9c0.8,0,1.5,0.3,2.1,0.9c0.6,0.6,0.9,1.4,0.9,2.2s-0.3,1.6-0.9,2.2C128.3,309.3,127.6,309.6,126.7,309.6z
	 M125.5,305.1c-0.3,0.4-0.5,0.8-0.5,1.3s0.2,1,0.5,1.3c0.3,0.3,0.7,0.5,1.2,0.5s0.9-0.2,1.2-0.5c0.3-0.4,0.5-0.8,0.5-1.3
	s-0.2-1-0.5-1.3c-0.4-0.3-0.8-0.5-1.2-0.5S125.9,304.8,125.5,305.1z"/>
<path id="XMLID_262_" class="st11" d="M132.5,304c0.2-0.2,0.5-0.4,0.8-0.5s0.6-0.2,0.9-0.2c0.3,0,0.5,0.1,0.6,0.2
	c0.1,0.1,0.2,0.3,0.2,0.5c0,0.2-0.1,0.3-0.2,0.5c-0.1,0.1-0.3,0.2-0.5,0.2c-0.8,0-1.4,0.6-1.8,1.9v2.4c0,0.2-0.1,0.3-0.2,0.5
	c-0.1,0.1-0.3,0.2-0.5,0.2c-0.2,0-0.3-0.1-0.5-0.2c-0.1-0.1-0.2-0.3-0.2-0.5v-4.9c0-0.2,0.1-0.3,0.2-0.5c0.1-0.1,0.3-0.2,0.5-0.2
	c0.2,0,0.3,0.1,0.5,0.2C132.5,303.6,132.5,303.8,132.5,304L132.5,304z"/>
<path id="XMLID_264_" class="st11" d="M96.9,321.9l0-0.7c0-1,0.2-2,0.5-2.8c0.4-0.8,0.9-1.5,1.5-1.9c0.6-0.4,1.2-0.6,1.9-0.6
	c0.2,0,0.4,0.1,0.5,0.2c0.1,0.1,0.2,0.3,0.2,0.5c0,0.2,0,0.4-0.2,0.5c-0.1,0.1-0.3,0.2-0.5,0.2c-0.4,0-0.8,0.1-1.2,0.4
	s-0.7,0.6-0.9,1.2c0.4-0.2,0.8-0.3,1.2-0.3c0.8,0,1.6,0.3,2.2,0.9s0.9,1.3,0.9,2.1s-0.3,1.5-0.9,2.1s-1.3,0.9-2.1,0.9
	s-1.5-0.3-2.1-0.8C97.3,323.3,97,322.6,96.9,321.9z M98.8,322.7c0.3,0.3,0.7,0.5,1.2,0.5c0.5,0,0.8-0.2,1.2-0.5s0.5-0.7,0.5-1.2
	s-0.2-0.8-0.5-1.2s-0.7-0.5-1.2-0.5s-0.8,0.2-1.2,0.5s-0.5,0.7-0.5,1.2S98.4,322.4,98.8,322.7z"/>
<path id="XMLID_267_" class="st11" d="M104.3,320L104.3,320c0-0.2-0.1-0.2,0-0.3l0.4-3.2c0-0.2,0.1-0.4,0.3-0.5
	c0.2-0.1,0.3-0.1,0.4-0.1h3.7c0.2,0,0.4,0.1,0.5,0.2s0.2,0.3,0.2,0.5s-0.1,0.4-0.2,0.5s-0.3,0.2-0.5,0.2H106l-0.2,1.2
	c0.3-0.1,0.6-0.1,0.8-0.1c0.9,0,1.6,0.3,2.2,0.9c0.6,0.6,0.9,1.3,0.9,2.2s-0.3,1.6-0.9,2.2c-0.6,0.6-1.3,0.9-2.2,0.9h0
	c-0.9,0-1.6-0.3-2.2-0.9c-0.1-0.1-0.2-0.3-0.2-0.5c0-0.2,0.1-0.4,0.2-0.5s0.3-0.2,0.5-0.2c0.2,0,0.4,0.1,0.5,0.2
	c0.3,0.3,0.7,0.5,1.2,0.5s0.9-0.2,1.2-0.5c0.3-0.3,0.5-0.7,0.5-1.2s-0.2-0.9-0.5-1.2c-0.3-0.3-0.7-0.5-1.2-0.5
	c-0.5,0-0.9,0.2-1.2,0.5c-0.1,0.1-0.3,0.2-0.5,0.2c-0.2,0-0.4-0.1-0.6-0.3c0,0-0.1-0.1-0.1-0.1C104.4,320.1,104.4,320,104.3,320z"/>
<path id="XMLID_269_" class="st11" d="M114.7,319.5c-0.4,0.4-0.9,0.7-1.5,0.7c-0.6,0-1.1-0.2-1.5-0.6c-0.4-0.4-0.6-1-0.6-1.6v0
	c0-0.6,0.2-1.2,0.6-1.6c0.4-0.4,0.9-0.7,1.5-0.7s1.1,0.2,1.5,0.6c0.4,0.4,0.6,1,0.6,1.6v0C115.3,318.6,115.1,319.1,114.7,319.5z
	 M112.5,318.9c0.2,0.2,0.4,0.4,0.7,0.4s0.5-0.1,0.7-0.4c0.2-0.2,0.3-0.5,0.3-0.9v0c0-0.4-0.1-0.7-0.3-0.9c-0.2-0.2-0.4-0.4-0.7-0.4
	s-0.5,0.1-0.7,0.4c-0.2,0.2-0.3,0.5-0.3,0.9v0C112.2,318.3,112.3,318.6,112.5,318.9z M113,324.6c-0.2,0-0.3,0-0.4-0.1
	c-0.1-0.1-0.1-0.2-0.1-0.3s0-0.2,0.1-0.3l5.7-7.9c0.1-0.2,0.2-0.2,0.4-0.2s0.3,0,0.4,0.1s0.1,0.2,0.1,0.3s0,0.2-0.1,0.3l-5.7,7.9
	C113.3,324.6,113.1,324.6,113,324.6z M120,324c-0.4,0.4-0.9,0.7-1.5,0.7c-0.6,0-1.1-0.2-1.5-0.6c-0.4-0.4-0.6-1-0.6-1.6v0
	c0-0.6,0.2-1.2,0.6-1.6c0.4-0.4,0.9-0.7,1.5-0.7s1.1,0.2,1.5,0.6c0.4,0.4,0.6,1,0.6,1.6v0C120.6,323,120.4,323.6,120,324z
	 M117.8,323.3c0.2,0.2,0.4,0.4,0.7,0.4c0.3,0,0.5-0.1,0.7-0.4c0.2-0.2,0.3-0.5,0.3-0.9v0c0-0.4-0.1-0.7-0.3-0.9
	c-0.2-0.2-0.4-0.4-0.7-0.4c-0.3,0-0.5,0.1-0.7,0.4c-0.2,0.2-0.3,0.5-0.3,0.9v0C117.5,322.8,117.6,323.1,117.8,323.3z"/>
<path id="XMLID_220_" class="st9" d="M327.4,198.7c-0.2,0.2-0.4,0.2-0.6,0.2s-0.4-0.1-0.6-0.2c-0.2-0.2-0.2-0.4-0.2-0.6v-8.7
	c0-0.2,0.1-0.4,0.2-0.6c0.2-0.2,0.3-0.2,0.6-0.2s0.4,0.1,0.6,0.2c0.2,0.2,0.2,0.4,0.2,0.6v3.5h3.8v-3.5c0-0.2,0.1-0.4,0.2-0.6
	c0.2-0.2,0.3-0.2,0.6-0.2c0.2,0,0.4,0.1,0.6,0.2c0.2,0.2,0.2,0.4,0.2,0.6v8.7c0,0.2-0.1,0.4-0.2,0.6c-0.2,0.2-0.4,0.2-0.6,0.2
	c-0.2,0-0.4-0.1-0.6-0.2c-0.2-0.2-0.2-0.4-0.2-0.6v-3.5h-3.8v3.5C327.6,198.3,327.5,198.5,327.4,198.7z"/>
<path id="XMLID_222_" class="st9" d="M343.4,188.8c0.2,0.2,0.2,0.4,0.2,0.6c0,0.2-0.1,0.4-0.2,0.6s-0.4,0.2-0.6,0.2h-2.4v7.9
	c0,0.2-0.1,0.4-0.2,0.6c-0.2,0.2-0.4,0.2-0.6,0.2s-0.4-0.1-0.6-0.2c-0.2-0.2-0.2-0.4-0.2-0.6v-7.9h-2.3c-0.2,0-0.4-0.1-0.6-0.2
	c-0.2-0.2-0.2-0.4-0.2-0.6c0-0.2,0.1-0.4,0.2-0.6c0.2-0.2,0.3-0.2,0.6-0.2h6.3C343,188.6,343.2,188.7,343.4,188.8z"/>
<path id="XMLID_224_" class="st9" d="M350.5,195.2L350.5,195.2c-0.3,0-0.5-0.1-0.7-0.3l-2.1-3v6.2c0,0.2-0.1,0.4-0.2,0.6
	c-0.2,0.2-0.4,0.2-0.6,0.2s-0.4-0.1-0.6-0.2c-0.2-0.2-0.2-0.4-0.2-0.6v-8.7c0-0.2,0.1-0.4,0.2-0.6c0.2-0.2,0.3-0.2,0.6-0.2h0
	c0.3,0,0.5,0.1,0.7,0.3l2.9,4.1l2.9-4.1c0.2-0.2,0.4-0.3,0.7-0.3h0c0.2,0,0.4,0.1,0.6,0.3c0.2,0.2,0.2,0.3,0.2,0.6v8.7
	c0,0.2-0.1,0.4-0.2,0.6c-0.2,0.2-0.4,0.2-0.6,0.2c-0.2,0-0.4-0.1-0.6-0.2s-0.2-0.4-0.2-0.6v-6.2l-2.1,3
	C351,195.1,350.8,195.2,350.5,195.2z"/>
<path id="XMLID_226_" class="st9" d="M359.3,198.9c-0.2,0-0.4-0.1-0.6-0.2c-0.2-0.2-0.2-0.4-0.2-0.6v-8.7c0-0.2,0.1-0.4,0.2-0.6
	c0.2-0.2,0.3-0.2,0.6-0.2s0.4,0.1,0.6,0.2c0.2,0.2,0.2,0.4,0.2,0.6v7.9h4c0.2,0,0.4,0.1,0.6,0.2c0.2,0.2,0.2,0.4,0.2,0.6
	c0,0.2-0.1,0.4-0.2,0.6c-0.2,0.2-0.4,0.2-0.6,0.2H359.3z"/>
<path id="XMLID_228_" class="st9" d="M339.5,206.1l0,0.6c0,0.8-0.1,1.6-0.4,2.2c-0.3,0.7-0.7,1.2-1.2,1.5c-0.4,0.3-0.9,0.5-1.5,0.5
	c-0.2,0-0.3,0-0.4-0.1c-0.1-0.1-0.2-0.2-0.2-0.4c0-0.1,0-0.3,0.1-0.4c0.1-0.1,0.2-0.2,0.4-0.2c0.3,0,0.7-0.1,1-0.3
	c0.3-0.2,0.5-0.5,0.7-0.9c-0.3,0.1-0.6,0.2-1,0.2c-0.7,0-1.2-0.2-1.7-0.7c-0.5-0.5-0.7-1-0.7-1.7c0-0.7,0.2-1.2,0.7-1.7
	c0.5-0.5,1-0.7,1.7-0.7c0.7,0,1.2,0.2,1.7,0.6S339.4,205.5,339.5,206.1z M338,205.4c-0.3-0.3-0.6-0.4-0.9-0.4
	c-0.4,0-0.7,0.1-0.9,0.4c-0.3,0.3-0.4,0.6-0.4,0.9s0.1,0.7,0.4,0.9c0.3,0.3,0.6,0.4,0.9,0.4s0.7-0.1,0.9-0.4
	c0.3-0.3,0.4-0.6,0.4-0.9S338.3,205.7,338,205.4z"/>
<path id="XMLID_231_" class="st9" d="M341.1,207.4c0-0.9,0.2-1.7,0.7-2.4c0.5-0.7,1.1-1.1,1.9-1.1c0.4,0,0.7,0.1,1,0.3
	c0.3,0.2,0.6,0.5,0.8,0.8c0.4,0.7,0.7,1.5,0.7,2.4s-0.2,1.7-0.7,2.4c-0.2,0.3-0.5,0.6-0.8,0.8c-0.3,0.2-0.7,0.3-1,0.3
	c-0.7,0-1.4-0.4-1.9-1.1C341.3,209.2,341.1,208.4,341.1,207.4z M344.5,209.2c0.3-0.5,0.5-1.1,0.5-1.8c0-0.7-0.2-1.3-0.5-1.8
	c-0.3-0.4-0.6-0.6-0.9-0.6c-0.3,0-0.7,0.2-1,0.6c-0.3,0.5-0.5,1.1-0.5,1.8c0,0.7,0.2,1.3,0.5,1.8c0.3,0.4,0.6,0.6,0.9,0.6
	C343.9,209.8,344.3,209.6,344.5,209.2z"/>
<path id="XMLID_234_" class="st9" d="M350.9,206.9c-0.3,0.3-0.7,0.5-1.2,0.5s-0.9-0.2-1.2-0.5c-0.3-0.3-0.5-0.8-0.5-1.3v0
	c0-0.5,0.2-0.9,0.5-1.3c0.3-0.3,0.7-0.5,1.2-0.5s0.9,0.2,1.2,0.5c0.3,0.3,0.5,0.8,0.5,1.3v0C351.4,206.1,351.2,206.6,350.9,206.9z
	 M349.2,206.4c0.1,0.2,0.3,0.3,0.6,0.3s0.4-0.1,0.5-0.3s0.2-0.4,0.2-0.7v0c0-0.3-0.1-0.5-0.2-0.7c-0.1-0.2-0.3-0.3-0.6-0.3
	c-0.2,0-0.4,0.1-0.5,0.3s-0.2,0.4-0.2,0.7v0C349,205.9,349,206.2,349.2,206.4z M349.6,211c-0.1,0-0.2,0-0.3-0.1
	c-0.1-0.1-0.1-0.2-0.1-0.3c0-0.1,0-0.2,0.1-0.3l4.6-6.3c0.1-0.1,0.2-0.2,0.3-0.2c0.1,0,0.2,0,0.3,0.1c0.1,0.1,0.1,0.2,0.1,0.3
	s0,0.2-0.1,0.3l-4.6,6.3C349.8,210.9,349.7,211,349.6,211z M355.1,210.5c-0.3,0.3-0.7,0.5-1.2,0.5s-0.9-0.2-1.2-0.5
	s-0.5-0.8-0.5-1.3v0c0-0.5,0.2-0.9,0.5-1.3c0.3-0.3,0.7-0.5,1.2-0.5s0.9,0.2,1.2,0.5s0.5,0.8,0.5,1.3v0
	C355.6,209.7,355.4,210.1,355.1,210.5z M353.4,210c0.1,0.2,0.3,0.3,0.6,0.3c0.2,0,0.4-0.1,0.5-0.3c0.1-0.2,0.2-0.4,0.2-0.7v0
	c0-0.3-0.1-0.5-0.2-0.7c-0.1-0.2-0.3-0.3-0.6-0.3s-0.4,0.1-0.5,0.3s-0.2,0.4-0.2,0.7v0C353.2,209.5,353.3,209.8,353.4,210z"/>
<path id="XMLID_203_" class="st8" d="M244.3,281.1c-1.8,1.8-2.7,4-2.7,6.4c0,2.5,0.9,4.5,2.7,6.3c1.8,1.7,3.9,2.6,6.3,2.6
	c2.4,0,4.4-0.7,6.1-2c0.4-0.3,0.9-0.4,1.5-0.4c0.6,0.1,1.1,0.3,1.4,0.8c0.3,0.5,0.5,1,0.4,1.5s-0.3,1-0.8,1.4
	c-2.4,1.9-5.2,2.8-8.4,2.8c-3.6,0-6.8-1.3-9.4-3.8c-2.6-2.6-3.9-5.6-4-9.3c0-3.6,1.3-6.7,4-9.2c2.6-2.6,5.8-3.9,9.4-3.9
	c3.2,0,6,0.9,8.4,2.8c0.4,0.4,0.7,0.8,0.8,1.4c0.1,0.6-0.1,1.1-0.4,1.5s-0.8,0.7-1.4,0.8c-0.6,0.1-1.1-0.1-1.5-0.4
	c-1.6-1.3-3.6-2-6-2C248.3,278.5,246.1,279.3,244.3,281.1z"/>
<path id="XMLID_205_" class="st8" d="M281.6,292.8c0-1.8-2.1-3.2-6.4-4h-0.1c-1.9-0.4-3.5-0.9-4.9-1.5c-1.4-0.7-2.4-1.5-3-2.5
	c-0.6-1-1-2.1-1-3.2c0-2.1,0.9-3.8,2.8-5.2s4-2,6.4-2c1.1,0,2.2,0.2,3.3,0.5c1.1,0.4,1.9,0.7,2.5,1s1.3,0.8,2.2,1.3
	c0.4,0.3,0.7,0.7,0.8,1.2s0,1-0.3,1.4c-0.3,0.4-0.7,0.7-1.2,0.8c-0.5,0.1-1,0-1.4-0.3c-1.1-0.8-2.2-1.4-3-1.7
	c-0.9-0.4-1.8-0.6-2.8-0.6c-1.6,0-2.9,0.4-3.9,1.1c-1,0.8-1.5,1.6-1.5,2.4c0,0.4,0.1,0.8,0.3,1.1c0.7,1.1,2.5,2,5.5,2.5h0.1
	c2,0.4,3.7,0.9,5,1.5c3,1.5,4.5,3.5,4.5,6.1c0,2.3-1,4.1-3,5.6c-2,1.4-4.3,2.2-6.9,2.2c-3.2,0-6.3-1.2-9.3-3.6
	c-0.4-0.3-0.6-0.7-0.7-1.3c-0.1-0.5,0.1-1,0.4-1.4c0.3-0.4,0.7-0.6,1.3-0.7c0.5-0.1,1,0.1,1.4,0.4c2.3,1.9,4.6,2.8,7,2.8
	c1.8,0,3.3-0.4,4.4-1.3C281,294.6,281.6,293.7,281.6,292.8z"/>
<path id="XMLID_207_" class="st8" d="M305.9,292.8c0-1.8-2.1-3.2-6.4-4h-0.1c-1.9-0.4-3.5-0.9-4.9-1.5c-1.4-0.7-2.4-1.5-3-2.5
	c-0.6-1-1-2.1-1-3.2c0-2.1,0.9-3.8,2.8-5.2s4-2,6.4-2c1.1,0,2.2,0.2,3.3,0.5c1.1,0.4,1.9,0.7,2.5,1s1.3,0.8,2.2,1.3
	c0.4,0.3,0.7,0.7,0.8,1.2s0,1-0.3,1.4c-0.3,0.4-0.7,0.7-1.2,0.8c-0.5,0.1-1,0-1.4-0.3c-1.1-0.8-2.2-1.4-3-1.7
	c-0.9-0.4-1.8-0.6-2.8-0.6c-1.6,0-2.9,0.4-3.9,1.1c-1,0.8-1.5,1.6-1.5,2.4c0,0.4,0.1,0.8,0.3,1.1c0.7,1.1,2.5,2,5.5,2.5h0.1
	c2,0.4,3.7,0.9,5,1.5c3,1.5,4.5,3.5,4.5,6.1c0,2.3-1,4.1-3,5.6c-2,1.4-4.3,2.2-6.9,2.2c-3.2,0-6.3-1.2-9.3-3.6
	c-0.4-0.3-0.6-0.7-0.7-1.3c-0.1-0.5,0.1-1,0.4-1.4c0.3-0.4,0.7-0.6,1.3-0.7c0.5-0.1,1,0.1,1.4,0.4c2.3,1.9,4.6,2.8,7,2.8
	c1.8,0,3.3-0.4,4.4-1.3C305.3,294.6,305.9,293.7,305.9,292.8z"/>
<path id="XMLID_209_" class="st8" d="M266.3,310.6l0,0.8c0,1.2-0.2,2.2-0.6,3.1c-0.4,0.9-1,1.6-1.7,2.1c-0.6,0.4-1.3,0.6-2.1,0.7
	c-0.2,0-0.4-0.1-0.6-0.2s-0.2-0.3-0.3-0.5s0.1-0.4,0.2-0.6c0.1-0.2,0.3-0.2,0.5-0.3c0.5,0,0.9-0.2,1.4-0.4s0.8-0.7,1-1.3
	c-0.4,0.2-0.9,0.3-1.3,0.3c-0.9,0-1.7-0.3-2.4-1c-0.7-0.7-1-1.5-1-2.4c0-0.9,0.3-1.7,1-2.4c0.7-0.7,1.4-1,2.4-1
	c0.9,0,1.7,0.3,2.3,0.9C265.9,309,266.2,309.7,266.3,310.6z M264.3,309.6c-0.4-0.4-0.8-0.5-1.3-0.5c-0.5,0-1,0.2-1.3,0.5
	s-0.5,0.8-0.5,1.3s0.2,0.9,0.5,1.3c0.4,0.4,0.8,0.5,1.3,0.5c0.5,0,0.9-0.2,1.3-0.5c0.4-0.4,0.5-0.8,0.5-1.3S264.6,310,264.3,309.6z"
	/>
<path id="XMLID_212_" class="st8" d="M268.6,312.2L268.6,312.2c-0.1-0.2-0.1-0.3,0-0.4l0.4-3.6c0-0.2,0.2-0.4,0.3-0.6
	c0.2-0.1,0.3-0.1,0.5-0.1h4.1c0.2,0,0.4,0.1,0.6,0.2c0.2,0.2,0.2,0.3,0.2,0.6c0,0.2-0.1,0.4-0.2,0.6c-0.2,0.2-0.3,0.2-0.6,0.2h-3.4
	l-0.2,1.4c0.3-0.1,0.6-0.1,0.9-0.1c1,0,1.8,0.3,2.5,1c0.7,0.7,1,1.5,1,2.5c0,1-0.3,1.8-1,2.5c-0.7,0.7-1.5,1-2.5,1h0
	c-1,0-1.8-0.3-2.4-1c-0.2-0.1-0.2-0.3-0.2-0.6c0-0.2,0.1-0.4,0.2-0.6c0.2-0.2,0.3-0.2,0.6-0.2s0.4,0.1,0.6,0.2
	c0.4,0.4,0.8,0.6,1.3,0.6s1-0.2,1.3-0.6c0.4-0.4,0.6-0.8,0.6-1.3c0-0.5-0.2-1-0.5-1.3c-0.4-0.4-0.8-0.5-1.4-0.5
	c-0.5,0-1,0.2-1.3,0.5c-0.2,0.1-0.3,0.2-0.6,0.2c-0.3,0-0.5-0.1-0.6-0.3c0,0-0.1-0.1-0.1-0.1C268.6,312.3,268.6,312.2,268.6,312.2z"
	/>
<path id="XMLID_214_" class="st8" d="M280.8,311.7c-0.4,0.5-1,0.7-1.7,0.7s-1.2-0.2-1.7-0.7c-0.4-0.5-0.6-1.1-0.6-1.8v0
	c0-0.7,0.2-1.3,0.7-1.8c0.4-0.5,1-0.7,1.7-0.7s1.2,0.2,1.7,0.7c0.4,0.5,0.6,1.1,0.6,1.8v0C281.5,310.6,281.3,311.2,280.8,311.7z
	 M278.4,310.9c0.2,0.3,0.5,0.4,0.8,0.4c0.3,0,0.6-0.1,0.8-0.4c0.2-0.3,0.3-0.6,0.3-1v0c0-0.4-0.1-0.7-0.3-1s-0.5-0.4-0.8-0.4
	c-0.3,0-0.6,0.1-0.8,0.4s-0.3,0.6-0.3,1v0C278.1,310.3,278.2,310.6,278.4,310.9z M278.9,317.4c-0.2,0-0.3-0.1-0.4-0.2
	s-0.2-0.2-0.2-0.4c0-0.1,0-0.3,0.1-0.4l6.4-8.8c0.1-0.2,0.2-0.3,0.4-0.3c0.2,0,0.3,0.1,0.4,0.2s0.2,0.2,0.2,0.4c0,0.1,0,0.3-0.1,0.4
	l-6.4,8.8C279.3,317.3,279.1,317.4,278.9,317.4z M286.7,316.7c-0.4,0.5-1,0.7-1.7,0.7s-1.2-0.2-1.7-0.7c-0.4-0.5-0.6-1.1-0.6-1.8v0
	c0-0.7,0.2-1.3,0.7-1.8c0.4-0.5,1-0.7,1.7-0.7s1.2,0.2,1.7,0.7s0.6,1.1,0.6,1.8v0C287.4,315.6,287.2,316.2,286.7,316.7z
	 M284.3,315.9c0.2,0.3,0.5,0.4,0.8,0.4c0.3,0,0.6-0.1,0.8-0.4c0.2-0.3,0.3-0.6,0.3-1v0c0-0.4-0.1-0.7-0.3-1s-0.5-0.4-0.8-0.4
	c-0.3,0-0.6,0.1-0.8,0.4s-0.3,0.6-0.3,1v0C284,315.3,284.1,315.7,284.3,315.9z"/>
<path id="XMLID_168_" class="st5" d="M147.8,377.4c0.1-0.2,0.2-0.3,0.4-0.4c0.2-0.1,0.4,0,0.6,0c0.2,0.1,0.3,0.2,0.4,0.4
	c0.1,0.4,0.4,0.7,0.7,1s0.7,0.4,1.2,0.4c0.5,0,0.9-0.2,1.3-0.6s0.6-0.8,0.6-1.3v-5.5c0-0.2,0.1-0.4,0.2-0.5c0.2-0.1,0.3-0.2,0.5-0.2
	c0.2,0,0.4,0.1,0.5,0.2s0.2,0.3,0.2,0.5v5.5c0,1-0.3,1.8-1,2.4c-0.7,0.7-1.5,1-2.4,1c-0.8,0-1.4-0.2-2-0.7c-0.6-0.4-1-1-1.2-1.7
	C147.7,377.7,147.7,377.5,147.8,377.4z"/>
<path id="XMLID_170_" class="st5" d="M156.1,379.3c-0.6-0.7-1-1.5-1-2.4s0.3-1.8,1-2.5c0.6-0.7,1.4-1,2.4-1c0.7,0,1.3,0.2,1.8,0.6
	c0-0.2,0.1-0.3,0.3-0.4c0.1-0.1,0.3-0.2,0.5-0.2s0.4,0.1,0.5,0.2c0.1,0.1,0.2,0.3,0.2,0.5v5.5c0,0.2-0.1,0.4-0.2,0.5
	c-0.1,0.1-0.3,0.2-0.5,0.2s-0.3-0.1-0.5-0.2c-0.1-0.1-0.2-0.3-0.3-0.4c-0.6,0.4-1.2,0.6-1.8,0.6C157.5,380.3,156.7,380,156.1,379.3z
	 M156.6,376.9c0,0.6,0.2,1,0.5,1.4c0.3,0.4,0.8,0.6,1.3,0.6c0.5,0,1-0.2,1.3-0.6c0.3-0.4,0.5-0.8,0.5-1.4s-0.2-1-0.5-1.4
	s-0.8-0.6-1.3-0.6c-0.5,0-1,0.2-1.3,0.6S156.6,376.3,156.6,376.9z"/>
<path id="XMLID_173_" class="st5" d="M166,380.3c-0.2-0.1-0.2-0.1-0.3-0.2c0-0.1,0-0.1,0-0.1c0,0-0.1,0-0.1-0.1l-2.2-5.4
	c-0.1-0.2-0.1-0.4,0-0.5s0.2-0.3,0.4-0.4c0.2-0.1,0.3-0.1,0.5,0s0.3,0.2,0.4,0.4l1.6,3.8l1.6-3.8c0.1-0.2,0.2-0.3,0.4-0.4
	s0.4-0.1,0.6,0s0.3,0.2,0.4,0.4s0.1,0.4,0,0.5l-2.3,5.4c0,0,0,0.1-0.1,0.1s0,0-0.1,0.1s0,0.1-0.1,0.1s-0.1,0.1-0.1,0.1
	c0,0,0,0-0.1,0h0v0c0,0-0.1,0-0.1,0h0c0,0-0.1,0-0.1,0s-0.1,0-0.1,0h0C166.1,380.3,166.1,380.3,166,380.3L166,380.3L166,380.3z"/>
<path id="XMLID_175_" class="st5" d="M171.4,379.3c-0.6-0.7-1-1.5-1-2.4s0.3-1.8,1-2.5c0.6-0.7,1.4-1,2.4-1c0.7,0,1.3,0.2,1.8,0.6
	c0-0.2,0.1-0.3,0.3-0.4c0.1-0.1,0.3-0.2,0.5-0.2s0.4,0.1,0.5,0.2c0.1,0.1,0.2,0.3,0.2,0.5v5.5c0,0.2-0.1,0.4-0.2,0.5
	c-0.1,0.1-0.3,0.2-0.5,0.2s-0.3-0.1-0.5-0.2c-0.1-0.1-0.2-0.3-0.3-0.4c-0.6,0.4-1.2,0.6-1.8,0.6C172.8,380.3,172,380,171.4,379.3z
	 M171.9,376.9c0,0.6,0.2,1,0.5,1.4c0.3,0.4,0.8,0.6,1.3,0.6c0.5,0,1-0.2,1.3-0.6c0.3-0.4,0.5-0.8,0.5-1.4s-0.2-1-0.5-1.4
	s-0.8-0.6-1.3-0.6c-0.5,0-1,0.2-1.3,0.6S171.9,376.3,171.9,376.9z"/>
<path id="XMLID_178_" class="st5" d="M184.9,377.4c0-0.7-0.8-1.2-2.4-1.5h0c-0.7-0.1-1.3-0.3-1.9-0.6c-0.5-0.2-0.9-0.6-1.2-1
	c-0.2-0.4-0.4-0.8-0.4-1.2c0-0.8,0.4-1.5,1.1-2s1.5-0.8,2.4-0.8c0.4,0,0.8,0.1,1.2,0.2c0.4,0.1,0.7,0.3,1,0.4
	c0.2,0.1,0.5,0.3,0.8,0.5c0.2,0.1,0.3,0.3,0.3,0.5s0,0.4-0.1,0.5c-0.1,0.2-0.3,0.3-0.5,0.3s-0.4,0-0.5-0.1c-0.4-0.3-0.8-0.5-1.2-0.7
	c-0.3-0.1-0.7-0.2-1.1-0.2c-0.6,0-1.1,0.1-1.5,0.4c-0.4,0.3-0.6,0.6-0.6,0.9c0,0.2,0,0.3,0.1,0.4c0.3,0.4,1,0.7,2.1,1h0
	c0.8,0.2,1.4,0.4,1.9,0.6c1.1,0.6,1.7,1.3,1.7,2.3c0,0.9-0.4,1.6-1.1,2.1c-0.8,0.5-1.6,0.8-2.6,0.8c-1.2,0-2.4-0.5-3.6-1.4
	c-0.1-0.1-0.2-0.3-0.3-0.5c0-0.2,0-0.4,0.1-0.5c0.1-0.1,0.3-0.2,0.5-0.3c0.2,0,0.4,0,0.5,0.2c0.9,0.7,1.8,1.1,2.6,1.1
	c0.7,0,1.3-0.2,1.7-0.5C184.7,378.1,184.9,377.7,184.9,377.4z"/>
<path id="XMLID_180_" class="st5" d="M188.2,379.3c-0.7-0.7-1-1.5-1-2.4s0.3-1.8,1-2.4c0.7-0.7,1.5-1,2.5-1c0.8,0,1.5,0.3,2.2,0.8
	c0.2,0.1,0.2,0.3,0.3,0.5s0,0.4-0.1,0.5s-0.3,0.3-0.5,0.3c-0.2,0-0.4,0-0.5-0.2c-0.4-0.3-0.9-0.4-1.4-0.4s-1,0.2-1.4,0.6
	c-0.4,0.4-0.6,0.9-0.6,1.4s0.2,1,0.6,1.4c0.4,0.4,0.9,0.6,1.4,0.6c0.5,0,1-0.1,1.4-0.4c0.1-0.1,0.3-0.2,0.5-0.1
	c0.2,0,0.4,0.1,0.5,0.3s0.2,0.3,0.1,0.5c0,0.2-0.1,0.4-0.3,0.5c-0.7,0.5-1.4,0.7-2.2,0.7C189.7,380.3,188.9,380,188.2,379.3z"/>
<path id="XMLID_182_" class="st5" d="M196.3,374.2c0.2-0.3,0.5-0.5,0.9-0.6c0.4-0.2,0.7-0.2,1-0.2s0.5,0.1,0.7,0.2
	c0.1,0.1,0.2,0.3,0.2,0.5c0,0.2-0.1,0.4-0.2,0.5c-0.1,0.1-0.3,0.2-0.5,0.2c-0.9,0-1.5,0.7-2,2.1v2.6c0,0.2-0.1,0.4-0.2,0.5
	s-0.3,0.2-0.5,0.2s-0.4-0.1-0.5-0.2c-0.1-0.1-0.2-0.3-0.2-0.5v-5.5c0-0.2,0.1-0.4,0.2-0.5c0.1-0.1,0.3-0.2,0.5-0.2s0.4,0.1,0.5,0.2
	S196.3,373.9,196.3,374.2L196.3,374.2z"/>
<path id="XMLID_184_" class="st5" d="M201.7,371.4v0.3c0,0.2-0.1,0.4-0.2,0.5c-0.1,0.1-0.3,0.2-0.5,0.2s-0.4-0.1-0.5-0.2
	c-0.1-0.1-0.2-0.3-0.2-0.5v-0.3c0-0.2,0.1-0.4,0.2-0.5s0.3-0.2,0.5-0.2s0.4,0.1,0.5,0.2C201.7,371,201.7,371.2,201.7,371.4z
	 M200.5,373.6c0.1-0.1,0.3-0.2,0.5-0.2c0.2,0,0.4,0.1,0.5,0.2c0.1,0.1,0.2,0.3,0.2,0.5v5.4c0,0.2-0.1,0.4-0.2,0.5
	c-0.1,0.1-0.3,0.2-0.5,0.2s-0.4-0.1-0.5-0.2c-0.1-0.1-0.2-0.3-0.2-0.5v-5.4C200.2,373.9,200.3,373.8,200.5,373.6z"/>
<path id="XMLID_187_" class="st5" d="M204.7,382.7c-0.2,0.2-0.3,0.2-0.5,0.2c-0.2,0-0.4-0.1-0.5-0.2c-0.1-0.2-0.2-0.3-0.2-0.5v-8.1
	c0-0.2,0.1-0.4,0.2-0.5c0.1-0.1,0.3-0.2,0.5-0.2c0.2,0,0.4,0.1,0.5,0.2c0.1,0.1,0.2,0.2,0.3,0.4c0.6-0.4,1.2-0.6,1.9-0.6
	c0.9,0,1.7,0.3,2.4,1c0.7,0.7,1,1.5,1,2.5s-0.3,1.8-1,2.4c-0.7,0.7-1.4,1-2.4,1c-0.7,0-1.3-0.2-1.9-0.6v2.4
	C205,382.4,204.9,382.6,204.7,382.7z M208.1,375.5c-0.4-0.4-0.8-0.6-1.3-0.6c-0.5,0-1,0.2-1.3,0.6c-0.4,0.4-0.5,0.9-0.5,1.4
	s0.2,1,0.5,1.3c0.4,0.4,0.8,0.6,1.3,0.6c0.5,0,1-0.2,1.3-0.6c0.4-0.4,0.5-0.8,0.5-1.4C208.7,376.4,208.5,375.9,208.1,375.5z"/>
<path id="XMLID_190_" class="st5" d="M214.2,373.4c0.2,0,0.4,0.1,0.5,0.2c0.2,0.1,0.2,0.3,0.2,0.5s-0.1,0.4-0.2,0.5
	c-0.2,0.2-0.3,0.2-0.5,0.2h-0.3v3.9c0.2,0,0.4,0.1,0.5,0.2c0.1,0.2,0.2,0.3,0.2,0.5s-0.1,0.4-0.2,0.5c-0.1,0.1-0.3,0.2-0.5,0.2
	c-0.4,0-0.8-0.2-1.1-0.5c-0.3-0.3-0.5-0.7-0.5-1.1v-3.9H212c-0.2,0-0.4-0.1-0.5-0.2c-0.1-0.1-0.2-0.3-0.2-0.5s0.1-0.4,0.2-0.5
	c0.1-0.1,0.3-0.2,0.5-0.2h0.4v-2c0-0.2,0.1-0.4,0.2-0.5c0.2-0.1,0.3-0.2,0.5-0.2c0.2,0,0.4,0.1,0.5,0.2c0.1,0.1,0.2,0.3,0.2,0.5v2
	H214.2z"/>
<path id="XMLID_192_" class="st5" d="M171.6,391.1l0-0.6c0-0.9,0.2-1.7,0.5-2.5s0.8-1.3,1.3-1.7c0.5-0.3,1-0.5,1.7-0.5
	c0.2,0,0.3,0,0.4,0.2c0.1,0.1,0.2,0.3,0.2,0.4c0,0.2,0,0.3-0.2,0.4s-0.3,0.2-0.4,0.2c-0.4,0-0.7,0.1-1.1,0.3c-0.3,0.2-0.6,0.6-0.8,1
	c0.3-0.1,0.7-0.2,1.1-0.2c0.7,0,1.4,0.3,1.9,0.8c0.5,0.5,0.8,1.1,0.8,1.9s-0.3,1.4-0.8,1.9c-0.5,0.5-1.1,0.8-1.9,0.8
	c-0.7,0-1.3-0.2-1.8-0.7C171.9,392.4,171.6,391.8,171.6,391.1z M173.2,391.9c0.3,0.3,0.6,0.4,1,0.4c0.4,0,0.7-0.1,1-0.4
	c0.3-0.3,0.4-0.6,0.4-1s-0.1-0.7-0.4-1c-0.3-0.3-0.6-0.4-1-0.4c-0.4,0-0.7,0.1-1,0.4c-0.3,0.3-0.4,0.6-0.4,1
	S172.9,391.6,173.2,391.9z"/>
<path id="XMLID_195_" class="st5" d="M178.1,389.5L178.1,389.5c0-0.1,0-0.2,0-0.3l0.3-2.8c0-0.2,0.1-0.3,0.3-0.4
	c0.1-0.1,0.3-0.1,0.4-0.1h3.2c0.2,0,0.3,0.1,0.4,0.2s0.2,0.3,0.2,0.4c0,0.2-0.1,0.3-0.2,0.4s-0.3,0.2-0.4,0.2h-2.7l-0.1,1.1
	c0.2-0.1,0.5-0.1,0.7-0.1c0.8,0,1.4,0.3,1.9,0.8c0.5,0.5,0.8,1.2,0.8,1.9c0,0.8-0.3,1.4-0.8,1.9s-1.2,0.8-1.9,0.8h0
	c-0.8,0-1.4-0.3-1.9-0.8c-0.1-0.1-0.2-0.3-0.2-0.4c0-0.2,0.1-0.3,0.2-0.4c0.1-0.1,0.3-0.2,0.4-0.2c0.2,0,0.3,0.1,0.4,0.2
	c0.3,0.3,0.6,0.4,1.1,0.4c0.4,0,0.8-0.1,1.1-0.4c0.3-0.3,0.4-0.6,0.4-1.1c0-0.4-0.1-0.8-0.4-1c-0.3-0.3-0.6-0.4-1.1-0.4
	c-0.4,0-0.8,0.1-1.1,0.4c-0.1,0.1-0.3,0.2-0.4,0.2c-0.2,0-0.4-0.1-0.5-0.2C178.2,389.6,178.2,389.6,178.1,389.5
	C178.1,389.6,178.1,389.5,178.1,389.5z"/>
<path id="XMLID_197_" class="st5" d="M187.2,389.1c-0.3,0.4-0.8,0.6-1.3,0.6s-1-0.2-1.3-0.6c-0.3-0.4-0.5-0.8-0.5-1.4v0
	c0-0.5,0.2-1,0.5-1.4c0.3-0.4,0.8-0.6,1.3-0.6c0.5,0,1,0.2,1.3,0.6c0.3,0.4,0.5,0.8,0.5,1.4v0C187.7,388.3,187.5,388.7,187.2,389.1z
	 M185.3,388.5c0.2,0.2,0.4,0.3,0.6,0.3s0.4-0.1,0.6-0.3s0.2-0.5,0.2-0.8v0c0-0.3-0.1-0.6-0.2-0.8c-0.2-0.2-0.4-0.3-0.6-0.3
	s-0.4,0.1-0.6,0.3s-0.2,0.5-0.2,0.8v0C185,388,185.1,388.3,185.3,388.5z M185.7,393.6c-0.1,0-0.3,0-0.3-0.1s-0.1-0.2-0.1-0.3
	s0-0.2,0.1-0.3l5-6.9c0.1-0.1,0.2-0.2,0.3-0.2c0.1,0,0.3,0,0.3,0.1c0.1,0.1,0.1,0.2,0.1,0.3c0,0.1,0,0.2-0.1,0.3l-5,6.9
	C185.9,393.5,185.8,393.6,185.7,393.6z M191.8,393c-0.3,0.4-0.8,0.6-1.3,0.6s-1-0.2-1.3-0.6c-0.3-0.4-0.5-0.8-0.5-1.4v0
	c0-0.5,0.2-1,0.5-1.4c0.3-0.4,0.8-0.6,1.3-0.6s1,0.2,1.3,0.6s0.5,0.8,0.5,1.4v0C192.3,392.2,192.2,392.7,191.8,393z M189.9,392.4
	c0.2,0.2,0.4,0.3,0.6,0.3s0.4-0.1,0.6-0.3c0.1-0.2,0.2-0.5,0.2-0.8v0c0-0.3-0.1-0.6-0.2-0.8c-0.2-0.2-0.4-0.3-0.6-0.3
	c-0.2,0-0.4,0.1-0.6,0.3c-0.2,0.2-0.2,0.5-0.2,0.8v0C189.7,392,189.8,392.2,189.9,392.4z"/>
<path id="XMLID_149_" class="st4" d="M354.7,361.3c0-0.7-0.8-1.2-2.4-1.5h0c-0.7-0.1-1.3-0.3-1.8-0.6c-0.5-0.2-0.9-0.6-1.1-0.9
	s-0.4-0.8-0.4-1.2c0-0.8,0.3-1.4,1-1.9c0.7-0.5,1.5-0.8,2.4-0.8c0.4,0,0.8,0.1,1.2,0.2s0.7,0.3,0.9,0.4s0.5,0.3,0.8,0.5
	c0.2,0.1,0.3,0.3,0.3,0.4c0,0.2,0,0.4-0.1,0.5s-0.3,0.3-0.4,0.3c-0.2,0-0.4,0-0.5-0.1c-0.4-0.3-0.8-0.5-1.1-0.7
	c-0.3-0.1-0.7-0.2-1-0.2c-0.6,0-1.1,0.1-1.5,0.4c-0.4,0.3-0.6,0.6-0.6,0.9c0,0.2,0,0.3,0.1,0.4c0.3,0.4,0.9,0.7,2,0.9h0
	c0.8,0.2,1.4,0.3,1.9,0.6c1.1,0.6,1.7,1.3,1.7,2.3c0,0.8-0.4,1.5-1.1,2.1s-1.6,0.8-2.6,0.8c-1.2,0-2.3-0.5-3.5-1.4
	c-0.1-0.1-0.2-0.3-0.3-0.5c0-0.2,0-0.4,0.1-0.5s0.3-0.2,0.5-0.3c0.2,0,0.4,0,0.5,0.2c0.9,0.7,1.7,1.1,2.6,1c0.7,0,1.2-0.2,1.6-0.5
	C354.5,362,354.7,361.7,354.7,361.3z"/>
<path id="XMLID_151_" class="st4" d="M360.3,357c-0.7,0.7-1,1.5-1,2.4s0.3,1.7,1,2.3s1.5,1,2.3,1s1.6-0.2,2.3-0.7
	c0.2-0.1,0.3-0.2,0.6-0.1c0.2,0,0.4,0.1,0.5,0.3c0.1,0.2,0.2,0.4,0.1,0.6c0,0.2-0.1,0.4-0.3,0.5c-0.9,0.7-1.9,1.1-3.1,1.1
	c-1.4,0-2.5-0.5-3.5-1.4c-1-1-1.5-2.1-1.5-3.4c0-1.3,0.5-2.5,1.5-3.4c1-1,2.1-1.4,3.5-1.4c1.2,0,2.2,0.4,3.1,1.1
	c0.2,0.1,0.3,0.3,0.3,0.5c0,0.2,0,0.4-0.2,0.6s-0.3,0.3-0.5,0.3c-0.2,0-0.4,0-0.6-0.1c-0.6-0.5-1.4-0.7-2.2-0.7
	C361.7,356,361,356.3,360.3,357z"/>
<path id="XMLID_153_" class="st4" d="M374.1,361.3c0-0.7-0.8-1.2-2.4-1.5h0c-0.7-0.1-1.3-0.3-1.8-0.6c-0.5-0.2-0.9-0.6-1.1-0.9
	s-0.4-0.8-0.4-1.2c0-0.8,0.3-1.4,1-1.9c0.7-0.5,1.5-0.8,2.4-0.8c0.4,0,0.8,0.1,1.2,0.2s0.7,0.3,0.9,0.4s0.5,0.3,0.8,0.5
	c0.2,0.1,0.3,0.3,0.3,0.4c0,0.2,0,0.4-0.1,0.5s-0.3,0.3-0.4,0.3c-0.2,0-0.4,0-0.5-0.1c-0.4-0.3-0.8-0.5-1.1-0.7
	c-0.3-0.1-0.7-0.2-1-0.2c-0.6,0-1.1,0.1-1.5,0.4c-0.4,0.3-0.6,0.6-0.6,0.9c0,0.2,0,0.3,0.1,0.4c0.3,0.4,0.9,0.7,2,0.9h0
	c0.8,0.2,1.4,0.3,1.9,0.6c1.1,0.6,1.7,1.3,1.7,2.3c0,0.8-0.4,1.5-1.1,2.1s-1.6,0.8-2.6,0.8c-1.2,0-2.3-0.5-3.5-1.4
	c-0.1-0.1-0.2-0.3-0.3-0.5c0-0.2,0-0.4,0.1-0.5s0.3-0.2,0.5-0.3c0.2,0,0.4,0,0.5,0.2c0.9,0.7,1.7,1.1,2.6,1c0.7,0,1.2-0.2,1.6-0.5
	C373.9,362,374.1,361.7,374.1,361.3z"/>
<path id="XMLID_155_" class="st4" d="M383.2,361.3c0-0.7-0.8-1.2-2.4-1.5h0c-0.7-0.1-1.3-0.3-1.8-0.6c-0.5-0.2-0.9-0.6-1.1-0.9
	s-0.4-0.8-0.4-1.2c0-0.8,0.3-1.4,1-1.9c0.7-0.5,1.5-0.8,2.4-0.8c0.4,0,0.8,0.1,1.2,0.2s0.7,0.3,0.9,0.4s0.5,0.3,0.8,0.5
	c0.2,0.1,0.3,0.3,0.3,0.4c0,0.2,0,0.4-0.1,0.5s-0.3,0.3-0.4,0.3c-0.2,0-0.4,0-0.5-0.1c-0.4-0.3-0.8-0.5-1.1-0.7
	c-0.3-0.1-0.7-0.2-1-0.2c-0.6,0-1.1,0.1-1.5,0.4c-0.4,0.3-0.6,0.6-0.6,0.9c0,0.2,0,0.3,0.1,0.4c0.3,0.4,0.9,0.7,2,0.9h0
	c0.8,0.2,1.4,0.3,1.9,0.6c1.1,0.6,1.7,1.3,1.7,2.3c0,0.8-0.4,1.5-1.1,2.1s-1.6,0.8-2.6,0.8c-1.2,0-2.3-0.5-3.5-1.4
	c-0.1-0.1-0.2-0.3-0.3-0.5c0-0.2,0-0.4,0.1-0.5s0.3-0.2,0.5-0.3c0.2,0,0.4,0,0.5,0.2c0.9,0.7,1.7,1.1,2.6,1c0.7,0,1.2-0.2,1.6-0.5
	C383,362,383.2,361.7,383.2,361.3z"/>
<path id="XMLID_157_" class="st4" d="M358.5,370.9L358.5,370.9c0-0.1,0-0.1,0-0.2l0.2-2.1c0-0.1,0.1-0.2,0.2-0.3
	c0.1-0.1,0.2-0.1,0.3-0.1h2.4c0.1,0,0.2,0,0.3,0.1s0.1,0.2,0.1,0.3c0,0.1,0,0.2-0.1,0.3s-0.2,0.1-0.3,0.1h-2l-0.1,0.8
	c0.2,0,0.4-0.1,0.5-0.1c0.5,0,1,0.2,1.4,0.6c0.4,0.4,0.6,0.9,0.6,1.4c0,0.5-0.2,1-0.6,1.4s-0.9,0.6-1.4,0.6h0c-0.6,0-1-0.2-1.4-0.6
	c-0.1-0.1-0.1-0.2-0.1-0.3c0-0.1,0-0.2,0.1-0.3s0.2-0.1,0.3-0.1c0.1,0,0.2,0,0.3,0.1c0.2,0.2,0.5,0.3,0.8,0.3c0.3,0,0.6-0.1,0.8-0.3
	c0.2-0.2,0.3-0.5,0.3-0.8s-0.1-0.6-0.3-0.8s-0.5-0.3-0.8-0.3s-0.6,0.1-0.8,0.3c-0.1,0.1-0.2,0.1-0.3,0.1c-0.1,0-0.3-0.1-0.4-0.2
	C358.5,371,358.5,370.9,358.5,370.9C358.5,370.9,358.5,370.9,358.5,370.9z"/>
<path id="XMLID_159_" class="st4" d="M363.3,371c0-0.8,0.2-1.4,0.5-1.9c0.4-0.6,0.9-0.9,1.5-0.9c0.3,0,0.6,0.1,0.8,0.2
	c0.3,0.2,0.5,0.4,0.6,0.6c0.4,0.5,0.5,1.2,0.5,1.9s-0.2,1.4-0.5,1.9c-0.2,0.3-0.4,0.5-0.7,0.6c-0.3,0.2-0.5,0.2-0.8,0.2
	c-0.6,0-1.1-0.3-1.5-0.9C363.5,372.4,363.3,371.7,363.3,371z M366.1,372.4c0.3-0.4,0.4-0.9,0.4-1.4s-0.1-1-0.4-1.4
	c-0.2-0.3-0.5-0.5-0.7-0.5c-0.3,0-0.5,0.2-0.8,0.5c-0.3,0.4-0.4,0.9-0.4,1.4s0.1,1,0.4,1.4c0.2,0.3,0.5,0.5,0.8,0.5
	S365.8,372.7,366.1,372.4z"/>
<path id="XMLID_162_" class="st4" d="M371.1,370.6c-0.2,0.3-0.6,0.4-1,0.4s-0.7-0.1-0.9-0.4c-0.2-0.3-0.4-0.6-0.4-1v0
	c0-0.4,0.1-0.7,0.4-1c0.2-0.3,0.6-0.4,1-0.4c0.4,0,0.7,0.1,0.9,0.4c0.2,0.3,0.4,0.6,0.4,1v0C371.5,370,371.4,370.3,371.1,370.6z
	 M369.8,370.1c0.1,0.2,0.3,0.2,0.4,0.2c0.2,0,0.3-0.1,0.4-0.2c0.1-0.2,0.2-0.3,0.2-0.6v0c0-0.2-0.1-0.4-0.2-0.6
	c-0.1-0.2-0.3-0.2-0.4-0.2s-0.3,0.1-0.4,0.2c-0.1,0.2-0.2,0.3-0.2,0.6v0C369.6,369.8,369.7,370,369.8,370.1z M370.1,373.8
	c-0.1,0-0.2,0-0.2-0.1c-0.1-0.1-0.1-0.1-0.1-0.2s0-0.2,0.1-0.2l3.7-5c0.1-0.1,0.1-0.1,0.2-0.1c0.1,0,0.2,0,0.3,0.1
	c0.1,0.1,0.1,0.1,0.1,0.2s0,0.2-0.1,0.2l-3.7,5C370.3,373.8,370.2,373.8,370.1,373.8z M374.5,373.4c-0.2,0.3-0.6,0.4-1,0.4
	s-0.7-0.1-0.9-0.4c-0.2-0.3-0.4-0.6-0.4-1v0c0-0.4,0.1-0.7,0.4-1s0.6-0.4,1-0.4c0.4,0,0.7,0.1,0.9,0.4c0.2,0.3,0.4,0.6,0.4,1v0
	C374.9,372.8,374.8,373.2,374.5,373.4z M373.2,373c0.1,0.2,0.3,0.2,0.4,0.2s0.3-0.1,0.4-0.2c0.1-0.2,0.2-0.3,0.2-0.6v0
	c0-0.2-0.1-0.4-0.2-0.6s-0.3-0.2-0.4-0.2s-0.3,0.1-0.4,0.2c-0.1,0.2-0.2,0.3-0.2,0.6v0C373,372.7,373,372.8,373.2,373z"/>
<path id="XMLID_124_" class="st3" d="M94.8,450.4c0.7,0.5,1,1.2,1,2.1c0,0.3,0,0.6,0.1,0.9c0.3,0.1,0.4,0.2,0.5,0.5s0,0.5-0.1,0.7
	s-0.4,0.3-0.7,0.3h0c-0.4,0-0.8-0.2-1-0.7c-0.2-0.4-0.3-1-0.3-1.8c0-0.4-0.2-0.8-0.6-1.1c-0.3-0.2-0.5-0.3-0.8-0.4H91v3.2
	c0,0.2-0.1,0.4-0.2,0.6c-0.2,0.2-0.4,0.2-0.6,0.2c-0.2,0-0.4-0.1-0.6-0.2c-0.2-0.2-0.2-0.3-0.2-0.6v-8.6c0-0.2,0.1-0.4,0.2-0.6
	c0.2-0.2,0.3-0.2,0.6-0.2h2.6c0.9,0,1.6,0.3,2.2,0.9c0.6,0.6,0.9,1.4,0.9,2.3C96,449,95.6,449.7,94.8,450.4z M92.8,449.5
	c0.4,0,0.8-0.1,1.1-0.4s0.4-0.6,0.4-1.1c0-0.4-0.1-0.8-0.4-1.1s-0.6-0.4-1.1-0.4H91v3H92.8z"/>
<path id="XMLID_127_" class="st3" d="M105.2,451.2c0,0.2-0.1,0.4-0.2,0.5c-0.1,0.1-0.3,0.2-0.6,0.2h-4.6c0.1,0.4,0.3,0.7,0.5,1
	c0.3,0.4,0.8,0.6,1.4,0.6c0.6,0.1,1.1,0,1.6-0.4c0.1-0.2,0.3-0.2,0.6-0.2c0.2,0,0.4,0.1,0.5,0.2c0.3,0.3,0.3,0.6,0,0.9
	c-0.7,0.6-1.6,1-2.6,1c-1,0-1.9-0.4-2.6-1.1s-1-1.6-1-2.6c0-1,0.4-1.9,1-2.6s1.5-1.1,2.5-1.1s1.8,0.3,2.5,1
	C104.7,449.4,105.1,450.2,105.2,451.2L105.2,451.2z M101.6,449.2c-0.6,0-1,0.2-1.4,0.5c-0.3,0.3-0.5,0.7-0.6,1h4.1
	c-0.1-0.3-0.3-0.7-0.7-1C102.7,449.4,102.2,449.2,101.6,449.2z"/>
<path id="XMLID_130_" class="st3" d="M107.7,454c-0.7-0.7-1-1.6-1-2.6c0-1,0.3-1.9,1-2.6c0.7-0.7,1.5-1.1,2.5-1.1
	c0.7,0,1.3,0.2,1.9,0.6c0-0.2,0.1-0.3,0.3-0.5c0.1-0.1,0.3-0.2,0.5-0.2c0.2,0,0.4,0.1,0.5,0.2c0.2,0.2,0.2,0.3,0.2,0.6v5.7
	c0,0.2-0.1,0.4-0.2,0.5c-0.2,0.2-0.3,0.2-0.5,0.2c-0.2,0-0.4-0.1-0.5-0.2c-0.1-0.1-0.2-0.3-0.3-0.5c-0.6,0.4-1.2,0.6-1.9,0.6
	C109.2,455.1,108.4,454.7,107.7,454z M108.3,451.4c0,0.6,0.2,1.1,0.5,1.5c0.4,0.4,0.8,0.6,1.4,0.6c0.6,0,1-0.2,1.4-0.6
	c0.4-0.4,0.5-0.9,0.5-1.5s-0.2-1.1-0.6-1.5c-0.4-0.4-0.8-0.6-1.4-0.6c-0.6,0-1,0.2-1.4,0.6C108.5,450.3,108.3,450.8,108.3,451.4z"/>
<path id="XMLID_133_" class="st3" d="M117.1,454c-0.7-0.7-1.1-1.6-1.1-2.6c0-1,0.4-1.9,1.1-2.6c0.7-0.7,1.6-1.1,2.6-1.1
	c0.8,0,1.6,0.3,2.3,0.8c0.2,0.1,0.3,0.3,0.3,0.5s0,0.4-0.2,0.6c-0.1,0.2-0.3,0.3-0.5,0.3c-0.2,0-0.4,0-0.6-0.2
	c-0.4-0.3-0.9-0.5-1.5-0.5c-0.5,0-1,0.2-1.5,0.6c-0.4,0.4-0.6,0.9-0.6,1.5s0.2,1.1,0.6,1.5c0.4,0.4,0.9,0.6,1.5,0.6
	c0.5,0,1-0.2,1.5-0.5c0.2-0.1,0.3-0.2,0.6-0.1c0.2,0,0.4,0.1,0.5,0.3c0.1,0.2,0.2,0.4,0.2,0.6c0,0.2-0.1,0.4-0.3,0.5
	c-0.7,0.5-1.5,0.8-2.3,0.8C118.7,455.1,117.8,454.7,117.1,454z"/>
<path id="XMLID_135_" class="st3" d="M127.3,447.8c0.2,0,0.4,0.1,0.6,0.2c0.2,0.2,0.2,0.3,0.2,0.6s-0.1,0.4-0.2,0.6
	s-0.4,0.2-0.6,0.2H127v4.1c0.2,0,0.4,0.1,0.6,0.2c0.2,0.2,0.2,0.4,0.2,0.6s-0.1,0.4-0.2,0.6c-0.2,0.2-0.3,0.2-0.6,0.2
	c-0.4,0-0.8-0.2-1.1-0.5c-0.3-0.3-0.5-0.7-0.5-1.1v-4.1h-0.4c-0.2,0-0.4-0.1-0.6-0.2c-0.2-0.2-0.2-0.3-0.2-0.6
	c0-0.2,0.1-0.4,0.2-0.6c0.2-0.2,0.3-0.2,0.6-0.2h0.4v-2.1c0-0.2,0.1-0.4,0.2-0.6c0.2-0.2,0.4-0.2,0.6-0.2c0.2,0,0.4,0.1,0.6,0.2
	c0.2,0.2,0.2,0.3,0.2,0.6v2.1H127.3z"/>
<path id="XMLID_137_" class="st3" d="M99.5,463.9l0-0.5c0-0.8,0.1-1.4,0.4-2s0.6-1,1.1-1.4c0.4-0.3,0.8-0.4,1.4-0.4
	c0.1,0,0.3,0,0.4,0.1c0.1,0.1,0.2,0.2,0.2,0.3c0,0.1,0,0.3-0.1,0.4c-0.1,0.1-0.2,0.2-0.4,0.2c-0.3,0-0.6,0.1-0.9,0.3
	s-0.5,0.5-0.7,0.8c0.3-0.1,0.6-0.2,0.9-0.2c0.6,0,1.1,0.2,1.5,0.6c0.4,0.4,0.6,0.9,0.6,1.5c0,0.6-0.2,1.1-0.6,1.5
	c-0.4,0.4-0.9,0.6-1.5,0.6c-0.6,0-1.1-0.2-1.5-0.6S99.6,464.5,99.5,463.9z M100.9,464.5c0.2,0.2,0.5,0.3,0.8,0.3s0.6-0.1,0.8-0.3
	c0.2-0.2,0.3-0.5,0.3-0.8c0-0.3-0.1-0.6-0.3-0.8c-0.2-0.2-0.5-0.4-0.8-0.4s-0.6,0.1-0.8,0.4c-0.2,0.2-0.3,0.5-0.3,0.8
	C100.5,464,100.6,464.3,100.9,464.5z"/>
<path id="XMLID_140_" class="st3" d="M105.3,462.7c0-0.9,0.2-1.6,0.6-2.2c0.4-0.7,1-1,1.7-1c0.3,0,0.6,0.1,0.9,0.3s0.5,0.4,0.7,0.7
	c0.4,0.6,0.6,1.3,0.6,2.2s-0.2,1.6-0.6,2.2c-0.2,0.3-0.4,0.5-0.7,0.7c-0.3,0.2-0.6,0.3-0.9,0.3c-0.7,0-1.2-0.3-1.7-1
	C105.5,464.3,105.3,463.6,105.3,462.7z M108.4,464.3c0.3-0.4,0.4-1,0.4-1.6s-0.1-1.2-0.4-1.6c-0.3-0.4-0.5-0.6-0.8-0.5
	c-0.3,0-0.6,0.2-0.9,0.5c-0.3,0.4-0.4,1-0.4,1.6s0.1,1.2,0.4,1.6c0.3,0.4,0.5,0.6,0.9,0.6C107.9,464.9,108.2,464.7,108.4,464.3z"/>
<path id="XMLID_143_" class="st3" d="M114.1,462.2c-0.3,0.3-0.6,0.5-1.1,0.5s-0.8-0.2-1.1-0.5c-0.3-0.3-0.4-0.7-0.4-1.1v0
	c0-0.5,0.1-0.8,0.4-1.1c0.3-0.3,0.6-0.5,1.1-0.5s0.8,0.2,1.1,0.5c0.3,0.3,0.4,0.7,0.4,1.1v0C114.6,461.6,114.4,461.9,114.1,462.2z
	 M112.6,461.8c0.1,0.2,0.3,0.3,0.5,0.3c0.2,0,0.4-0.1,0.5-0.3c0.1-0.2,0.2-0.4,0.2-0.6v0c0-0.3-0.1-0.5-0.2-0.7
	c-0.1-0.2-0.3-0.3-0.5-0.3c-0.2,0-0.4,0.1-0.5,0.3s-0.2,0.4-0.2,0.6v0C112.4,461.4,112.5,461.6,112.6,461.8z M112.9,465.9
	c-0.1,0-0.2,0-0.3-0.1c-0.1-0.1-0.1-0.1-0.1-0.2c0-0.1,0-0.2,0.1-0.2l4.1-5.6c0.1-0.1,0.2-0.2,0.3-0.2s0.2,0,0.3,0.1
	c0.1,0.1,0.1,0.1,0.1,0.2s0,0.2-0.1,0.2l-4.1,5.6C113.1,465.9,113,465.9,112.9,465.9z M118,465.5c-0.3,0.3-0.6,0.5-1.1,0.5
	c-0.4,0-0.8-0.2-1.1-0.5c-0.3-0.3-0.4-0.7-0.4-1.1v0c0-0.5,0.1-0.8,0.4-1.1c0.3-0.3,0.6-0.5,1.1-0.5s0.8,0.2,1.1,0.5
	c0.3,0.3,0.4,0.7,0.4,1.1v0C118.4,464.8,118.2,465.1,118,465.5z M116.4,465c0.1,0.2,0.3,0.3,0.5,0.3c0.2,0,0.4-0.1,0.5-0.3
	c0.1-0.2,0.2-0.4,0.2-0.6v0c0-0.3-0.1-0.5-0.2-0.7s-0.3-0.3-0.5-0.3s-0.4,0.1-0.5,0.3c-0.1,0.2-0.2,0.4-0.2,0.6v0
	C116.2,464.6,116.3,464.8,116.4,465z"/>
<path id="XMLID_92_" class="st3" d="M238.6,458.5c-0.2,0-0.4-0.1-0.5-0.2s-0.2-0.3-0.2-0.5c0-0.2,0.1-0.4,0.2-0.5s0.3-0.2,0.5-0.2
	v-7c0-0.2,0.1-0.4,0.2-0.5c0.1-0.1,0.3-0.2,0.5-0.2c0.2,0,0.4,0.1,0.5,0.2s0.2,0.3,0.2,0.5v7c0,0.4-0.1,0.7-0.4,1
	C239.4,458.3,239,458.5,238.6,458.5z M239.9,448c-0.1,0.2-0.3,0.2-0.5,0.2s-0.4-0.1-0.5-0.2s-0.2-0.3-0.2-0.5v-0.3
	c0-0.2,0.1-0.4,0.2-0.5c0.1-0.1,0.3-0.2,0.5-0.2s0.4,0.1,0.5,0.2s0.2,0.3,0.2,0.5v0.3C240.1,447.7,240,447.9,239.9,448z"/>
<path id="XMLID_98_" class="st3" d="M243.6,455c-0.9-1-1.4-2.2-1.4-3.6s0.5-2.6,1.4-3.6c0.9-1,2.1-1.5,3.4-1.5s2.5,0.5,3.4,1.5
	c0.9,1,1.4,2.2,1.4,3.5s-0.5,2.6-1.4,3.6c-0.4,0.4-0.9,0.8-1.5,1.1l-0.3,0.1c0.6,0.3,1.1,0.5,1.5,0.5c0.4,0,0.9-0.2,1.3-0.5
	c0.2-0.1,0.4-0.2,0.6-0.2s0.4,0.1,0.5,0.3c0.1,0.2,0.2,0.4,0.2,0.6c0,0.2-0.1,0.4-0.3,0.5c-0.7,0.6-1.5,0.9-2.3,0.9h0
	c-0.7,0-1.6-0.3-2.5-0.8c-0.2-0.1-0.5-0.2-0.7-0.2s-0.5,0-0.7,0.1c-0.2,0.1-0.3,0.1-0.4,0.1c-0.3,0.2-0.6,0.2-0.8,0c0,0-0.1,0-0.1,0
	c-0.3-0.4-0.3-0.6-0.3-0.9s0.2-0.4,0.4-0.5l0,0C244.6,455.7,244,455.4,243.6,455z M247,454.8c0.9,0,1.7-0.3,2.3-1s0.9-1.5,0.9-2.4
	s-0.3-1.8-0.9-2.4s-1.4-1-2.3-1s-1.6,0.3-2.2,1c-0.6,0.6-0.9,1.5-0.9,2.4s0.3,1.8,0.9,2.5C245.4,454.5,246.1,454.8,247,454.8z"/>
<path id="XMLID_102_" class="st3" d="M259.8,453.2c0,0.8-0.3,1.4-0.9,2c-0.6,0.6-1.2,0.8-2,0.8c-0.8,0-1.5-0.3-2-0.8
	c-0.6-0.6-0.8-1.2-0.8-2v-3.3c0-0.2,0.1-0.4,0.2-0.5s0.3-0.2,0.5-0.2s0.4,0.1,0.5,0.2s0.2,0.3,0.2,0.5v3.3c0,0.4,0.1,0.7,0.4,1
	s0.6,0.4,1,0.4c0.4,0,0.7-0.1,1-0.4c0.3-0.3,0.4-0.6,0.4-1v-3.3c0-0.2,0.1-0.4,0.2-0.5s0.3-0.2,0.5-0.2s0.4,0.1,0.5,0.2
	c0.2,0.1,0.2,0.3,0.2,0.5V453.2z"/>
<path id="XMLID_104_" class="st3" d="M268.7,452.5c0,0.2-0.1,0.4-0.2,0.5c-0.1,0.1-0.3,0.2-0.5,0.2h-4.4c0.1,0.4,0.2,0.7,0.5,0.9
	c0.3,0.3,0.7,0.5,1.3,0.6s1,0,1.5-0.3c0.1-0.1,0.3-0.2,0.5-0.2s0.4,0.1,0.5,0.2c0.3,0.3,0.3,0.6,0,0.9c-0.7,0.6-1.5,0.9-2.4,0.9
	c-1,0-1.8-0.3-2.4-1c-0.6-0.7-1-1.5-1-2.4c0-0.9,0.3-1.7,1-2.4c0.6-0.7,1.4-1,2.3-1c0.9,0,1.7,0.3,2.3,0.9
	C268.3,450.7,268.7,451.5,268.7,452.5L268.7,452.5z M265.4,450.5c-0.5,0-1,0.2-1.3,0.5c-0.3,0.3-0.5,0.6-0.6,1h3.9
	c-0.1-0.3-0.3-0.6-0.7-0.9C266.4,450.7,266,450.6,265.4,450.5z"/>
<path id="XMLID_107_" class="st3" d="M272.4,450c0.2-0.2,0.5-0.4,0.9-0.6s0.7-0.2,1-0.2c0.3,0,0.5,0.1,0.7,0.2s0.2,0.3,0.2,0.5
	s-0.1,0.4-0.2,0.5s-0.3,0.2-0.5,0.2c-0.8,0-1.5,0.7-2,2.1v2.6c0,0.2-0.1,0.4-0.2,0.5c-0.1,0.1-0.3,0.2-0.5,0.2
	c-0.2,0-0.4-0.1-0.5-0.2s-0.2-0.3-0.2-0.5v-5.4c0-0.2,0.1-0.4,0.2-0.5s0.3-0.2,0.5-0.2c0.2,0,0.4,0.1,0.5,0.2
	C272.3,449.6,272.4,449.7,272.4,450L272.4,450z"/>
<path id="XMLID_109_" class="st3" d="M280.8,449.4c0.1-0.1,0.3-0.2,0.5-0.2s0.4,0.1,0.5,0.2c0.1,0.1,0.2,0.3,0.2,0.5v5.2
	c0,0.9-0.3,1.7-1,2.3s-1.4,1-2.3,1c-0.5,0-1-0.1-1.4-0.3c-0.2-0.1-0.3-0.2-0.4-0.4c-0.1-0.2-0.1-0.4,0-0.6c0.1-0.2,0.2-0.3,0.4-0.3
	c0.2-0.1,0.4,0,0.6,0.1c0.2,0.1,0.5,0.2,0.8,0.2s0.7-0.1,1-0.4c0.3-0.2,0.5-0.5,0.6-0.9c-0.4,0.2-0.8,0.3-1.3,0.3
	c-0.8,0-1.5-0.3-2-0.8c-0.6-0.6-0.8-1.2-0.8-2v-3.2c0-0.2,0.1-0.4,0.2-0.5s0.3-0.2,0.5-0.2s0.4,0.1,0.5,0.2c0.1,0.1,0.2,0.3,0.2,0.5
	v3.2c0,0.4,0.1,0.7,0.4,1c0.3,0.3,0.6,0.4,1,0.4c0.4,0,0.7-0.1,1-0.4c0.3-0.3,0.4-0.6,0.4-1v-3.2
	C280.6,449.7,280.7,449.6,280.8,449.4z"/>
<path id="XMLID_111_" class="st3" d="M255.3,462.5c0.3,0.2,0.5,0.4,0.7,0.7c0.2,0.3,0.2,0.6,0.2,1c0,0.6-0.2,1-0.6,1.4
	c-0.4,0.4-0.9,0.6-1.4,0.6s-1-0.2-1.4-0.6c-0.4-0.4-0.6-0.9-0.6-1.4c0-0.3,0.1-0.7,0.2-1c0.2-0.3,0.4-0.5,0.7-0.7
	c-0.2-0.2-0.3-0.5-0.3-0.9s0.1-0.7,0.4-0.9c0.3-0.3,0.6-0.4,1-0.4s0.7,0.1,1,0.4c0.3,0.3,0.4,0.6,0.4,0.9S255.4,462.3,255.3,462.5z
	 M253.4,465c0.2,0.2,0.5,0.3,0.8,0.3c0.3,0,0.6-0.1,0.8-0.3c0.2-0.2,0.3-0.5,0.3-0.8c0-0.3-0.1-0.6-0.3-0.8s-0.5-0.3-0.8-0.3
	c-0.3,0-0.6,0.1-0.8,0.3c-0.2,0.2-0.3,0.5-0.3,0.8C253.1,464.5,253.2,464.7,253.4,465z M254.6,461.7c0-0.1,0-0.2-0.1-0.3
	c-0.1-0.1-0.2-0.1-0.3-0.1c-0.1,0-0.2,0-0.3,0.1c-0.1,0.1-0.1,0.2-0.1,0.3c0,0.1,0,0.2,0.1,0.3c0.1,0.1,0.2,0.1,0.3,0.1
	s0.2,0,0.3-0.1S254.6,461.8,254.6,461.7z"/>
<path id="XMLID_115_" class="st3" d="M257.5,463.2c0-0.8,0.2-1.5,0.6-2c0.4-0.6,0.9-0.9,1.6-0.9c0.3,0,0.6,0.1,0.9,0.3
	s0.5,0.4,0.7,0.7c0.4,0.6,0.6,1.2,0.6,2c0,0.8-0.2,1.5-0.6,2c-0.2,0.3-0.4,0.5-0.7,0.7c-0.3,0.2-0.6,0.3-0.9,0.3
	c-0.6,0-1.2-0.3-1.6-0.9C257.7,464.7,257.5,464,257.5,463.2z M260.5,464.7c0.3-0.4,0.4-0.9,0.4-1.5c0-0.6-0.1-1.1-0.4-1.5
	c-0.2-0.4-0.5-0.5-0.8-0.5c-0.3,0-0.5,0.2-0.8,0.5c-0.3,0.4-0.4,0.9-0.4,1.5c0,0.6,0.1,1.1,0.4,1.5c0.2,0.3,0.5,0.5,0.8,0.5
	S260.2,465.1,260.5,464.7z"/>
<path id="XMLID_118_" class="st3" d="M265.8,462.8c-0.3,0.3-0.6,0.4-1,0.4s-0.7-0.1-1-0.4c-0.3-0.3-0.4-0.6-0.4-1.1v0
	c0-0.4,0.1-0.8,0.4-1.1c0.3-0.3,0.6-0.4,1-0.4s0.7,0.1,1,0.4c0.3,0.3,0.4,0.6,0.4,1.1v0C266.2,462.2,266.1,462.5,265.8,462.8z
	 M264.4,462.3c0.1,0.2,0.3,0.2,0.5,0.2s0.3-0.1,0.5-0.2c0.1-0.2,0.2-0.4,0.2-0.6v0c0-0.2-0.1-0.4-0.2-0.6s-0.3-0.2-0.5-0.2
	s-0.3,0.1-0.5,0.2c-0.1,0.2-0.2,0.4-0.2,0.6v0C264.2,462,264.3,462.2,264.4,462.3z M264.7,466.2c-0.1,0-0.2,0-0.3-0.1
	s-0.1-0.1-0.1-0.2s0-0.2,0.1-0.2l3.9-5.3c0.1-0.1,0.1-0.2,0.3-0.2s0.2,0,0.3,0.1c0.1,0.1,0.1,0.1,0.1,0.2c0,0.1,0,0.2-0.1,0.2
	l-3.9,5.3C264.9,466.2,264.8,466.2,264.7,466.2z M269.4,465.8c-0.3,0.3-0.6,0.4-1,0.4c-0.4,0-0.7-0.1-1-0.4
	c-0.3-0.3-0.4-0.6-0.4-1.1v0c0-0.4,0.1-0.8,0.4-1.1s0.6-0.4,1-0.4s0.7,0.1,1,0.4c0.3,0.3,0.4,0.6,0.4,1.1v0
	C269.8,465.2,269.7,465.5,269.4,465.8z M268,465.4c0.1,0.2,0.3,0.2,0.5,0.2s0.3-0.1,0.5-0.2c0.1-0.2,0.2-0.4,0.2-0.6v0
	c0-0.2-0.1-0.4-0.2-0.6s-0.3-0.2-0.5-0.2s-0.3,0.1-0.5,0.2c-0.1,0.2-0.2,0.4-0.2,0.6v0C267.8,465,267.8,465.2,268,465.4z"/>
</svg>
