<?xml version="1.0" encoding="utf-8"?>
<svg version="1.1" id="Layer_1" xmlns="http://www.w3.org/2000/svg" xmlns:xlink="http://www.w3.org/1999/xlink" x="0px" y="0px"
	 viewBox="0 0 100 100" style="enable-background:new 0 0 100 100;" xml:space="preserve">
<style type="text/css">
	.st0{fill:#FFFFFF;}
</style>
<path id="XMLID_14_" class="st0" d="M55.5,62.6c0-5.2-1.6-10.3-4.6-14.5c-3-4.3-7.2-7.5-12.2-9.2c-1-0.3-2.2,3.2-1.2,3.5
	c4.2,1.5,7.8,4.2,10.4,7.9c2.6,3.7,3.9,8,3.9,12.4C51.7,63.1,55.5,63.7,55.5,62.6z M57,60.4"/>
<path id="XMLID_11_" class="st0" d="M44.8,52.5c-1.3-1.9-3.2-3.3-5.3-4c-1-0.3-2.2,3.2-1.2,3.5c1.4,0.5,2.6,1.4,3.5,2.6
	c0.9,1.2,1.3,2.7,1.3,4.2c0,0.4,0.1,0.8,0.3,1.1c0.3,0.5,3.4,0,3.4-1.1C46.8,56.5,46.1,54.3,44.8,52.5L44.8,52.5z M44.8,52.5"/>
<path id="XMLID_8_" class="st0" d="M61.3,68.5c0.3,0.5,3.4,0,3.4-1.1c0-8.6-2.6-17-7.7-24.1C52,36.2,45,30.9,36.9,28
	c-1-0.3-2.2,3.2-1.2,3.5C43.1,34.2,49.4,39,54,45.5s7,14.1,7,21.9C60.9,67.8,61.1,68.2,61.3,68.5L61.3,68.5z M61.3,68.5"/>
</svg>