<?xml version="1.0" encoding="utf-8"?>
<svg version="1.1" id="Layer_1" xmlns="http://www.w3.org/2000/svg" xmlns:xlink="http://www.w3.org/1999/xlink" x="0px" y="0px"
	 viewBox="0 0 224 160" style="enable-background:new 0 0 224 160;" xml:space="preserve">
<style type="text/css">
	.st0{fill:#4B413B;}
	.st1{fill:#DEAB8E;}
	.st2{fill:#008076;}
	.st3{fill:#009680;}
	.st4{fill:#FFFFFF;}
	.st5{fill:none;}
	.st6{fill:#1D5D68;}
</style>
<g id="XMLID_13_">
	<path id="XMLID_11_" class="st0" d="M38.5,154.7H18.3v-1h-5.8v1H7.2V146l13.2,0.5c0,0,6.7,4.6,18.1,5.9
		C39.6,152.4,38.5,154.7,38.5,154.7z"/>
	<path id="XMLID_10_" class="st0" d="M98.4,154.7H78.1v-1h-5.8v1h-5.2V146l13.2,0.5c0,0,6.7,4.6,18.1,5.9
		C99.5,152.4,98.4,154.7,98.4,154.7z"/>
	<polygon id="XMLID_9_" class="st1" points="203.3,42.7 209.1,43.2 218.8,25.2 215.9,25.2 205.9,37.3 	"/>
	<polygon id="XMLID_8_" class="st1" points="128.3,33.2 135.5,25.7 146.1,6.8 158.6,8.9 162.9,20.8 158.7,25.3 158.2,31.2 
		154.4,30.3 149.6,34.8 144.6,33.8 141.2,36.9 	"/>
	<path id="XMLID_7_" class="st0" d="M136.4,26.3l-2.9-0.6c0,0,2.9-11.4,4.8-14.7c3.3-5.7,11-5.6,11-5.6s11.5,1.7,16.3,7.3
		c3.1,3.6-1.7,9.7-1.7,9.7l-9.1-4.4l-7.6,2.1c0,0-1.2-3.8-2.6-3.8c-0.8,0-2.9,1.7-2.8,3c0,0.4,0.9,1.6,0.9,1.6L136.4,26.3z"/>
	<path id="XMLID_6_" class="st2" d="M101.4,107.2l-0.9-3.9l-74.8,45.8c0,0-0.2,0.4-4.8,0.4c-6.8,0-16.8-1.9-13.7-4
		C63,108.4,87.3,91.5,96.5,85L101.4,107.2z"/>
	<path id="XMLID_5_" class="st3" d="M125.8,122.3l-41.5,26c-6.1,1.6-23.5,1.5-21.6-1.3l41.8-26.8l-3.1-13L96.5,85
		c3.5-2.5,4.8-3.4,4.8-3.4H120L125.8,122.3z"/>
	<polygon id="XMLID_4_" class="st4" points="127.5,33.9 131.4,29.5 144.1,33.9 	"/>
	
		<rect id="XMLID_3_" x="148.3" y="15" transform="matrix(0.7011 0.7131 -0.7131 0.7011 58.1398 -101.004)" class="st0" width="2.5" height="7.6"/>
	<line id="XMLID_2_" class="st5" x1="96.5" y1="85" x2="95.7" y2="81.6"/>
	<polygon id="XMLID_1_" class="st6" points="84.7,92.4 118.4,33 208.4,34 203.6,44.4 146.5,53.4 122.7,100.5 	"/>
</g>
</svg>
